<svg width="30" height="30" viewBox="0 0 30 30" fill="none" xmlns="http://www.w3.org/2000/svg">
<rect width="30" height="30" fill="white"/>
<path d="M9.81793 11.0531C9.81793 11.5824 9.85223 12.0114 9.91206 12.3261C9.98801 12.6801 10.0795 13.0242 10.1857 13.3558C10.2285 13.4702 10.2455 13.5845 10.2455 13.6848C10.2455 13.8277 10.1942 13.9707 10.0831 14.1138L9.54431 14.7144C9.46733 14.8003 9.39035 14.8432 9.32185 14.8432C9.23639 14.8432 9.15084 14.7716 9.06528 14.6429C8.95006 14.4358 8.84699 14.2107 8.75747 13.9707C8.67191 13.7278 8.58635 13.4558 8.49232 13.127C7.82524 14.4426 6.98704 15.1006 5.97793 15.1006C5.25959 15.1006 4.68653 14.7573 4.26743 14.0709C3.84843 13.3843 3.63464 12.469 3.63464 11.3249C3.63464 10.1094 3.89121 9.12255 4.41291 8.37886C4.93452 7.63516 5.62733 7.26331 6.50821 7.26331C6.79898 7.26331 7.09832 7.30617 7.41471 7.3777C7.73121 7.44924 8.05617 7.56363 8.39829 7.69236V6.64835C8.39829 5.56132 8.26139 4.80346 7.99625 4.36008C7.72263 3.91669 7.26075 3.70209 6.60224 3.70209C6.3029 3.70209 5.99508 3.75945 5.67859 3.88818C5.36219 4.01674 5.05428 4.17415 4.75493 4.37442C4.61813 4.47446 4.51552 4.53166 4.45559 4.56034C4.39576 4.58902 4.35298 4.60319 4.31878 4.60319C4.19903 4.60319 4.1392 4.46012 4.1392 4.15981V3.45897C4.1392 3.23019 4.15635 3.05861 4.19903 2.95856C4.2418 2.85835 4.31878 2.7583 4.43854 2.65825C4.73788 2.40079 5.09705 2.18619 5.51605 2.01461C5.93525 1.82868 6.37998 1.74298 6.85033 1.74298C7.86811 1.74298 8.61218 2.12899 9.09111 2.90137C9.56146 3.67358 9.80098 4.84631 9.80098 6.41957V11.0531H9.81813H9.81793ZM6.34568 13.227C6.62797 13.227 6.91873 13.1413 7.22655 12.9696C7.53447 12.798 7.80819 12.4833 8.03902 12.0543C8.17593 11.7827 8.27854 11.4824 8.32979 11.139C8.38114 10.7959 8.41535 10.381 8.41535 9.89475V9.29413C8.15599 9.18857 7.89329 9.1074 7.6285 9.05101C7.36187 8.99438 7.09338 8.9657 6.8246 8.96514C6.25154 8.96514 5.83255 9.15106 5.55035 9.53725C5.26806 9.92344 5.13125 10.4669 5.13125 11.1819C5.13125 11.854 5.23386 12.3546 5.44765 12.6979C5.65296 13.0555 5.9523 13.227 6.34568 13.227ZM13.2132 14.7716C13.0592 14.7716 12.9566 14.7288 12.8882 14.6285C12.8198 14.5428 12.7599 14.3426 12.7086 14.0709L10.6989 3.01576C10.6474 2.72962 10.6218 2.54369 10.6218 2.44365C10.6218 2.21487 10.6902 2.08597 10.8271 2.08597H11.6652C11.8277 2.08597 11.9389 2.12899 11.9988 2.22904C12.0672 2.31492 12.1185 2.51518 12.1698 2.78681L13.6066 12.2546L14.9407 2.78681C14.9835 2.50084 15.0349 2.31492 15.1032 2.22904C15.1717 2.14334 15.2914 2.08614 15.4454 2.08614H16.1295C16.292 2.08614 16.4033 2.12899 16.4716 2.22904C16.5401 2.31492 16.5999 2.51518 16.6341 2.78681L17.9854 12.369L19.4649 2.78681C19.5161 2.50084 19.5761 2.31492 19.6359 2.22904C19.7043 2.14334 19.8155 2.08614 19.9694 2.08614H20.7648C20.9017 2.08614 20.9786 2.20053 20.9786 2.44365C20.9786 2.51518 20.9701 2.58672 20.9615 2.67242C20.9529 2.7583 20.9359 2.87269 20.9017 3.0301L18.8405 14.0851C18.7892 14.3713 18.7294 14.5572 18.6609 14.6429C18.5925 14.7288 18.4813 14.786 18.336 14.786H17.6005C17.438 14.786 17.3268 14.7431 17.2583 14.6429C17.1899 14.5428 17.1301 14.3569 17.0959 14.0709L15.7702 4.84631L14.4531 14.0564C14.4105 14.3426 14.3591 14.5285 14.2907 14.6285C14.2223 14.7288 14.1025 14.7716 13.9487 14.7716H13.2131H13.2132ZM24.2029 15.1578C23.7582 15.1578 23.3135 15.0719 22.8859 14.9003C22.4582 14.7288 22.1248 14.5427 21.9024 14.3284C21.7655 14.1995 21.6714 14.0566 21.6373 13.9279C21.604 13.8016 21.5865 13.6653 21.5859 13.5273V12.798C21.5859 12.4977 21.6543 12.3546 21.7826 12.3546C21.835 12.3549 21.887 12.3695 21.9366 12.3976C21.9879 12.4263 22.0648 12.4833 22.1504 12.5405C22.4525 12.7627 22.7678 12.9305 23.0911 13.0411C23.4261 13.1548 23.767 13.2123 24.1089 13.2127C24.6476 13.2127 25.0667 13.0555 25.3575 12.7408C25.6483 12.4261 25.8022 11.9686 25.8022 11.3821C25.8022 10.9818 25.7252 10.6528 25.5713 10.381C25.4173 10.1094 25.1266 9.86624 24.7076 9.6373L23.4674 8.99382C22.8431 8.66483 22.3813 8.17859 22.099 7.53494C21.8168 6.90564 21.6715 6.20497 21.6715 5.46128C21.6715 4.86065 21.7484 4.33139 21.9024 3.87367C22.0563 3.41612 22.2616 3.01576 22.5181 2.70111C22.7747 2.37211 23.0655 2.12899 23.4076 1.95741C23.7496 1.78583 24.1088 1.71429 24.4851 1.71429C24.6733 1.71429 24.87 1.72864 25.0582 1.77149C25.2549 1.81434 25.4345 1.87154 25.6141 1.92873C25.7851 2.00027 25.9476 2.0718 26.1016 2.15768C26.2555 2.24338 26.3752 2.32926 26.4607 2.41497C26.5805 2.52952 26.666 2.64391 26.7173 2.77264C26.7687 2.88703 26.7943 3.04427 26.7943 3.24453V3.91669C26.7943 4.21701 26.7259 4.37442 26.5975 4.37442C26.5291 4.37442 26.418 4.31705 26.2727 4.20266C25.7851 3.83082 25.2377 3.64489 24.6306 3.64489C24.1431 3.64489 23.7582 3.77362 23.493 4.04542C23.228 4.31705 23.0911 4.73192 23.0911 5.31821C23.0911 5.71873 23.1767 6.0619 23.3477 6.3337C23.5188 6.60533 23.8352 6.87713 24.2885 7.12024L25.5029 7.76389C26.1186 8.09288 26.5633 8.55044 26.8285 9.13672C27.0936 9.72317 27.222 10.3953 27.222 11.139C27.222 11.754 27.1449 12.3118 26.9995 12.798C26.8456 13.2842 26.6403 13.7133 26.3752 14.0566C26.11 14.4141 25.7937 14.6716 25.4259 14.8575C25.041 15.0578 24.6391 15.1578 24.2029 15.1578Z" fill="#252F3E"/>
<path d="M25.8193 22.1083C23.0056 25.5837 18.9175 27.4286 15.4026 27.4286C10.4764 27.4286 6.03785 24.3822 2.68535 19.3195C2.42021 18.9191 2.65963 18.3757 2.97602 18.6902C6.60223 22.2085 11.0751 24.3394 15.702 24.3394C18.8235 24.3394 22.253 23.2525 25.4088 21.0215C25.8792 20.6638 26.2811 21.5364 25.8193 22.1083V22.1083ZM26.991 19.8772C26.6318 19.105 24.6134 19.5054 23.6983 19.6913C23.4246 19.7487 23.3819 19.3481 23.6299 19.0478C25.2377 17.1599 27.8805 17.7035 28.1883 18.3327C28.4962 18.9763 28.1027 23.3954 26.5975 25.5121C26.3667 25.8411 26.1443 25.6695 26.2469 25.2405C26.589 23.8245 27.3502 20.6353 26.991 19.8772V19.8772Z" fill="#FF9900"/>
</svg>
