<svg width="65" height="25" viewBox="0 0 65 25" fill="none" xmlns="http://www.w3.org/2000/svg">
<path d="M44.4767 1.86952L44.4665 1.73149L44.2331 1.75179L44.2534 1.88982L44.4767 1.86952ZM45.9991 5.53954V5.61262L46.1574 5.59232C46.1574 5.51924 46.1777 5.44414 46.2102 5.37106L46.2001 5.23303C46.127 5.24318 46.062 5.33858 45.9991 5.53954ZM40.0698 10.1372C40.0597 10.0093 39.6476 9.50187 38.8539 8.61481C38.8438 8.45648 39.1077 8.20274 39.6781 7.88608L41.2857 6.47938C41.645 6.02468 41.8561 5.28378 41.9211 4.24854L41.9008 4.0151C41.8378 3.30668 41.3202 2.73628 40.3459 2.29174C39.7653 1.89997 38.7281 1.68886 37.228 1.64623C35.9796 1.75179 34.3638 2.19633 32.3644 2.97783C31.7641 3.40842 31.1392 3.80357 30.4929 4.16125L30.503 4.28914C30.5704 4.27019 30.6347 4.24147 30.6938 4.20388C30.7669 4.19373 30.8217 4.22418 30.8217 4.30943L30.9496 4.24651L31.0024 4.23636V4.29928C31.0125 4.35206 30.5801 4.7012 29.7012 5.31422L29.7641 5.42993L29.7113 5.44008L29.5632 5.3873C29.5733 5.42993 29.5104 5.46038 29.3825 5.46038L29.3927 5.5233L29.5307 5.69178C29.4619 5.68832 29.394 5.67393 29.3297 5.64915C29.1007 5.68074 28.8906 5.79303 28.737 5.96582L28.8101 5.61668C29.1064 4.348 29.3074 3.22751 29.413 2.2552L29.4028 2.19227C29.1799 2.04671 28.9836 1.86409 28.8223 1.65232V1.38844L28.8121 1.33566L28.7492 1.35596C28.1138 2.30797 26.8878 3.93594 25.0812 6.2297C23.6968 7.86781 22.9884 8.7772 22.9458 8.96801C22.3754 9.54855 22.1115 9.89769 22.1419 10.0256C21.9836 10.1108 21.9308 10.2062 21.9511 10.3219C21.9085 10.3219 21.878 10.3118 21.8659 10.2692C21.7481 10.4602 21.5928 10.6253 21.4092 10.7545C21.2257 10.8836 21.0178 10.974 20.7981 11.0202L20.2907 11.1359C20.2278 11.1461 20.1953 11.1988 20.1953 11.2841L20.2156 11.3369L20.3962 11.2943L20.4064 11.347L19.9842 11.5155L19.2331 11.684L18.8413 11.7165C18.7886 11.7692 19.158 11.7063 19.0098 11.7368L18.5227 11.8525C18.2161 11.9255 18.0578 11.8951 18.0253 11.7794L17.9726 11.7895C17.9829 11.8315 17.9829 11.8754 17.9726 11.9174L17.9523 11.8017L17.5503 11.887C17.53 11.7063 16.9901 11.0405 15.9549 9.89972C15.9346 9.67847 16.304 9.35977 17.0429 8.93756L19.158 7.07616C19.6228 6.47329 19.9091 5.50097 19.9923 4.16937L19.972 3.85271C19.8867 2.91085 19.2006 2.14964 17.9218 1.5691C17.1606 1.05148 15.7965 0.775415 13.8194 0.734817C12.1813 0.872849 10.0459 1.45339 7.41312 2.46833C6.6233 3.0351 5.80042 3.55431 4.94885 4.02322L4.959 4.1917C5.04426 4.17146 5.12625 4.13935 5.20258 4.0963C5.30814 4.08615 5.37106 4.12878 5.38324 4.23433L5.54157 4.13893L5.62683 4.12878V4.21403C5.63698 4.28711 5.05643 4.73165 3.90346 5.55578L3.99886 5.69381L3.91361 5.70396L3.73295 5.64104C3.7431 5.69381 3.65987 5.72629 3.48936 5.73644L3.49951 5.82169L3.69032 6.0328C3.59936 6.03716 3.50873 6.01903 3.42644 5.98003C3.057 6.02265 2.68553 6.28654 2.32624 6.79401L2.42165 6.94219C2.72816 6.65598 2.91897 6.50779 2.97174 6.49764L2.98189 6.74123C2.89527 6.75692 2.81254 6.78932 2.73831 6.83663L2.93927 7.133C3.3087 6.73108 3.73295 6.37179 4.19779 6.07543C4.41905 6.13836 4.54693 6.21346 4.54693 6.28654L4.71541 6.27639C5.96379 5.35685 7.18983 4.69105 8.40573 4.27899L8.41588 4.44747C8.19462 4.78646 8.04644 4.95494 7.96119 4.96509C7.96626 5.07388 8.00691 5.17799 8.07689 5.26145C8.09719 5.47256 7.53694 6.86911 6.41645 9.44909C3.8791 15.4535 1.74367 19.8847 0 22.7489C0.0186377 22.8331 0.0545817 22.9126 0.105554 22.9823C0.527769 22.8869 0.803832 22.7813 0.919535 22.6758L1.00479 22.6656L1.02509 22.8341L1.18342 22.8138L1.34175 22.7286C1.34175 22.7712 1.40468 22.8016 1.51023 22.7915L1.52038 22.9498C1.54068 23.1082 1.4473 23.3517 1.2565 23.6785C1.07584 23.8795 0.897207 24.2916 0.696249 24.9269L0.706398 25L0.864729 24.9898C1.55286 24.2083 2.08063 23.4573 2.43992 22.7164C4.45965 22.1135 6.00235 21.533 7.07007 20.9605C8.13779 20.8753 8.96192 20.5911 9.52217 20.1141L9.51202 20.0288L9.09995 20.1567L9.0147 20.1669L9.00455 20.0714C9.78605 19.9557 10.3361 19.7852 10.6325 19.5437C12.1752 18.3603 13.3282 17.5239 14.1219 17.0266C15.7295 15.8432 16.7749 14.6902 17.2621 13.5596L17.526 13.4967C17.7472 13.4967 17.8751 13.4865 17.9076 13.4764C17.8974 13.4337 17.9177 13.4134 17.9705 13.4033C18.3298 13.3607 18.1512 13.4236 18.3826 13.3708L18.9855 13.2328C18.953 13.2429 18.9327 13.2653 18.9428 13.2957L19.0382 13.2429C19.0179 13.2429 19.0058 13.2328 18.9855 13.2328L19.091 13.2125L19.0382 13.2328C19.1119 13.2446 19.1872 13.2412 19.2595 13.2226L19.3021 13.4033L16.5435 17.7899L15.9406 18.5511L15.6341 19.5559L15.6971 19.5356L15.9934 19.4199L15.898 19.8015L15.9305 19.9172L16.0036 20.0227C15.9711 20.0329 15.9508 20.0552 15.9609 20.0958L15.9812 20.1587L16.0969 20.1384C16.2878 19.97 16.3608 19.8319 16.3304 19.6939C16.4684 19.7264 16.5943 19.7365 16.7323 19.7264L16.7424 19.7893C16.6267 19.8218 16.5618 19.9172 16.5516 20.0857L16.5618 20.1384L16.6247 20.1283C17.6295 19.0403 20.0816 15.2972 22.0587 12.7598C21.9958 12.4858 23.0209 12.1042 25.136 11.617L25.1989 11.5967C25.2842 11.9357 25.1137 12.7375 24.7118 14.0062C24.4479 14.7775 24.32 15.2018 24.3423 15.2748C24.0033 16.2999 23.845 16.85 23.8673 16.9353L23.1163 19.3996C22.6211 20.6862 22.2493 22.017 22.0059 23.3741C22.0688 23.3741 22.144 23.3741 22.2069 23.3944L22.3124 23.299C22.3226 23.3517 22.3551 23.3619 22.3977 23.3517L22.3551 23.1711L22.6819 23.1609C22.7773 23.1406 22.8625 23.0229 22.9255 22.8016C22.9153 22.4626 22.9782 22.284 23.1264 22.2515C23.3274 21.4579 23.4532 21.0681 23.4959 21.0458C23.6867 20.2643 23.8227 19.8197 23.9181 19.704C24.2043 18.6891 24.4052 18.1613 24.5412 18.1289L24.5615 18.2567L24.3606 18.7845C24.0013 20.3922 23.6319 21.6608 23.2604 22.5905L23.3659 23.0452L23.439 23.0351C24.3281 21.1107 25.6171 17.2946 27.2978 11.5967C27.3191 11.3604 27.3951 11.1322 27.5198 10.9303C27.6445 10.7284 27.8146 10.5584 28.0164 10.4336L27.921 10.328L27.9108 10.2753C28.1017 10.2326 28.2377 10.1595 28.3128 10.054C28.3026 10.0114 28.1321 9.94844 27.8053 9.86319L28.6517 6.26827C28.7409 6.16777 28.8484 6.08511 28.9684 6.02468L28.9786 6.20534C28.9156 6.21549 28.8507 6.24797 28.7878 6.27842L28.9461 6.51185C29.2424 6.20534 29.549 5.93131 29.8981 5.69787C30.0666 5.75065 30.1518 5.81358 30.162 5.86635L30.2899 5.8562C31.1383 5.2106 32.0838 4.7036 33.0911 4.35409L33.1012 4.4698C32.9429 4.73368 32.8272 4.86156 32.7623 4.86156C32.7623 4.94682 32.7947 5.01989 32.8353 5.095C32.8455 5.25333 32.4334 6.3109 31.587 8.27785C29.6525 12.8248 28.0347 16.1964 26.7132 18.3745C26.7259 18.4409 26.7552 18.5031 26.7985 18.5551C27.1253 18.4821 27.3262 18.3968 27.4115 18.3217L27.4643 18.3115L27.4744 18.4394L27.6125 18.4293L27.7403 18.3663C27.7403 18.3988 27.783 18.409 27.8682 18.409L27.8784 18.5369C27.8885 18.6526 27.8154 18.8434 27.6673 19.087C27.5292 19.2351 27.381 19.5518 27.2329 20.0288V20.0917L27.3607 20.0816C27.8357 19.564 28.2377 18.9814 28.5563 18.3481C30.0991 17.8934 31.2622 17.459 32.0762 17.0266C32.9003 16.9536 33.5133 16.7404 33.9477 16.3811L33.9376 16.3182L33.6209 16.4136H33.558L33.5478 16.3608C34.1507 16.2654 34.5628 16.1396 34.7962 15.9589C35.9593 15.0597 36.8362 14.4162 37.4391 14.0447C39.3005 12.6908 40.1673 11.3917 40.0617 10.1433L40.0698 10.1372ZM39.741 10.2225L39.7836 10.7096C39.7308 10.8253 39.6679 10.8903 39.6151 10.9005L39.5421 10.0662C39.6801 10.119 39.743 10.1717 39.743 10.2245L39.741 10.2225ZM3.29855 6.3109H3.22548L3.20518 6.16271L3.54417 6.13024V6.21549C3.45632 6.2266 3.37261 6.25939 3.30058 6.3109H3.29855ZM1.68074 22.5296C1.51931 22.453 1.34167 22.4168 1.16312 22.4241L1.15297 22.1906C1.14282 22.1054 1.1956 22.0425 1.30115 22.01C1.41686 21.9998 1.46963 22.0831 1.48181 22.2312C1.76803 21.8923 1.91621 21.7136 1.94665 21.7136L2.12731 21.7867C2.06439 22.2617 1.91621 22.5154 1.68277 22.5276L1.68074 22.5296ZM19.0098 4.39672C18.9367 4.40687 18.7662 4.15313 18.5348 3.64566L18.5247 3.49748C18.6729 3.48733 18.8312 3.74107 18.9997 4.24854L19.0098 4.39672ZM18.7865 2.61043L18.7135 2.76876L16.3669 1.78629C17.932 1.83907 18.7459 2.10296 18.7886 2.61043H18.7865ZM8.8381 11.142L8.51128 11.1623L8.50114 11.0141L8.82795 10.9938L8.8381 11.142ZM8.57421 6.01453L8.64729 6.00438L8.66759 6.24797C8.59451 6.24797 8.49911 6.36367 8.37122 6.58696L8.36107 6.42863C8.50926 6.24797 8.58233 6.11197 8.57218 6.01656L8.57421 6.01453ZM7.87593 7.66483L7.90841 7.97134L7.82316 7.98149L7.79068 7.66483H7.87593ZM7.50649 8.24537L7.67497 8.23522C7.65468 8.48896 7.57957 8.63714 7.45372 8.63714L7.36846 8.64729C7.47402 8.47881 7.51664 8.34078 7.50649 8.24537V8.24537ZM7.24261 9.0695L7.32787 9.05935L7.33801 9.13243L7.17968 9.38616L7.02135 9.39631V9.32324C7.17968 9.30294 7.25479 9.21768 7.23246 9.0695H7.24261ZM6.96655 9.80026L6.91377 10.2022H6.84069L6.79807 9.81041L6.96655 9.80026ZM4.26072 17.4752C4.15516 18.0152 4.03946 18.2892 3.92173 18.2994V18.2263C3.88925 17.9624 4.00698 17.7087 4.26072 17.4752V17.4752ZM3.77355 18.5531V18.6262C3.7837 18.7317 3.73092 18.7947 3.62536 18.7947V18.7216C3.61522 18.6363 3.66799 18.5734 3.77355 18.5531ZM3.62536 20.7839L3.8791 20.7515L3.88925 20.8367C3.7982 20.8537 3.71175 20.8897 3.63551 20.9423L3.47718 20.9524C3.46703 20.8672 3.51981 20.8042 3.62536 20.7839V20.7839ZM10.7523 18.5856C9.34557 19.2737 8.51128 19.7487 8.2677 19.9923C6.74529 20.5201 5.99423 20.8489 6.00438 20.9747C4.65045 21.5147 3.7634 21.9044 3.33915 22.148C3.18509 22.1453 3.03344 22.1093 2.89461 22.0425C2.87431 21.7684 3.00016 21.5451 3.26405 21.3665C3.49469 21.343 3.72751 21.3793 3.94 21.4721C4.36221 21.2813 4.79661 21.1331 5.2513 21.0377L5.231 20.8793L4.73368 20.922C4.79661 20.8367 5.27363 20.6053 6.18301 20.246L6.43675 20.2135V20.2988C6.01453 20.3313 5.7811 20.4571 5.71817 20.6906C5.72832 20.786 5.79125 20.8286 5.89883 20.8184C6.22564 20.6175 6.37382 20.5018 6.37382 20.4693C6.98685 20.3536 8.66759 19.4645 11.4384 17.8163L11.4587 17.9644C11.4587 18.0375 11.2252 18.2385 10.7502 18.5876L10.7523 18.5856ZM6.5017 19.9801C6.89475 19.9498 7.26305 19.7765 7.53694 19.4929C7.65265 19.4828 7.7176 19.5254 7.72775 19.631C7.52679 19.6513 7.14721 19.8116 6.59711 20.1283L6.51185 20.1384L6.5017 19.9801ZM13.3525 14.7166L11.2273 16.3974C9.65208 17.4326 8.80562 17.9523 8.68991 17.9624C6.17286 19.3366 4.60986 20.0552 3.9948 20.108L3.90955 20.1181C3.98262 19.8441 5.10515 17.5483 7.26088 13.247C8.22304 13.1617 9.72515 12.7192 11.7652 11.9154L12.2625 11.8728C13.2977 11.7774 14.0813 11.9783 14.5887 12.4655L14.6212 12.7822C14.2295 13.8823 13.8072 14.5258 13.3525 14.7166V14.7166ZM9.19738 12.3802L9.54652 12.3478V12.433L9.20753 12.4533L9.19738 12.3802ZM14.0082 11.5642L14.2518 11.5439C14.4852 11.6495 14.6009 11.7449 14.6111 11.8403L14.6212 11.9134C14.4 11.9337 14.1868 11.818 14.0082 11.5642ZM14.6841 7.69527C14.4629 7.95916 13.8499 8.41385 12.8654 9.0492C12.5386 9.08168 11.3227 9.55667 9.20753 10.4762C9.10026 10.4322 8.98412 10.4141 8.86854 10.4234L8.85839 10.2753C8.82592 9.96874 8.96395 9.58712 9.26031 9.12228C9.42879 8.25552 9.60945 7.7582 9.80026 7.6425L11.5663 3.68829C11.546 3.44471 11.9154 3.2539 12.6867 3.12805L12.9405 3.09557L12.9608 3.329C13.7118 3.2133 14.1868 3.14834 14.3675 3.12805C15.764 3.01234 16.4928 3.29652 16.5455 3.9745L16.7039 3.96435L16.6714 3.56244L16.8521 3.55229C17.254 3.77355 17.4752 4.04961 17.5077 4.36627C17.528 4.58753 17.4022 4.86359 17.1484 5.1904C17.0429 5.20055 16.9799 5.12748 16.9678 4.96915L16.7993 4.98944L16.7567 5.46444C16.0482 6.522 15.5408 7.0721 15.2139 7.10255C14.9277 7.49432 14.7491 7.69527 14.6862 7.69527H14.6841ZM15.764 10.4661C15.6623 10.3893 15.5416 10.3416 15.4149 10.328L15.3946 10.0946L15.5529 10.0844L15.9021 10.2854C15.9224 10.4011 15.8696 10.4539 15.764 10.4661V10.4661ZM16.8744 11.7875C17.0327 11.8504 17.118 11.9255 17.1383 11.9885L17.0652 11.9986L17.0753 12.0088C17.055 12.0088 17.0327 12.0088 17.0226 12.0189L16.9069 12.1042L16.8744 11.7875ZM16.9799 12.4533L16.9698 12.3904L17.1708 12.3478L17.1809 12.4107L16.9799 12.4533ZM17.4651 13.0034C17.6762 12.9709 17.7716 12.9506 18.1634 12.8654L18.1735 12.9283L17.4448 13.0968C17.4549 13.0643 17.4651 13.0339 17.4651 13.0014V13.0034ZM18.1837 13.2998C17.867 13.3323 17.9401 13.2896 17.4428 13.4053L17.4326 13.3424L18.0456 13.1414L18.342 13.0785L18.3623 13.1942C18.2344 13.2267 18.3298 13.2267 18.1816 13.2998H18.1837ZM18.8292 13.1516C18.7561 13.1719 18.7013 13.1313 18.6708 13.0562L18.8616 13.0136C18.9347 12.9933 18.9895 13.0237 19.0098 13.109L18.8292 13.1516ZM20.5952 11.2476L20.5749 11.1948L20.8814 11.1217L20.9139 11.2374L20.5952 11.2476ZM22.4769 22.7935C22.487 22.7306 22.4972 22.6656 22.487 22.6027L22.5499 22.5926C22.6352 22.5723 22.688 22.6027 22.7083 22.6778L22.7184 22.7407L22.4769 22.7935ZM23.7882 11.7449L23.6603 11.7246C23.4817 11.7985 23.2978 11.8589 23.1102 11.9052L22.9823 11.9377C22.9092 11.958 22.8544 11.9276 22.824 11.8525L23.7009 11.6515L23.9972 11.5135L24.0926 11.619C23.9823 11.6385 23.8776 11.6822 23.7861 11.7469L23.7882 11.7449ZM24.4641 11.5338L24.454 11.4708C24.5175 11.4492 24.5752 11.413 24.6224 11.3653L25.2456 11.2171L25.2558 11.28C24.9877 11.3392 24.726 11.4242 24.4743 11.5338H24.4641ZM24.5697 10.2651C24.5038 10.2895 24.4426 10.3252 24.389 10.3707C24.3789 10.328 24.2936 10.328 24.1353 10.3707C24.1028 10.2428 24.5697 10.0743 25.5196 9.85304L25.6577 9.83274L25.6902 9.94844C25.0142 10.1392 24.6427 10.255 24.5697 10.2651ZM26.2504 8.44633C26.1875 9.20753 25.9114 9.64193 25.4364 9.75763L25.4263 9.6947L25.0041 9.85304L24.8132 9.89566C24.7273 9.92199 24.6354 9.92199 24.5494 9.89566L24.5169 9.72718C24.5067 9.66426 25.1096 8.8178 26.356 7.18983L26.494 7.22231C26.5569 7.43342 26.4737 7.84549 26.2504 8.44836V8.44633ZM29.2323 5.89883H29.1795L29.1592 5.78313L29.413 5.75065L29.4231 5.81358C29.3543 5.82862 29.2894 5.85763 29.2323 5.89883V5.89883ZM28.0062 18.2263C27.8855 18.1627 27.7509 18.1299 27.6145 18.1309L27.6043 17.9502C27.6043 17.8873 27.6368 17.8447 27.72 17.8223C27.8053 17.8122 27.8479 17.865 27.8581 17.9908C27.9636 17.8426 28.0793 17.7168 28.2072 17.5991L28.3351 17.6518C28.2925 18.0111 28.1768 18.2019 28.0083 18.2222L28.0062 18.2263ZM41.168 4.45965C41.1051 4.45965 40.9772 4.26884 40.7864 3.8791L40.7762 3.7634C40.9041 3.75325 41.03 3.94406 41.1457 4.32364L41.168 4.45965ZM40.9894 3.07527L40.9366 3.20315L39.1503 2.46224C40.3459 2.49472 40.9589 2.70583 40.9894 3.07527ZM33.4402 9.56682L33.1865 9.58712L33.1764 9.47142L33.4301 9.45112L33.4402 9.56682ZM33.2291 5.66539H33.3022L33.3124 5.84605C33.2494 5.84605 33.1743 5.94146 33.0789 6.10994L33.0688 5.98206C33.1743 5.84402 33.2271 5.73847 33.2271 5.66539H33.2291ZM32.7115 6.92392L32.7318 7.15736H32.6587L32.6384 6.92392H32.7115ZM32.4253 7.36846L32.5511 7.35831C32.5308 7.55927 32.4781 7.66483 32.3928 7.67497L32.3197 7.68512C32.3811 7.59017 32.4174 7.48123 32.4253 7.36846V7.36846ZM32.2243 7.98149H32.2771L32.2873 8.04441L32.1716 8.23522L32.0437 8.24537V8.18244C32.1716 8.1723 32.2345 8.10937 32.2243 7.98149ZM32.0132 8.54173L31.9706 8.84825L31.9178 8.8584L31.8853 8.55188L32.0132 8.54173ZM29.961 14.3776C29.8758 14.7897 29.7925 14.9907 29.7073 15.0008L29.6971 14.948C29.687 14.7471 29.7702 14.5563 29.961 14.3776ZM29.5814 15.1916L29.5916 15.2444C29.6017 15.3398 29.5591 15.3824 29.4759 15.3824L29.4657 15.3195C29.4657 15.2667 29.4982 15.2241 29.5814 15.1916V15.1916ZM29.4759 16.8825L29.6667 16.8724L29.6768 16.9353C29.6091 16.9471 29.5443 16.9719 29.486 17.0084L29.3581 17.0185C29.3581 16.9556 29.3906 16.913 29.4739 16.8805L29.4759 16.8825ZM34.8774 15.2241C33.8198 15.7417 33.1966 16.101 32.9957 16.2817C31.8427 16.6937 31.2723 16.9373 31.2723 17.0429C30.2574 17.4448 29.5814 17.7411 29.2627 17.932C29.144 17.9264 29.028 17.8937 28.9238 17.8366C28.9035 17.6356 29.009 17.4671 29.21 17.3392C29.3826 17.3218 29.5568 17.3469 29.7174 17.4123C29.9184 17.3169 30.2452 17.2113 30.7222 17.0956L30.7121 16.9678L30.3102 17.0002C30.3629 16.9373 30.7324 16.7567 31.4205 16.4826L31.6113 16.4725L31.6215 16.5252C31.2947 16.5455 31.1038 16.641 31.0714 16.8216C31.0714 16.8947 31.1241 16.9373 31.2094 16.9272C31.4428 16.7688 31.5585 16.6734 31.5585 16.641C32.0234 16.5679 33.3022 15.8899 35.4072 14.6314L35.4173 14.7471C35.4275 14.7999 35.2489 14.948 34.8896 15.2221L34.8774 15.2241ZM31.6539 16.2796C31.954 16.2511 32.2364 16.1249 32.4578 15.9203C32.543 15.9102 32.5836 15.9406 32.5958 16.0259C32.4476 16.036 32.1614 16.1538 31.7392 16.3852L31.6661 16.3953L31.6539 16.2796ZM36.8646 12.2727L35.257 13.5616C34.0614 14.3553 33.4179 14.745 33.3124 14.7572C31.4083 15.8046 30.2249 16.3527 29.7499 16.3852L29.687 16.3953C29.7499 16.1741 30.5964 14.4385 32.2446 11.1725C32.9632 11.1095 34.0939 10.7705 35.6589 10.1575L36.0507 10.1149C36.8322 10.052 37.4147 10.2103 37.8065 10.5797L37.8268 10.8132C37.5304 11.6373 37.2138 12.1245 36.8646 12.2727V12.2727ZM33.7143 10.5087L33.968 10.4884L33.9782 10.5412L33.7244 10.5736L33.7143 10.5087ZM37.362 9.88348L37.5528 9.87333C37.7334 9.95859 37.8268 10.0317 37.8268 10.0946L37.837 10.1474C37.6685 10.1677 37.5101 10.0743 37.362 9.88348V9.88348ZM37.8694 6.9564C37.701 7.15736 37.2463 7.50649 36.4952 7.98149C36.2415 8.01396 35.3219 8.3631 33.7244 9.05935C33.6438 9.02772 33.5566 9.01656 33.4707 9.02688L33.4605 8.89899C33.4402 8.67773 33.5336 8.38137 33.7569 8.03223C33.8848 7.36643 34.0208 6.997 34.169 6.91174L35.5107 3.90955C35.5006 3.72889 35.7847 3.58274 36.3572 3.47515L36.548 3.45486L36.5683 3.64566C37.1285 3.55026 37.4878 3.49748 37.636 3.47718C38.6936 3.39193 39.2437 3.60507 39.2863 4.12269L39.4142 4.11254L39.3939 3.82632L39.5218 3.81617C39.8283 3.98465 39.9866 4.18561 40.0089 4.4292C40.0191 4.59768 39.9358 4.81082 39.7552 5.05237C39.6699 5.07267 39.6273 5.00974 39.6172 4.88389L39.4893 4.89404L39.4467 5.25333C38.9189 6.06731 38.5271 6.48953 38.2835 6.5017C38.0623 6.79807 37.9242 6.94625 37.8613 6.9564H37.8694ZM38.4297 8.9538L38.4195 8.77314L38.5352 8.76299L38.8093 8.92132C38.8194 9.00658 38.7768 9.0492 38.6936 9.05935C38.5779 8.98628 38.4926 8.9538 38.4297 8.9538V8.9538ZM16.0279 20.6459L15.9 20.6784L15.7945 20.7738C15.8148 20.8469 15.8574 20.8793 15.9427 20.859C16.0279 20.8387 16.0584 20.786 16.0381 20.7109L16.0279 20.6459ZM15.5408 19.6959L15.5611 19.7588C15.6341 19.7487 15.6768 19.6959 15.6565 19.6208L15.6463 19.5579C15.5732 19.5782 15.5306 19.6208 15.5408 19.6959ZM18.9347 11.6393L19.0829 11.6069L19.0504 11.479L18.9022 11.5114L18.9347 11.6393ZM62.6096 15.3073C61.1501 15.6341 60.9715 15.5712 60.6528 15.6037L60.663 15.7194L60.801 15.7092H60.8741L60.8538 15.6889L61.0222 15.626C62.4594 15.4677 62.6299 15.5306 62.6177 15.3621L62.6096 15.3073ZM54.7337 16.3547L54.7438 16.4704H54.7641L54.754 16.3547H54.7337ZM53.8243 13.1719L53.6964 13.1293C53.6227 13.2912 53.5695 13.4616 53.5381 13.6367L53.5482 13.6895C53.6538 13.6794 53.739 13.5088 53.8344 13.1719H53.8243ZM62.906 15.2769L62.9161 15.4048L63.1272 15.4474L63.1171 15.3195L62.906 15.2769ZM52.9453 16.5029L52.6287 16.4603L52.5658 16.5882L52.5759 16.6511L54.5205 16.4826L54.5104 16.3669L52.9453 16.5029ZM52.0684 12.2321L52.0583 12.1691L51.9954 12.1793L51.8675 12.2524L51.9406 12.3681C52.036 12.3579 52.0786 12.3153 52.0684 12.23V12.2321ZM63.8357 14.3979L63.9311 14.3878C63.9838 14.3776 64.0041 14.335 63.994 14.2599L63.9412 14.1442C63.6787 14.143 63.4203 14.2087 63.1901 14.335L63.18 14.2721L62.7882 14.3147C62.7781 14.1868 62.7456 14.1341 62.6827 14.1341L62.4817 14.1544C62.2381 14.1747 62.1224 14.1645 62.0067 14.2599C61.9966 14.2071 61.9864 14.1868 61.9641 14.1868L61.7307 14.2071L61.5926 14.2924C61.5926 14.2498 61.5723 14.2295 61.55 14.2295L61.4648 14.2924V14.2396L61.1379 14.2071L61.0649 14.2173L61.075 14.333L61.2435 14.3756L61.3917 14.3655C61.4445 14.4081 61.4972 14.4081 61.5723 14.4081L61.7104 14.3452V14.3979C60.9593 14.5887 60.9593 14.5461 60.4417 14.6314C60.3889 14.5989 60.3463 14.5786 60.3138 14.5786L60.3037 14.5887C60.2407 14.5887 60.2083 14.5461 60.1981 14.4832L60.4721 14.4507C60.4924 14.4507 60.5046 14.471 60.6528 14.5035C60.8741 14.3979 60.8862 14.3553 61.0019 14.3452L60.9918 14.2173C60.2509 14.3655 60.5472 14.2701 59.6176 14.3553H59.5749L59.5648 14.2396C60.7604 14.0914 60.3585 14.1767 60.7705 14.0589C60.7705 14.1016 60.7908 14.1219 60.8132 14.1219C60.8562 14.0782 60.9113 14.0484 60.9715 14.0366H61.0567C61.479 13.994 61.617 14.0792 62.4411 13.8458L62.4513 13.8986L62.5792 13.8357L62.707 13.8255C62.6969 13.7098 62.8877 13.6875 62.9506 13.6773L62.9405 13.5494C61.481 13.8458 61.1014 13.7606 60.6995 13.8763L60.6893 13.8235C60.3077 13.8864 60.2976 13.8661 60.2022 13.8661C60.1535 13.8779 60.1092 13.9033 60.0743 13.9392C60.0743 13.8966 60.0641 13.8864 60.0317 13.8864H60.0114L58.7752 14.0874C58.7752 14.0549 58.7549 14.0346 58.7224 14.0346C58.087 14.1726 58.2575 14.2031 57.4009 14.2782C57.345 14.2902 57.2915 14.3115 57.2426 14.3411C57.2426 14.3086 57.2223 14.2883 57.1797 14.2883L56.6519 14.3411L56.3028 14.4264C56.3028 14.3939 56.2825 14.3736 56.2398 14.3736C56.0731 14.4311 55.8986 14.4633 55.7222 14.469H55.7121C55.6268 14.4791 55.7547 14.4487 55.6918 14.4162L55.5862 14.4791C55.4279 14.4994 55.5131 14.469 54.9833 14.4791C54.0537 14.5948 54.1592 14.607 54.0537 14.6172L53.7045 14.5847C53.7147 14.6172 53.6944 14.6476 53.6517 14.6476C53.26 14.5948 53.059 14.5319 53.059 14.4568C53.1118 14.0874 53.1971 13.8864 53.3229 13.8864L53.396 13.8763L53.3331 14.0041L53.4061 13.994C53.534 13.9311 53.5868 13.8661 53.5868 13.8032L53.5665 13.6753L53.4508 13.6854L53.4406 13.5697C53.4296 13.4871 53.4408 13.403 53.4731 13.3262L53.7593 12.8715L53.7695 12.9872L53.9075 12.977L53.8974 12.8613L53.8243 12.7558C53.9197 12.6604 53.9928 12.6177 54.0679 12.6076L54.0577 12.5447L53.8771 12.565L53.8568 12.3741C54.2262 11.6231 54.3967 11.1785 54.3845 11.0527L54.5226 11.1055C54.5956 11.0953 54.6383 11.0527 54.6383 10.9674H54.5104L54.5002 10.9147C54.5002 10.8294 54.5104 10.7462 54.553 10.6609C54.754 10.46 54.8392 10.2489 54.827 10.0378C54.8595 10.0276 54.8798 10.0479 54.8798 10.0905C55.0483 9.99513 55.1762 9.74139 55.2817 9.31918C55.5781 8.77923 56.0003 7.70136 56.5504 6.08355C57.608 3.23969 57.5654 2.93318 57.7135 2.25723L57.5978 2.26738C57.6019 2.3518 57.5837 2.43581 57.5451 2.51096C57.4805 2.48709 57.4128 2.47273 57.3441 2.46833L57.334 2.41556C57.3238 2.17197 57.4192 1.87561 57.6506 1.52647H57.7034L57.8191 1.93853L57.9348 1.92839C57.9348 1.89591 57.9673 1.73758 58.0302 1.43106C58.0302 1.36814 57.9774 1.32551 57.882 1.32551L57.7663 1.39859C57.7545 1.1733 57.7579 0.947472 57.7765 0.722637L57.7135 0.732787C57.608 0.627233 57.5552 0.541978 57.5552 0.468902L56.8569 0.531829C56.8464 0.457404 56.8216 0.385717 56.7839 0.320721C56.7839 0.257795 56.932 0.192839 57.2487 0.140062L57.3867 0.192839L57.5248 0.107585C57.5248 0.150212 57.5451 0.170511 57.5978 0.170511L57.7257 0.0852546C57.7359 0.138031 57.7582 0.148181 57.811 0.148181H57.8739L57.8536 0C57.6034 0.0112746 57.3528 0.0112746 57.1025 0L56.9747 0.0852546L56.9645 0.0121803C53.739 0.276065 51.9 0.424246 51.4676 0.466873C51.4047 0.477023 51.1814 0.466873 50.7795 0.456724C50.7896 0.509501 50.7368 0.541978 50.6414 0.552128L50.5034 0.489201L50.0284 0.604905C49.8414 0.616397 49.6538 0.609598 49.4682 0.584606C49.3928 0.645563 49.3009 0.682353 49.2043 0.690159C49.1515 0.690159 49.8924 0.647532 50.5887 0.594755C50.4893 0.66411 50.3709 0.700984 50.2497 0.700309C50.1561 0.718188 50.0593 0.703126 49.9756 0.657682C49.6415 0.755564 49.3028 0.836859 48.9607 0.901267L48.8125 0.83834L46.5614 1.18748C46.466 1.14485 46.3706 1.1347 46.265 1.14485C46.0609 1.17074 45.8592 1.21352 45.6621 1.27273L44.5741 1.72743L44.6472 1.86546C44.7275 1.85188 44.8034 1.81916 44.8685 1.77006L45.2602 1.81268L45.2074 2.17197C44.8583 2.3303 44.6472 2.56374 44.5944 2.8601C44.0545 3.10369 43.7906 3.27217 43.7906 3.36757L43.8007 3.4305H43.8738L44.022 3.34524L44.1905 3.5462L44.2108 3.83241C44.2209 3.91767 43.3217 5.80952 41.5252 9.50999C39.9602 13.0724 39.1462 15.0191 39.0732 15.3662C38.5332 15.5144 38.2267 15.7356 38.1313 16.0218C38.1414 16.1172 38.2998 16.1802 38.6063 16.2025L38.6266 16.3405L38.4784 16.574L38.5109 16.848C38.521 16.9962 38.9128 17.1017 39.674 17.187C39.674 17.1342 39.6943 17.1017 39.7471 17.1017C39.7572 17.2702 39.7146 17.6092 39.609 18.1167L39.6821 18.1065C39.9988 17.6721 40.1571 17.3778 40.1368 17.2174L40.1997 17.2073C40.285 17.1971 40.3581 17.2925 40.4535 17.4813C40.3581 17.5138 40.0191 18.2852 39.4487 19.7751L39.5339 19.9131L39.607 19.903C40.3154 18.1167 40.76 17.122 40.9488 16.9434C41.8683 16.8582 43.476 16.6897 45.7596 16.4461L45.9078 16.3608C45.9179 16.4035 45.9402 16.4339 45.993 16.4238L46.1412 16.4136L46.2894 16.3284C46.2894 16.371 46.3219 16.4014 46.3746 16.3913L48.098 16.2431C48.5628 16.2005 48.7739 16.0624 48.7536 15.831C48.7536 15.7681 49.0175 15.693 49.5676 15.6199C49.6407 15.6199 49.726 15.6301 49.8011 15.6626C49.8011 15.6199 50.0751 15.5773 50.615 15.5245C50.6353 15.2383 50.7307 15.08 50.8891 15.0698L50.8789 14.9318C50.6983 14.9521 50.5196 14.9846 50.3512 15.0475C50.1177 15.0475 49.8863 15.015 49.663 14.9622C49.595 15.0037 49.52 15.0326 49.4418 15.0475L48.236 15.0901L48.0878 15.1632C48.0878 15.1206 48.0554 15.1104 48.0026 15.1104H47.9397L47.7813 15.1957C47.7813 15.1531 47.6535 15.1104 47.3997 15.08L47.2414 15.1754L46.945 15.1957V15.1226C48.4877 14.9541 49.2611 14.741 49.2388 14.4873C49.3443 14.4771 49.387 14.5299 49.3971 14.6253L49.8518 14.5096L49.8417 14.3715L46.131 14.4771C46.1412 14.5197 46.1107 14.5502 46.058 14.5624L45.6033 14.5197C45.5008 14.5241 45.4017 14.5572 45.3171 14.6151L45.1486 14.5624C44.7953 14.5822 44.4446 14.6352 44.1012 14.7207C43.7486 14.7021 43.3952 14.7089 43.0436 14.741L42.2093 14.8141L41.8277 14.7714C41.8074 14.5177 42.2824 13.312 43.2649 11.1461C43.5511 10.4173 43.8048 9.96265 44.0585 9.78199C44.1438 9.79214 44.2169 9.80229 44.292 9.84492L44.8948 9.64396L45.1912 9.68659C45.8025 9.61735 46.4027 9.4714 46.9775 9.25219C47.1054 9.23162 47.2365 9.24277 47.3591 9.28467L47.8138 9.17912L49.1556 9.06341C49.726 9.02079 50.3512 8.89493 51.0271 8.6818L51.017 8.54376C50.7632 8.56406 50.6353 8.52346 50.6252 8.41588C50.6049 8.23522 50.4242 8.16215 50.0751 8.18244L50.0548 8.04441L50.4364 7.93886L51.4087 7.8536L51.3884 7.71557C51.1875 7.71557 50.9865 7.71557 50.7856 7.70542L50.7754 7.55724L51.157 7.51462C51.2524 7.50447 51.2951 7.46184 51.2849 7.36643C50.7876 7.37658 50.5237 7.35628 50.5237 7.29336C47.0039 7.46184 45.2379 7.49432 45.2277 7.38876C45.1461 7.39781 45.0691 7.43103 45.0065 7.48417L44.9111 7.33599C45.8408 5.35888 46.3909 4.35409 46.5492 4.33379C46.5445 4.4651 46.5046 4.59273 46.4335 4.70323V4.76616L46.5918 4.75601C46.9613 3.86692 47.2678 3.41426 47.5337 3.39193C48.644 3.29653 47.3754 3.22345 49.7442 2.85198C49.8102 2.8857 49.8817 2.90703 49.9553 2.91491C51.2443 2.66701 52.5423 2.46929 53.8466 2.32218L53.8365 2.18415L52.9474 2.26941L52.9372 2.13137C53.0338 2.12357 53.1258 2.08678 53.2011 2.02582V2.0989C53.279 2.0873 53.3521 2.05426 53.4122 2.00349C53.5303 1.98731 53.6506 2.002 53.7614 2.04612C54.0049 1.98319 54.2485 1.93042 54.5023 1.89794L55.0524 1.84516C55.1904 1.75991 55.2533 1.68683 55.2432 1.61173V1.5488C55.0801 1.55918 54.9163 1.54826 54.756 1.51632C54.7459 1.44325 54.7885 1.38844 54.8839 1.36814L55.909 1.27273L56.384 1.14485C56.384 1.19763 56.4164 1.21793 56.4469 1.21793C56.5194 1.19948 56.5877 1.16707 56.6478 1.12252L56.7331 1.13267C56.6479 1.3135 56.5773 1.50084 56.522 1.69292L56.384 1.70307C56.38 1.6171 56.3549 1.53344 56.3109 1.45948H56.248C54.9894 4.94885 54.4292 6.56666 53.2762 9.24001C53.0651 9.92814 52.8845 10.3077 52.7363 10.393C52.7363 10.4661 52.789 10.5087 52.8743 10.4985C52.8959 10.8471 52.8109 11.194 52.6307 11.4932C52.1029 13.0359 51.7416 13.8722 51.563 14.0305L51.6787 14.7593C51.6889 14.8323 51.6462 14.875 51.563 14.8871L51.4351 14.8973C51.4148 14.6963 51.3397 14.6009 51.2139 14.6111H51.1509C50.9825 14.875 50.8546 15.1612 50.7815 15.5103L50.9094 15.5002C51.0677 15.3845 51.153 15.2566 51.1306 15.1084L51.3844 15.0881L51.5326 15.1409C51.4168 15.3215 51.3641 15.4677 51.3742 15.5753L51.4371 15.691L51.2788 16.0726V16.1355C51.4473 16.1355 51.6178 16.1781 51.7538 16.2735C51.8901 16.252 52.0203 16.2014 52.1354 16.1254C52.2735 16.1051 52.8114 16.1051 53.7431 16.1051L54.2079 15.9467C54.7783 15.9366 54.8737 15.9569 55.3609 15.9143L55.5619 15.894L55.6674 15.8209L55.6776 15.8838C56.1952 15.8412 56.2277 15.8737 56.6296 15.9163L56.6397 15.9792L56.3535 16.0117L56.3637 16.1274C56.4448 16.1244 56.5227 16.0944 56.5849 16.0421C56.658 16.032 56.7006 16.0746 56.7006 16.1578C56.5703 16.1696 56.442 16.1983 56.319 16.2431L56.1911 16.2005C55.9902 16.2532 56.0328 16.2735 55.8948 16.2857L55.704 16.2431C55.704 16.2756 55.6837 16.2959 55.6512 16.2959C55.6613 16.3811 55.704 16.4116 55.7791 16.4116L55.98 16.3913L57.0274 16.2959L57.4294 16.2106C57.4395 16.2431 57.4497 16.2634 57.4821 16.2634L57.6729 16.1903L58.0424 16.1578C58.3164 16.1375 58.3063 16.1152 58.9193 16.0198C58.9091 15.9772 58.9294 15.967 58.9518 15.9569L58.9619 16.0198C59.9444 15.8513 60.0093 15.8391 60.1677 15.7864L60.188 15.8067C60.4315 15.7539 60.2935 15.764 60.3564 15.7214C60.3666 15.764 60.3767 15.7843 60.3991 15.7843L60.5797 15.764L60.5594 15.6362L60.2103 15.626H60.125V15.6362C59.8814 15.6889 59.8713 15.6565 59.7231 15.6686L58.8462 15.7214L58.8361 15.6585L59.3334 15.5854L59.514 15.5753L59.6094 15.5022L59.6196 15.5651C60.3077 15.5123 60.5493 15.6808 63.7646 15.0049C63.9331 14.9846 63.9229 14.8364 64.0285 14.54C63.9704 14.5451 63.912 14.5339 63.86 14.5075C63.5961 14.603 63.4581 14.5603 62.9506 14.6456C62.908 14.6456 62.8654 14.603 62.8552 14.5299V14.4771L63.3424 14.4873C63.4378 14.4771 63.6063 14.467 63.8823 14.3188C63.8823 14.3614 63.7768 14.3817 63.8397 14.3817L63.8357 14.3979ZM40.1327 14.7796L39.9115 14.7999C39.9013 14.7044 40.017 14.3553 40.2708 13.7646L40.419 13.7545C40.4291 13.8925 40.3337 14.2295 40.1327 14.7796ZM40.4068 13.6794V13.6164C40.3966 13.5434 40.4494 13.4885 40.555 13.4581V13.521C40.5651 13.6164 40.5123 13.6692 40.4068 13.6794ZM43.4212 16.0056V16.0685L43.0395 16.101V16.0381L43.4212 16.0056ZM42.9665 15.963C42.9665 16.036 42.8609 16.1315 42.6072 16.2167L42.1423 16.1842L41.9941 16.1944L41.984 16.0563L42.9665 15.963ZM45.9991 1.96492L45.7778 1.98522V1.89997C45.7677 1.82689 45.8103 1.77208 45.9159 1.75179L45.989 1.74164L46.1473 1.80456C46.1473 1.89997 46.1047 1.95274 45.9991 1.96289V1.96492ZM49.4458 1.28897H49.5189L49.5291 1.42701L49.318 1.43716C49.318 1.36408 49.3606 1.30927 49.4458 1.28897ZM48.5791 1.59549L48.2401 1.55286L48.2299 1.48993C48.6846 1.4473 48.8328 1.40468 49.1068 1.3316C49.1068 1.38438 49.1596 1.39453 49.2449 1.39453L49.255 1.53256L49.117 1.54271C49.0235 1.55547 48.9282 1.54065 48.843 1.50008C48.7645 1.55375 48.6737 1.58658 48.5791 1.59549V1.59549ZM49.0135 2.84386L49.0033 2.78093L49.5636 2.72816V2.79108L49.0135 2.84386ZM49.6062 2.35669L49.596 2.28361L49.8701 2.25114V2.33639L49.6062 2.35669ZM49.6691 1.41483H49.596L49.659 1.26665L50.272 1.21387V1.28694C50.071 1.30724 49.8701 1.34987 49.6691 1.41483V1.41483ZM49.9756 2.73831L49.9655 2.60028L50.2395 2.57998C50.3248 2.56983 50.3776 2.61246 50.3776 2.70786L49.9756 2.73831ZM51.6036 0.51762L51.2646 0.613024L51.2017 0.623173C50.9938 0.635658 50.7852 0.628862 50.5785 0.602874C51.0231 0.582575 51.4554 0.539948 51.6036 0.51762V0.51762ZM51.2443 2.06033V2.12326L50.7693 2.16588L50.7592 2.10296L51.2443 2.06033ZM52.0157 2.42977C52.0157 2.37699 51.9203 2.33436 51.7294 2.31406L51.2545 2.45209L50.8952 2.46224C50.8099 2.40947 50.7673 2.36684 50.7571 2.33436L51.1794 2.36684L52.1415 2.20851L52.6287 2.22881V2.30188C52.4277 2.32218 52.2166 2.36481 52.0157 2.42977V2.42977ZM56.9219 1.16109L57.0274 1.17124C57.1939 1.00451 57.3911 0.87149 57.608 0.779473C57.4273 1.54068 57.1634 2.10093 56.794 2.47036L56.52 2.31203C56.6783 1.93042 56.8163 1.55083 56.9219 1.15906V1.16109ZM56.0957 2.59013L56.1586 2.57998C56.0734 2.74846 55.9902 2.84386 55.9151 2.85401L55.9049 2.6632C55.9475 2.6632 56.0105 2.6429 56.0957 2.59013ZM55.5578 3.8588C55.6958 3.34118 55.8115 3.04482 55.9272 2.96971L55.9374 3.03264C55.8745 3.50763 55.7689 3.76137 55.6207 3.7837L55.6532 4.09021C55.5375 4.24854 55.4847 4.37642 55.4847 4.47182L55.4218 4.48197L55.3792 4.05976C55.4522 4.04961 55.5172 3.98668 55.5598 3.8588H55.5578ZM55.3568 4.55505C55.3343 4.72767 55.2843 4.89557 55.2087 5.05237H55.1457L55.1356 4.87171C55.2208 4.6606 55.3041 4.55505 55.3568 4.55505V4.55505ZM51.4656 15.8249V15.7722L51.5934 15.762L51.6036 15.9427C51.5305 15.9528 51.4879 15.9102 51.4656 15.827V15.8249ZM57.0173 15.9731C57.0173 15.9305 56.997 15.9102 56.9544 15.9102L56.6377 15.9427V15.8797H56.658L57.4091 15.8168V15.8797C57.1979 15.8899 57.0599 15.9224 57.0173 15.9752V15.9731ZM56.6458 15.8148C56.6783 15.8249 56.656 15.8473 56.6458 15.8574C56.6357 15.8473 56.6133 15.8371 56.6458 15.8148ZM56.6884 14.948L56.2764 14.9805L56.2662 14.9176L56.6478 14.8851L56.9747 14.812C56.9747 14.8445 56.995 14.8547 57.0376 14.8547C57.4294 14.7917 57.3867 14.7694 57.5775 14.7491C57.6405 14.7491 57.6831 14.7917 57.6831 14.8648L56.6884 14.948ZM58.1378 14.8222C57.9043 14.8019 57.8942 14.7796 57.7257 14.8019V14.739L58.0952 14.7065V14.7694C58.0627 14.7694 58.2007 14.7796 58.1378 14.8222V14.8222ZM58.1581 14.7572V14.7044L58.359 14.6841L58.3692 14.7369L58.1581 14.7572ZM58.6128 14.7166L58.6026 14.6638C58.6565 14.6499 58.7069 14.625 58.7508 14.5908C58.8564 14.5806 58.9091 14.6436 58.9193 14.7288L58.6128 14.7166ZM59.1832 14.6415V14.5786L59.4268 14.5684V14.6212L59.1832 14.6415ZM59.5222 14.6212C59.5222 14.5481 59.5546 14.5055 59.6176 14.4933L59.6906 14.5989C59.6906 14.5664 59.7008 14.5461 59.7333 14.536L59.7962 14.6517L59.5222 14.6212ZM55.8948 16.1863L55.8846 16.0706H55.842L55.8521 16.1863H55.8948ZM64.3533 13.996C64.3857 13.9757 64.406 13.9432 64.3106 13.9331C64.268 13.9859 64.3634 13.996 64.268 13.996V14.0386L64.3309 14.0062L64.268 14.0488L64.1726 14.1868L64.3736 14.1138H64.3939L64.3837 13.9981L64.3533 13.996ZM64.7024 14.2721H64.6598L64.6699 14.4L64.9561 14.3675C64.9561 14.2944 64.7653 14.2721 64.7024 14.2721V14.2721ZM64.2579 14.061L64.268 14.0508L64.2579 14.061Z" fill="#132A3A"/>
</svg>
