<svg width="30" height="40" viewBox="0 0 30 40" fill="none" xmlns="http://www.w3.org/2000/svg">
<path d="M14.9817 39.899L2.77287 36.6943L0.052124 7.84113H29.9478L27.2243 36.6899L14.9817 39.899V39.899Z" fill="#264DE4"/>
<path d="M24.8926 34.8528L27.22 10.2002H15V37.446L24.8926 34.8528V34.8528Z" fill="#2965F1"/>
<path d="M6.28931 20.9015L6.6247 24.4402H15V20.9015H6.28931Z" fill="#EBEBEB"/>
<path d="M5.6153 13.7391L5.95549 17.2778H15V13.7391H5.6153V13.7391Z" fill="#EBEBEB"/>
<path d="M15 30.092L14.9836 30.0961L10.8155 29.032L10.549 26.2097H6.79193L7.31623 31.766L14.9828 33.7782L15 33.7738V30.092Z" fill="#EBEBEB"/>
<path d="M7.08795 0H11.6208V1.79235H8.98358V3.58471H11.621V5.37695H7.08795V0Z" fill="black"/>
<path d="M12.5275 0H17.0604V1.55856H14.4231V1.87025H17.0604V5.45496H12.5276V3.81829H15.1649V3.5066H12.5273V0H12.5275Z" fill="black"/>
<path d="M17.9671 0H22.5V1.55856H19.8627V1.87025H22.5V5.45496H17.9671V3.81829H20.6044V3.5066H17.9672V0H17.9671Z" fill="black"/>
<path d="M23.6867 20.9015L24.3623 13.7391H14.9871V17.2778H20.2607L19.9202 20.9015H14.9871V24.4402H19.5957L19.1612 29.0297L14.9869 30.095V33.7765L22.6596 31.766L22.7158 31.1681L23.5954 21.8518L23.6867 20.9015V20.9015Z" fill="white"/>
</svg>
