<svg width="60" height="53" viewBox="0 0 60 53" fill="none" xmlns="http://www.w3.org/2000/svg">
<rect width="35" height="35" fill="white"/>
<path d="M11.4542 12.8953C11.4542 13.5128 11.4943 14.0133 11.5641 14.3804C11.6527 14.7934 11.7594 15.1949 11.8833 15.5817C11.9332 15.7152 11.9531 15.8486 11.9531 15.9655C11.9531 16.1323 11.8933 16.2992 11.7636 16.4661L11.135 17.1668C11.0452 17.267 10.9554 17.317 10.8755 17.317C10.7758 17.317 10.676 17.2335 10.5762 17.0834C10.4417 16.8418 10.3215 16.5792 10.217 16.2992C10.1172 16.0157 10.0174 15.6984 9.90771 15.3148C9.12944 16.8497 8.15154 17.6174 6.97425 17.6174C6.13619 17.6174 5.46762 17.2168 4.97867 16.4161C4.48984 15.615 4.24042 14.5472 4.24042 13.2124C4.24042 11.7942 4.53974 10.643 5.1484 9.77532C5.75694 8.90768 6.56522 8.47386 7.59291 8.47386C7.93214 8.47386 8.28137 8.52385 8.6505 8.60731C9.01974 8.69077 9.39887 8.82422 9.79801 8.97441V7.7564C9.79801 6.4882 9.63828 5.60402 9.32895 5.08674C9.00974 4.56947 8.47088 4.31909 7.70261 4.31909C7.35338 4.31909 6.99426 4.38602 6.62502 4.5362C6.25589 4.68619 5.89665 4.86983 5.54742 5.10348C5.38781 5.2202 5.26811 5.28692 5.19819 5.32039C5.12839 5.35385 5.07848 5.37038 5.03858 5.37038C4.89886 5.37038 4.82906 5.20347 4.82906 4.8531V4.03546C4.82906 3.76855 4.84907 3.56837 4.89886 3.45165C4.94877 3.33473 5.03858 3.21801 5.1783 3.10128C5.52753 2.80092 5.94656 2.55054 6.43539 2.35036C6.92446 2.13345 7.44331 2.03346 7.99205 2.03346C9.17947 2.03346 10.0475 2.48382 10.6063 3.38492C11.155 4.28583 11.4345 5.65402 11.4345 7.48949V12.8953H11.4545H11.4542ZM7.40329 15.4315C7.73263 15.4315 8.07186 15.3315 8.43098 15.1312C8.79021 14.931 9.10955 14.5639 9.37886 14.0633C9.53859 13.7464 9.65829 13.3961 9.71809 12.9955C9.778 12.5952 9.8179 12.1111 9.8179 11.5439V10.8431C9.51532 10.72 9.20884 10.6253 8.89992 10.5595C8.58885 10.4934 8.27561 10.46 7.96204 10.4593C7.29347 10.4593 6.80464 10.6762 6.47541 11.1268C6.14607 11.5773 5.98646 12.2113 5.98646 13.0455C5.98646 13.8297 6.10617 14.4137 6.35559 14.8143C6.59512 15.2314 6.94435 15.4315 7.40329 15.4315ZM15.4154 17.2335C15.2358 17.2335 15.1161 17.1835 15.0363 17.0666C14.9565 16.9666 14.8865 16.733 14.8268 16.4161L12.4821 3.51837C12.422 3.18454 12.3921 2.96763 12.3921 2.85091C12.3921 2.58401 12.4719 2.43362 12.6317 2.43362H13.6094C13.7989 2.43362 13.9288 2.48382 13.9986 2.60054C14.0784 2.70073 14.1383 2.93437 14.1981 3.25127L15.8743 14.297L17.4309 3.25127C17.4808 2.91764 17.5407 2.70073 17.6204 2.60054C17.7003 2.50055 17.84 2.43382 18.0196 2.43382H18.8178C19.0073 2.43382 19.1371 2.48382 19.2168 2.60054C19.2967 2.70073 19.3665 2.93437 19.4064 3.25127L20.983 14.4304L22.709 3.25127C22.7688 2.91764 22.8387 2.70073 22.9085 2.60054C22.9883 2.50055 23.1181 2.43382 23.2977 2.43382H24.2256C24.3853 2.43382 24.4751 2.56727 24.4751 2.85091C24.4751 2.93437 24.4651 3.01783 24.4551 3.11782C24.4451 3.21801 24.4252 3.35146 24.3853 3.53511L21.9806 16.4326C21.9208 16.7665 21.851 16.9834 21.771 17.0834C21.6912 17.1835 21.5615 17.2503 21.392 17.2503H20.534C20.3443 17.2503 20.2146 17.2003 20.1347 17.0834C20.0549 16.9666 19.9851 16.7497 19.9452 16.4161L18.3985 5.65402L16.862 16.3992C16.8122 16.733 16.7523 16.9499 16.6725 17.0666C16.5927 17.1835 16.453 17.2335 16.2735 17.2335H15.4153H15.4154ZM28.2367 17.6841C27.7179 17.6841 27.199 17.5839 26.7002 17.3837C26.2012 17.1835 25.8122 16.9664 25.5528 16.7165C25.3931 16.5661 25.2833 16.3994 25.2435 16.2492C25.2046 16.1019 25.1842 15.9429 25.1836 15.7819V14.931C25.1836 14.5806 25.2634 14.4137 25.4131 14.4137C25.4742 14.4141 25.5349 14.431 25.5927 14.4639C25.6525 14.4974 25.7423 14.5639 25.8421 14.6306C26.1945 14.8898 26.5624 15.0856 26.9396 15.2146C27.3304 15.3473 27.7282 15.4143 28.127 15.4148C28.7556 15.4148 29.2445 15.2314 29.5838 14.8643C29.923 14.4972 30.1026 13.9633 30.1026 13.2792C30.1026 12.8121 30.0128 12.4282 29.8332 12.1111C29.6536 11.7942 29.3143 11.5106 28.8255 11.2435L27.3787 10.4928C26.6503 10.109 26.1116 9.54168 25.7822 8.79076C25.453 8.05657 25.2834 7.23912 25.2834 6.37148C25.2834 5.67075 25.3732 5.05328 25.5528 4.51927C25.7323 3.98546 25.9718 3.51837 26.2712 3.15128C26.5705 2.76745 26.9097 2.48382 27.3089 2.28364C27.7079 2.08346 28.1269 2 28.566 2C28.7855 2 29.015 2.01673 29.2345 2.06673C29.464 2.11672 29.6736 2.18345 29.8831 2.25018C30.0826 2.33363 30.2722 2.41709 30.4518 2.51728C30.6315 2.61727 30.7711 2.71746 30.8709 2.81745C31.0106 2.9511 31.1103 3.08455 31.1702 3.23474C31.2301 3.36819 31.26 3.55164 31.26 3.78528V4.56947C31.26 4.91983 31.1802 5.10348 31.0305 5.10348C30.9507 5.10348 30.821 5.03655 30.6515 4.9031C30.0826 4.46928 29.444 4.25237 28.7357 4.25237C28.1669 4.25237 27.7179 4.40255 27.4086 4.71965C27.0993 5.03655 26.9396 5.52057 26.9396 6.20456C26.9396 6.67185 27.0394 7.07221 27.2389 7.3893C27.4386 7.70621 27.8077 8.0233 28.3365 8.30694L29.7534 9.05786C30.4717 9.44169 30.9906 9.9755 31.2999 10.6595C31.6092 11.3437 31.759 12.1279 31.759 12.9955C31.759 13.713 31.669 14.3637 31.4994 14.931C31.3199 15.4983 31.0804 15.9988 30.7711 16.3994C30.4617 16.8165 30.0926 17.1168 29.6636 17.3337C29.2145 17.5674 28.7456 17.6841 28.2367 17.6841Z" fill="#252F3E"/>
<path d="M30.1225 25.793C26.8399 29.8476 22.0705 32 17.9697 32C12.2225 32 7.04418 28.4459 3.13293 22.5394C2.8236 22.0723 3.10292 21.4383 3.47204 21.8052C7.70262 25.9099 12.921 28.3959 18.319 28.3959C21.9608 28.3959 25.9618 27.1279 29.6437 24.525C30.1924 24.1077 30.6614 25.1257 30.1225 25.793V25.793ZM31.4895 23.1901C31.0705 22.2892 28.7157 22.7563 27.6481 22.9732C27.3288 23.0401 27.2788 22.5728 27.5683 22.2225C29.444 20.0199 32.5272 20.6541 32.8863 21.3881C33.2456 22.139 32.7865 27.2947 31.0305 29.7641C30.7612 30.148 30.5017 29.9478 30.6215 29.4472C31.0205 27.7952 31.9086 24.0745 31.4895 23.1901V23.1901Z" fill="#FF9900"/>
<rect x="25" y="18" width="35" height="35" fill="white"/>
<path d="M55 21C56.6402 21 57.973 22.1846 57.9996 23.6554L58 23.7V48.3C58 49.7761 56.6834 50.9757 55.0496 50.9997L55 51H31C29.3598 51 28.027 49.8151 28.0004 48.3447L28 48.3V23.7C28 22.2235 29.3166 21.0243 30.9504 21.0003L31 21H55ZM55 22.5H31C30.2765 22.5 29.6854 23.0218 29.6671 23.6691L29.6666 23.7V48.3C29.6666 48.9512 30.2465 49.4831 30.9657 49.4996L31 49.5H55C55.7239 49.5 56.3146 48.9783 56.3329 48.331L56.3334 48.3V23.7C56.3334 23.0385 55.7355 22.5 55 22.5ZM35.5 40.5001L39.25 43.5001L35.5 46.5002V40.5001ZM38.8333 25.5V34.0167C40.4975 33.5292 42.8237 32.9999 45.0834 32.9999C47.1437 32.9999 48.377 33.729 49.0487 34.3407C50.4678 35.6327 50.5015 37.2748 50.4996 37.4939V37.5L50.5 46.5001H47.1667V37.5413C47.1503 36.8411 46.7753 36 45.0834 36C41.728 36 37.9684 37.5037 37.8569 37.5486L37.8545 37.5495L35.5 38.5095V25.4999L38.8333 25.5ZM50.5 25.5C50.275 27.204 49.5074 28.8375 48 30.375H44.6666C45.9767 28.8281 46.7992 27.2003 47.1667 25.5H50.5Z" fill="#430098"/>
</svg>
