<svg width="23" height="29" viewBox="0 0 23 29" fill="none" xmlns="http://www.w3.org/2000/svg">
<path d="M11.0934 28.2948L11.0863 28.2865L11.0788 28.2785L0.518745 17.0059C0.503262 16.9886 0.500605 16.9785 0.500339 16.9775L0.500336 16.9775C0.500325 16.9774 0.500313 16.9774 0.500301 16.9774C0.500046 16.9764 0.499565 16.9746 0.50087 16.9694C0.503301 16.9596 0.522433 16.9069 0.617339 16.852C0.718625 16.8059 0.85813 16.785 1.0038 16.8043C1.15114 16.8238 1.26025 16.8782 1.31992 16.9327L11.128 27.3834L11.4926 27.7719L11.8571 27.3834L21.6751 16.9222L21.6751 16.9222L21.6794 16.9175C21.7188 16.8744 21.8139 16.8158 21.9624 16.7942C22.106 16.7732 22.2543 16.7945 22.3717 16.8537L22.3717 16.8538L22.3785 16.8571C22.4748 16.9039 22.4968 16.9533 22.4996 16.9612C22.499 16.9629 22.4977 16.9658 22.4953 16.9699C22.4916 16.9764 22.4844 16.9869 22.4714 17.0005L22.4691 17.0031L11.9161 28.268C11.827 28.3502 11.6629 28.4164 11.4587 28.4164C11.2529 28.4164 11.1408 28.3501 11.0934 28.2948Z" fill="white" stroke="#DA7F2A"/>
<path d="M11.4587 26.7633C11.2944 26.7633 11.1339 26.7135 11.0275 26.6463C10.974 26.6125 10.9516 26.5874 10.9431 26.5753V0.688039C10.9516 0.675929 10.974 0.650801 11.0275 0.617037C11.1339 0.549791 11.2944 0.5 11.4587 0.5C11.623 0.5 11.7835 0.549791 11.89 0.617037C11.9434 0.650801 11.9659 0.675929 11.9744 0.688039V26.5753C11.9659 26.5874 11.9434 26.6125 11.89 26.6463C11.7835 26.7135 11.623 26.7633 11.4587 26.7633ZM10.9385 26.5672C10.9385 26.5672 10.939 26.568 10.9396 26.5697C10.9387 26.5681 10.9384 26.5673 10.9385 26.5672ZM10.9385 0.696093C10.9384 0.696073 10.9387 0.695219 10.9396 0.693588C10.939 0.695296 10.9385 0.696112 10.9385 0.696093ZM11.979 0.696093C11.9789 0.696112 11.9784 0.695297 11.9779 0.693588C11.9787 0.695219 11.979 0.696073 11.979 0.696093ZM11.979 26.5672C11.979 26.5673 11.9787 26.5681 11.9779 26.5697C11.9784 26.568 11.9789 26.5672 11.979 26.5672Z" fill="white" stroke="#DA7F2A"/>
</svg>
