<svg width="160" height="157" viewBox="0 0 160 157" fill="none" xmlns="http://www.w3.org/2000/svg">
<path fill-rule="evenodd" clip-rule="evenodd" d="M80 0C35.8 0 0 35.7994 0 79.9986C0 115.398 22.9 145.297 54.7 155.897C58.7 156.597 60.2 154.197 60.2 152.097C60.2 150.197 60.1 143.897 60.1 137.198C40 140.897 34.8 132.298 33.2 127.798C32.3 125.498 28.4 118.398 25 116.498C22.2 114.998 18.2 111.298 24.9 111.198C31.2 111.098 35.7 116.998 37.2 119.398C44.4 131.498 55.9 128.098 60.5 125.998C61.2 120.798 63.3 117.298 65.6 115.298C47.8 113.298 29.2 106.398 29.2 75.7986C29.2 67.0988 32.3 59.8989 37.4 54.299C36.6 52.2991 33.8 44.0992 38.2 33.0994C38.2 33.0994 44.9 30.9994 60.2 41.2993C66.6 39.4993 73.4 38.5993 80.2 38.5993C87 38.5993 93.8 39.4993 100.2 41.2993C115.5 30.8994 122.2 33.0994 122.2 33.0994C126.6 44.0992 123.8 52.2991 123 54.299C128.1 59.8989 131.2 66.9988 131.2 75.7986C131.2 106.498 112.5 113.298 94.7 115.298C97.6 117.798 100.1 122.598 100.1 130.098C100.1 140.797 100 149.397 100 152.097C100 154.197 101.5 156.697 105.5 155.897C121.381 150.536 135.182 140.329 144.958 126.714C154.735 113.099 159.996 96.7603 160 79.9986C160 35.7994 124.2 0 80 0Z" fill="black"/>
</svg>
