<svg width="30" height="30" viewBox="0 0 30 30" fill="none" xmlns="http://www.w3.org/2000/svg">
<path d="M27 0C28.6402 0 29.973 1.18232 29.9996 2.65021L30 2.69474V27.2467C30 28.72 28.6834 29.9173 27.0496 29.9412L27 29.9415H3C1.35984 29.9415 0.0269531 28.7588 0.000351563 27.2914L0 27.2467V2.69474C0 1.22116 1.3166 0.0242105 2.95043 0.000315789L3 0H27ZM27 1.49705H3C2.27648 1.49705 1.68539 2.01789 1.66711 2.66389L1.66664 2.69474V27.2467C1.66664 27.8966 2.24648 28.4276 2.96566 28.444L3 28.4444H27C27.7239 28.4444 28.3146 27.9237 28.3329 27.2777L28.3334 27.2467V2.69474C28.3334 2.03453 27.7355 1.49705 27 1.49705V1.49705ZM7.5 19.4621L11.25 22.4562L7.5 25.4504V19.462V19.4621ZM10.8333 4.49126V12.9913C12.4975 12.5047 14.8238 11.9765 17.0834 11.9765C19.1438 11.9765 20.377 12.7042 21.0487 13.3146C22.4678 14.6041 22.5015 16.2431 22.4996 16.4617V16.4678L22.5 25.4503H19.1667V16.5091C19.1503 15.8102 18.7753 14.9707 17.0834 14.9707C13.728 14.9707 9.96844 16.4715 9.85687 16.5163L9.85453 16.5173L7.5 17.4754V4.49116H10.8333V4.49126ZM22.5 4.49126C22.275 6.19189 21.5074 7.82221 20 9.35674H16.6666C17.9767 7.81284 18.7992 6.18821 19.1667 4.49126H22.5Z" fill="#430098"/>
</svg>
