<svg width="25" height="30" viewBox="0 0 25 30" fill="none" xmlns="http://www.w3.org/2000/svg">
<path d="M24.9565 5.88083L22.6869 27.5174L12.4848 29.9242L2.31074 27.5207L0.043457 5.88083H24.9565Z" fill="#E44D26"/>
<path d="M12.5 28.0845L20.7438 26.1396L22.6833 7.65015H12.5V28.0845Z" fill="#F16529"/>
<path d="M8.08788 12.9583H12.5V10.3043H4.67938L4.75399 11.0163L5.52059 18.3302H12.5V15.6761H8.37294L8.08788 12.9583V12.9583Z" fill="#EBEBEB"/>
<path d="M8.79083 19.6573H5.65997L6.09689 23.8245L12.4857 25.3337L12.5 25.3303V22.569L12.4863 22.5721L9.01291 21.774L8.79083 19.6573V19.6573Z" fill="#EBEBEB"/>
<path d="M2.36133 0H3.94629V1.33255H5.39619V0H6.98125V4.03529H5.39629V2.68404H3.94639V4.03529H2.36143V0H2.36133Z" fill="black"/>
<path d="M9.06547 1.3382H7.67035V0H12.0467V1.3382H10.6507V4.03529H9.06576V1.3382H9.06566H9.06547Z" fill="black"/>
<path d="M12.7412 0H14.3938L15.4104 1.41789L16.4261 0H18.0794V4.03529H16.5009V2.03518L15.4104 3.46994H15.3831L14.292 2.03518V4.03529H12.7412V0Z" fill="black"/>
<path d="M18.8681 0H20.4536V2.70149H22.6825V4.03529H18.868V0H18.8681Z" fill="black"/>
<path d="M12.4892 18.3302H16.3298L15.9676 21.7723L12.4891 22.5712V25.3324L18.883 23.8245L18.9299 23.3761L19.6629 16.3888L19.7389 15.6761H12.4892V18.3302Z" fill="white"/>
<path d="M12.4893 12.9518V12.9583H20.0228L20.0853 12.3618L20.2274 11.0163L20.302 10.3043H12.4893V12.9519V12.9518Z" fill="white"/>
</svg>
