<svg width="160" height="160" viewBox="0 0 160 160" fill="none" xmlns="http://www.w3.org/2000/svg">
<path d="M80 0C58.2523 0 55.5419 0.105013 47.0309 0.465058C38.4848 0.885111 32.7041 2.21028 27.6035 4.19052C22.2651 6.20588 17.4305 9.36125 13.4367 13.4367C9.34988 17.4212 6.19276 22.2584 4.19052 27.6035C2.21028 32.7041 0.885111 38.4848 0.465058 47.0309C0.08001 55.5469 0 58.2523 0 80C0 101.748 0.105013 104.458 0.465058 112.969C0.885111 121.49 2.21028 127.296 4.19052 132.397C6.20588 137.735 9.36125 142.57 13.4367 146.563C17.4212 150.65 22.2584 153.807 27.6035 155.809C32.7041 157.765 38.5098 159.115 47.0309 159.535C55.5469 159.92 58.2523 160 80 160C101.748 160 104.458 159.895 112.969 159.535C121.49 159.115 127.296 157.76 132.397 155.809C137.735 153.794 142.57 150.639 146.563 146.563C150.655 142.583 153.813 137.745 155.809 132.397C157.765 127.296 159.115 121.49 159.535 112.969C159.92 104.453 160 101.748 160 80C160 58.2523 159.895 55.5419 159.535 47.0309C159.115 38.5098 157.76 32.6741 155.809 27.6035C153.794 22.2651 150.639 17.4305 146.563 13.4367C142.583 9.34462 137.745 6.18667 132.397 4.19052C127.296 2.21028 121.49 0.885111 112.969 0.465058C104.453 0.08001 101.748 0 80 0ZM80 14.4018C101.358 14.4018 103.908 14.5068 112.349 14.8669C120.135 15.2319 124.376 16.5321 127.191 17.6322C130.671 18.917 133.822 20.9619 136.412 23.618C139.064 26.1974 141.101 29.3404 142.373 32.8141C143.473 35.6295 144.773 39.87 145.138 47.656C145.498 56.097 145.603 58.6523 145.603 80.005C145.603 101.358 145.498 103.913 145.108 112.354C144.688 120.14 143.388 124.381 142.293 127.196C140.778 130.951 139.087 133.577 136.297 136.417C133.698 139.056 130.55 141.092 127.076 142.378C124.296 143.478 119.995 144.778 112.179 145.143C103.693 145.503 101.193 145.608 79.78 145.608C58.3673 145.608 55.872 145.503 47.3759 145.113C39.5899 144.693 35.2944 143.393 32.4791 142.298C28.6786 140.783 26.0733 139.092 23.2829 136.302C20.4676 133.487 18.6773 130.806 17.2972 127.081C16.177 124.301 14.8969 120 14.4818 112.184C14.1968 103.798 14.0618 101.198 14.0618 79.885C14.0618 58.5823 14.1968 55.977 14.4818 47.4859C14.8969 39.67 16.177 35.3794 17.2972 32.5891C18.6773 28.7836 20.4726 26.1833 23.2829 23.3679C26.0683 20.5826 28.6786 18.7823 32.4791 17.3722C35.2944 16.277 39.4849 14.9769 47.3009 14.5868C55.787 14.2818 58.2873 14.1718 79.67 14.1718L80 14.4018ZM80 38.9399C74.606 38.9379 69.2646 39.9989 64.2808 42.0621C59.2971 44.1254 54.7687 47.1505 50.9546 50.9646C47.1405 54.7787 44.1154 59.3071 42.0521 64.2908C39.9889 69.2746 38.9279 74.616 38.9299 80.01C38.9279 85.404 39.9889 90.7454 42.0521 95.7292C44.1154 100.713 47.1405 105.241 50.9546 109.055C54.7687 112.869 59.2971 115.895 64.2808 117.958C69.2646 120.021 74.606 121.082 80 121.08C85.394 121.082 90.7354 120.021 95.7192 117.958C100.703 115.895 105.231 112.869 109.045 109.055C112.859 105.241 115.885 100.713 117.948 95.7292C120.011 90.7454 121.072 85.404 121.07 80.01C121.072 74.616 120.011 69.2746 117.948 64.2908C115.885 59.3071 112.859 54.7787 109.045 50.9646C105.231 47.1505 100.703 44.1254 95.7192 42.0621C90.7354 39.9989 85.394 38.9379 80 38.9399V38.9399ZM80 106.678C65.2582 106.678 53.3317 94.7518 53.3317 80.01C53.3317 65.2682 65.2582 53.3417 80 53.3417C94.7418 53.3417 106.668 65.2682 106.668 80.01C106.668 94.7518 94.7418 106.678 80 106.678ZM132.327 37.2997C132.324 39.8483 131.31 42.2917 129.506 44.0929C127.703 45.8941 125.259 46.9059 122.71 46.9059C121.45 46.9059 120.202 46.6577 119.038 46.1754C117.874 45.6931 116.816 44.9863 115.925 44.0952C115.034 43.2041 114.327 42.1462 113.845 40.982C113.362 39.8177 113.114 38.5699 113.114 37.3097C113.114 36.0495 113.362 34.8016 113.845 33.6374C114.327 32.4731 115.034 31.4152 115.925 30.5241C116.816 29.633 117.874 28.9262 119.038 28.4439C120.202 27.9617 121.45 27.7135 122.71 27.7135C127.996 27.7135 132.327 32.014 132.327 37.2997V37.2997Z" fill="#E7E7E7"/>
</svg>
