<svg width="30" height="30" viewBox="0 0 30 30" fill="none" xmlns="http://www.w3.org/2000/svg">
<path d="M27.9868 2.24185C27.9761 2.19003 27.9508 2.14233 27.914 2.10435C27.8771 2.06637 27.8302 2.03967 27.7788 2.0274C24.3469 1.18834 16.4174 4.17837 12.1213 8.47271C11.3551 9.23276 10.6565 10.0581 10.0336 10.9395C8.70883 10.8223 7.38403 10.9202 6.25493 11.4124C3.06918 12.8145 2.14165 16.4731 1.88325 18.0469C1.86859 18.1331 1.87412 18.2214 1.8994 18.3051C1.92468 18.3887 1.96902 18.4654 2.02893 18.529C2.08884 18.5926 2.1627 18.6414 2.24468 18.6716C2.32667 18.7019 2.41455 18.7127 2.50141 18.7032L7.61723 18.1389C7.62088 18.5246 7.64416 18.9099 7.68696 19.2932C7.7127 19.5594 7.83087 19.8082 8.02094 19.9963L10.002 21.9727C10.1903 22.1625 10.439 22.2807 10.7051 22.3067C11.0863 22.3493 11.4694 22.3726 11.853 22.3764L11.2916 27.4858C11.2823 27.5726 11.2932 27.6605 11.3234 27.7424C11.3537 27.8243 11.4025 27.8981 11.4661 27.958C11.5297 28.0179 11.6063 28.0622 11.6899 28.0876C11.7735 28.1129 11.8618 28.1185 11.9479 28.104C13.5188 27.852 17.1838 26.9245 18.5778 23.7387C19.07 22.6096 19.1707 21.2913 19.0571 19.9729C19.9406 19.35 20.7681 18.6512 21.5303 17.8846C25.8399 13.5967 28.8129 5.84419 27.9868 2.24185ZM17.2307 12.7694C16.8372 12.3761 16.5691 11.875 16.4605 11.3294C16.3518 10.7837 16.4074 10.2182 16.6202 9.70413C16.833 9.1901 17.1935 8.75074 17.6561 8.44162C18.1186 8.1325 18.6625 7.9675 19.2188 7.9675C19.7751 7.9675 20.319 8.1325 20.7815 8.44162C21.2441 8.75074 21.6046 9.1901 21.8174 9.70413C22.0302 10.2182 22.0858 10.7837 21.9771 11.3294C21.8684 11.875 21.6004 12.3761 21.2069 12.7694C20.9459 13.0307 20.636 13.238 20.2949 13.3795C19.9538 13.5209 19.5881 13.5937 19.2188 13.5937C18.8495 13.5937 18.4838 13.5209 18.1427 13.3795C17.8016 13.238 17.4917 13.0307 17.2307 12.7694Z" fill="white"/>
<path d="M9.86719 23.4041C9.54609 23.7258 9.03106 23.8512 8.41113 23.9584C7.01836 24.1957 5.78848 22.9922 6.03867 21.5842C6.13418 21.0504 6.4166 20.3021 6.59238 20.1264C6.6308 20.0887 6.65638 20.0399 6.66547 19.9868C6.67457 19.9338 6.66672 19.8792 6.64304 19.8309C6.61936 19.7826 6.58106 19.7429 6.53358 19.7176C6.48609 19.6923 6.43184 19.6826 6.37852 19.6898C5.59966 19.7851 4.87508 20.1383 4.32012 20.693C2.94258 22.0717 2.8125 27.1875 2.8125 27.1875C2.8125 27.1875 7.93125 27.0574 9.30879 25.6787C9.86523 25.1242 10.2188 24.3985 10.3125 23.6186C10.3342 23.3736 10.0359 23.2277 9.86719 23.4041V23.4041Z" fill="white"/>
</svg>
