<svg width="30" height="30" viewBox="0 0 30 30" fill="none" xmlns="http://www.w3.org/2000/svg">
<path d="M0 0H30V30H0V0Z" fill="#F7DF1E"/>
<path d="M7.88806 25.0702L10.1838 23.6808C10.6267 24.4661 11.0296 25.1305 11.9961 25.1305C12.9224 25.1305 13.5066 24.7682 13.5066 23.3587V13.7729H16.3258V23.3985C16.3258 26.3185 14.6142 27.6476 12.1169 27.6476C9.86161 27.6476 8.55251 26.4796 7.88794 25.0699" fill="black"/>
<path d="M17.8573 24.7681L20.1528 23.439C20.7571 24.4259 21.5425 25.1508 22.9319 25.1508C24.1001 25.1508 24.845 24.5667 24.845 23.7612C24.845 22.7946 24.0797 22.4522 22.7909 21.8885L22.0862 21.5862C20.0522 20.7205 18.703 19.633 18.703 17.3373C18.703 15.2228 20.314 13.6117 22.8313 13.6117C24.6236 13.6117 25.9124 14.2361 26.8387 15.8672L24.6435 17.277C24.1601 16.4111 23.6367 16.0688 22.8312 16.0688C22.0055 16.0688 21.4819 16.5924 21.4819 17.277C21.4819 18.1227 22.0055 18.4652 23.2137 18.9888L23.9185 19.2908C26.3149 20.318 27.6641 21.3651 27.6641 23.721C27.6641 26.2586 25.6705 27.6479 22.9922 27.6479C20.3744 27.6479 18.6828 26.3994 17.8572 24.7682" fill="black"/>
</svg>
