<svg width="30" height="30" viewBox="0 0 30 30" fill="none" xmlns="http://www.w3.org/2000/svg">
<path d="M1.91907 7.34344C-0.736867 11.1572 -0.404992 16.1128 1.62095 20.1609C1.6697 20.2631 1.71845 20.3559 1.7672 20.4488C1.79626 20.5125 1.83095 20.5753 1.8647 20.6344C1.88158 20.67 1.90133 20.7042 1.92376 20.7366C1.95751 20.805 1.9922 20.8631 2.02595 20.9269L2.22095 21.2588C2.2547 21.3225 2.29407 21.3806 2.33345 21.4397C2.40188 21.5569 2.48438 21.6741 2.55282 21.7913C2.58657 21.84 2.61657 21.8888 2.65032 21.9375C2.7722 22.1278 2.90438 22.3134 3.04126 22.4944C3.13876 22.6266 3.23626 22.7578 3.33938 22.89C3.37313 22.9341 3.41251 22.9828 3.4472 23.0316L3.72563 23.3681C3.75938 23.4075 3.78938 23.4516 3.82782 23.49C3.9497 23.6363 4.08188 23.7834 4.20845 23.925C4.20845 23.9297 4.21313 23.9297 4.21313 23.9344C4.37438 24.135 4.5497 24.3197 4.74563 24.4866C4.84782 24.5888 4.94626 24.6919 5.05313 24.7894L5.1797 24.9113C5.31657 25.0434 5.45345 25.17 5.5997 25.2966C5.60438 25.2966 5.60438 25.2966 5.60907 25.3013L5.67751 25.3603C5.80407 25.4728 5.93626 25.5853 6.06845 25.6875L6.22501 25.8197C6.3272 25.9031 6.4397 25.9856 6.54751 26.0691L6.71813 26.2013C6.83532 26.2894 6.9572 26.3719 7.07438 26.46C7.11845 26.4891 7.16251 26.5238 7.21126 26.5481L7.24501 26.5772L7.59657 26.8116L7.74751 26.9091C7.92845 27.0263 8.11407 27.1388 8.29407 27.2513C8.34751 27.2756 8.39626 27.3047 8.44501 27.3347C8.58188 27.4125 8.72345 27.4913 8.86032 27.5644C8.93345 27.6084 9.01126 27.6422 9.09001 27.6816C9.18282 27.735 9.28032 27.7838 9.37782 27.8381C9.40364 27.8437 9.42835 27.8535 9.45095 27.8672L9.56813 27.9263C9.71907 27.9994 9.87563 28.0725 10.0369 28.1409C10.0659 28.1559 10.1006 28.1653 10.1344 28.185C10.3153 28.2628 10.4906 28.3416 10.6809 28.4147C10.7203 28.4241 10.7644 28.4484 10.8075 28.4634C10.9781 28.5272 11.1544 28.59 11.325 28.6538L11.3841 28.6734C11.5791 28.7419 11.7647 28.8 11.9606 28.8638C12.0047 28.8731 12.0534 28.8928 12.0975 28.9031C12.2981 28.9669 12.4884 29.0353 12.6881 29.0738C25.515 31.4128 29.2406 21.3638 29.2406 21.3638C26.1103 25.4409 20.5538 26.5153 15.2906 25.3191C15.0956 25.275 14.9053 25.2113 14.7047 25.1531C14.4703 25.0847 14.2313 25.0069 13.9969 24.9281L13.9191 24.8991C13.7531 24.84 13.5872 24.7772 13.4213 24.7134C13.3772 24.6938 13.3284 24.6797 13.2844 24.66C13.1024 24.5882 12.9218 24.5132 12.7425 24.435C12.7031 24.42 12.6741 24.4013 12.6347 24.3863C12.4838 24.3178 12.3319 24.2494 12.1809 24.1763C12.1359 24.1553 12.0918 24.1325 12.0488 24.1078C11.9316 24.0544 11.8144 23.9906 11.6972 23.9316C11.6194 23.8922 11.5406 23.8538 11.4675 23.8144L11.0428 23.58C10.9973 23.5495 10.95 23.5216 10.9013 23.4966C10.7156 23.3841 10.5347 23.2716 10.3547 23.16C10.3059 23.1309 10.2572 23.0963 10.2084 23.0625C10.0764 22.979 9.94601 22.8927 9.81751 22.8038C9.77406 22.7746 9.73183 22.7436 9.69095 22.7109C9.56423 22.6274 9.44041 22.5395 9.3197 22.4475C9.26626 22.4034 9.21188 22.3641 9.15376 22.3209C9.04595 22.2375 8.93438 22.155 8.82657 22.0622L8.67563 21.945C8.53407 21.8325 8.3972 21.7153 8.26032 21.5934C8.24532 21.5784 8.23126 21.5691 8.21157 21.5541L7.7822 21.1631L7.65563 21.0459C7.55345 20.9381 7.45032 20.8406 7.34345 20.7384L7.22157 20.6119C7.08934 20.4805 6.96085 20.3455 6.83626 20.2069L6.81657 20.1872C6.68438 20.0456 6.55782 19.8938 6.42563 19.7475C6.39188 19.7081 6.36188 19.6641 6.32813 19.6256L6.04501 19.2788C5.89935 19.0947 5.75776 18.9075 5.62032 18.7172C2.70001 14.7328 1.64532 9.23438 3.9797 4.72313L1.91907 7.34344ZM10.1513 4.13063C8.22751 6.89438 8.33438 10.5853 9.83345 13.5056C10.0828 13.9941 10.3659 14.4675 10.6781 14.9213C10.9659 15.3319 11.2838 15.8194 11.6691 16.1522C11.8013 16.3031 11.9475 16.4503 12.0984 16.6013L12.2109 16.7138C12.3525 16.8506 12.4988 16.9875 12.6506 17.1188L12.6703 17.1384C12.8363 17.2847 13.0069 17.4263 13.1878 17.5631C13.2272 17.5922 13.2656 17.6269 13.305 17.6559C13.4813 17.7881 13.6566 17.9194 13.8375 18.0469L13.8572 18.0619C13.935 18.1153 14.0184 18.1697 14.1066 18.2231C14.1403 18.2475 14.1797 18.2766 14.2191 18.2963C14.3513 18.3844 14.4825 18.4622 14.6147 18.5456C14.6391 18.555 14.6541 18.5653 14.6738 18.5747C14.7863 18.6431 14.9128 18.7069 15.03 18.7697C15.0694 18.7941 15.1078 18.8138 15.1519 18.8381C15.2353 18.8775 15.3178 18.9216 15.3956 18.9647L15.4397 18.9797C15.6056 19.0631 15.7763 19.1409 15.9478 19.2188C16.1237 19.2958 16.3012 19.369 16.4803 19.4381C16.5441 19.4578 16.6022 19.4822 16.6613 19.5019C16.7878 19.5506 16.9247 19.5947 17.0522 19.6388L17.2228 19.6922C17.4084 19.7513 17.5941 19.8244 17.7844 19.8534C27.6872 21.4941 29.9766 13.8722 29.9766 13.8722C27.9113 16.8413 23.9222 18.2569 19.6641 17.1534C19.4738 17.1047 19.2881 17.0456 19.1025 16.9875C19.0434 16.9725 18.99 16.9538 18.9319 16.9388C18.8053 16.89 18.6684 16.8459 18.5466 16.8019L18.3656 16.7334C18.2241 16.6744 18.0825 16.6256 17.9456 16.5628C17.9016 16.5431 17.8622 16.5338 17.8331 16.5141C17.6577 16.4374 17.4836 16.3577 17.3109 16.275L17.0522 16.1381L16.9059 16.065C16.7931 16.0071 16.6824 15.9452 16.5741 15.8794C16.5476 15.8657 16.5216 15.851 16.4963 15.8353C16.3641 15.7519 16.2281 15.6741 16.1006 15.5859C16.0582 15.563 16.0175 15.537 15.9788 15.5081L15.72 15.3422C15.5391 15.2156 15.3638 15.0788 15.1828 14.9513C15.1464 14.9158 15.1072 14.8832 15.0656 14.8538C13.1953 13.3791 11.7206 11.3672 11.0175 9.09188C10.2806 6.72375 10.4466 4.06782 11.7159 1.91438L10.1513 4.13063ZM17.0756 1.72875C15.9431 3.39375 15.8306 5.46375 16.6116 7.30032C17.4413 9.24844 19.1409 10.7822 21.1181 11.5041C21.2016 11.5378 21.2794 11.5631 21.3619 11.5922L21.4697 11.6259C21.5869 11.6597 21.7041 11.7038 21.8213 11.7338C27.2897 12.7884 28.7691 8.92125 29.1703 8.355C27.8663 10.2253 25.6838 10.6744 23.0034 10.0247C22.5164 9.89569 22.0422 9.72214 21.5869 9.50625C21.1128 9.27376 20.6615 8.99756 20.2388 8.68125C17.8359 6.85969 16.3519 3.39282 17.9194 0.566254L17.0756 1.72875Z" fill="#59A5DA"/>
</svg>
