<svg width="160" height="160" viewBox="0 0 160 160" fill="none" xmlns="http://www.w3.org/2000/svg">
<path d="M80 0C35.8167 0 0 35.8167 0 80C0 124.183 35.8167 160 80 160C124.183 160 160 124.183 160 80C160 35.8167 124.183 0 80 0ZM60.4167 113.158H44.2167V61.025H60.4167V113.158ZM52.2167 54.625C47.1 54.625 43.7917 51 43.7917 46.5167C43.7917 41.9417 47.2 38.425 52.425 38.425C57.65 38.425 60.85 41.9417 60.95 46.5167C60.95 51 57.65 54.625 52.2167 54.625ZM119.583 113.158H103.383V84.2667C103.383 77.5417 101.033 72.975 95.175 72.975C90.7 72.975 88.0417 76.0667 86.8667 79.0417C86.4333 80.1 86.325 81.6 86.325 83.0917V113.15H70.1167V77.65C70.1167 71.1417 69.9083 65.7 69.6917 61.0167H83.7667L84.5083 68.2583H84.8333C86.9667 64.8583 92.1917 59.8417 100.933 59.8417C111.592 59.8417 119.583 66.9833 119.583 82.3333V113.158V113.158Z" fill="#EDEAEA"/>
</svg>
