<svg width="30" height="30" viewBox="0 0 30 30" fill="none" xmlns="http://www.w3.org/2000/svg">
<path d="M27.615 23.1205C25.9839 23.0792 24.7198 23.2449 23.6596 23.7005C23.3538 23.8246 22.8644 23.8248 22.8236 24.2183C22.9867 24.384 23.0071 24.6533 23.1499 24.8811C23.3948 25.2952 23.8226 25.8545 24.2101 26.1446C24.6382 26.4759 25.0665 26.8073 25.5148 27.0973C26.3101 27.5944 27.2073 27.8843 27.982 28.3814C28.4307 28.6712 28.8789 29.0443 29.3275 29.3549C29.5518 29.5203 29.6944 29.7899 29.98 29.8933V29.8313C29.8372 29.6448 29.7964 29.3756 29.6538 29.1684C29.4501 28.9613 29.246 28.7749 29.0421 28.5677C28.4509 27.7601 27.7169 27.0558 26.9218 26.4759C26.2694 26.0202 24.8421 25.3989 24.5771 24.6325C24.5771 24.6325 24.5566 24.6119 24.5363 24.5912C24.9848 24.5498 25.5148 24.384 25.9432 24.2598C26.6363 24.0732 27.2683 24.1148 27.982 23.9283C28.3081 23.8455 28.6344 23.7419 28.9605 23.6383V23.452C28.5937 23.0792 28.3286 22.5821 27.9412 22.23C26.9014 21.3184 25.7595 20.428 24.5771 19.6824C23.945 19.2681 23.1294 18.9988 22.4566 18.6468C22.2121 18.5224 21.8042 18.4603 21.6616 18.2532C21.2944 17.7976 21.0905 17.197 20.8256 16.6584C20.2345 15.5192 19.6634 14.2558 19.1537 13.0546C18.7869 12.2468 18.5626 11.4389 18.114 10.6934C16.014 7.17237 13.7305 5.03904 10.2237 2.94701C9.46929 2.51213 8.57222 2.3257 7.61398 2.09797C7.10444 2.07713 6.59456 2.03582 6.08491 2.01499C5.75866 1.86999 5.43241 1.47654 5.14694 1.29011C3.98503 0.544395 0.987726 -1.07096 0.131437 1.06237C-0.41911 2.40856 0.947062 3.73404 1.41581 4.41773C1.76269 4.89404 2.21105 5.43249 2.45573 5.97106C2.59847 6.32297 2.63913 6.69606 2.78187 7.0688C3.10823 7.97987 3.41386 8.99499 3.84218 9.84428C4.06648 10.2792 4.31105 10.7348 4.59651 11.1283C4.75964 11.3561 5.04499 11.4598 5.10628 11.8325C4.82093 12.2468 4.80042 12.8682 4.63718 13.3859C3.90323 15.7264 4.18882 18.6261 5.22851 20.3451C5.55464 20.8627 6.32948 22.0023 7.36929 21.5671C8.28687 21.1944 8.08296 20.0138 8.3478 18.9782C8.40921 18.7294 8.36843 18.5639 8.49066 18.3982V18.4398C8.77612 19.0195 9.06148 19.5789 9.32655 20.1588C9.95866 21.1736 11.0595 22.23 11.977 22.9343C12.4665 23.3069 12.8538 23.949 13.4655 24.1769V24.1146H13.4246C13.3023 23.9282 13.1187 23.8455 12.9557 23.7003C12.5888 23.3277 12.1809 22.872 11.8955 22.4577C11.0394 21.2977 10.2848 20.0137 9.61202 18.6881C9.28589 18.0462 9.0003 17.3419 8.73534 16.6999C8.61288 16.4511 8.61288 16.0784 8.40909 15.9543C8.10323 16.4099 7.65476 16.8034 7.43046 17.3626C7.04327 18.2532 7.00237 19.3509 6.85964 20.49C6.77808 20.5109 6.81874 20.49 6.77796 20.5317C6.12569 20.3657 5.9014 19.6824 5.65659 19.1024C5.04487 17.6319 4.94292 15.2707 5.47319 13.5724C5.61593 13.1374 6.22765 11.7705 5.98296 11.3562C5.86062 10.9626 5.45269 10.7348 5.22851 10.4242C4.96355 10.0306 4.67796 9.53368 4.49456 9.09856C4.00519 7.93868 3.7605 6.65451 3.23046 5.49463C2.98577 4.95606 2.5578 4.39701 2.21105 3.89987C1.82374 3.3407 1.39554 2.94701 1.08968 2.28428C0.987843 2.05654 0.844991 1.68368 1.00812 1.43511C1.0489 1.2694 1.13034 1.20737 1.29358 1.16594C1.55866 0.937967 2.31312 1.22797 2.57796 1.35225C3.33241 1.66273 3.96441 1.95297 4.59651 2.38785C4.88187 2.59499 5.18773 2.98856 5.55464 3.09213H5.98284C6.63534 3.23701 7.36917 3.13356 7.98089 3.31987C9.06159 3.6719 10.0401 4.18975 10.9169 4.74904C13.5878 6.46809 15.7896 8.91213 17.2781 11.8325C17.5228 12.3087 17.6246 12.7439 17.8489 13.2408C18.2772 14.2558 18.8073 15.2914 19.2352 16.2856C19.6634 17.2589 20.0711 18.2532 20.6828 19.0611C20.9887 19.4958 22.2119 19.7238 22.7625 19.9517C23.1703 20.138 23.8024 20.3038 24.1693 20.5315C24.8625 20.9663 25.5556 21.4637 26.2081 21.9399C26.5344 22.1884 27.5537 22.7063 27.615 23.1205V23.1205Z" fill="#00546B"/>
<path d="M6.81869 5.12164C6.47217 5.12164 6.2276 5.16331 5.98291 5.22533V5.26676H6.02369C6.18693 5.59819 6.47217 5.82605 6.67596 6.11593C6.8392 6.44724 6.98182 6.77879 7.14506 7.11021C7.16533 7.08938 7.18572 7.06879 7.18572 7.06879C7.47131 6.86152 7.61393 6.53021 7.61393 6.03307C7.49158 5.88819 7.47119 5.74319 7.36924 5.59819C7.24701 5.39093 6.98182 5.28748 6.81869 5.12164V5.12164Z" fill="#00546B"/>
</svg>
