<svg width="30" height="30" viewBox="0 0 30 30" fill="none" xmlns="http://www.w3.org/2000/svg">
<path d="M15 29.9999C14.5342 29.9999 14.0994 29.8897 13.6957 29.6967L9.5652 27.5194C8.9441 27.2163 9.25465 27.106 9.44098 27.0509C10.2795 26.8029 10.4347 26.7477 11.3043 26.3067C11.3975 26.2516 11.5218 26.2791 11.6148 26.3342L14.7826 28.0155C14.9068 28.0706 15.0621 28.0706 15.1553 28.0155L27.5467 21.649C27.6709 21.5939 27.733 21.4836 27.733 21.3458V8.64018C27.733 8.50238 27.6709 8.39214 27.5467 8.33702L15.1553 1.99798C15.0311 1.94286 14.8758 1.94286 14.7826 1.99798L2.39121 8.33713C2.26699 8.39225 2.20488 8.53004 2.20488 8.64028V21.3458C2.20488 21.4561 2.26699 21.5939 2.39121 21.649L5.77641 23.3853C7.60875 24.212 8.75766 23.2475 8.75766 22.2829V9.74257C8.75766 9.57721 8.91305 9.41185 9.13043 9.41185H10.7143C10.9007 9.41185 11.087 9.54965 11.087 9.74257V22.2828C11.087 24.4601 9.75152 25.7278 7.4223 25.7278C6.70805 25.7278 6.14906 25.7278 4.56527 25.0388L1.3043 23.3853C0.496875 22.9718 0 22.2001 0 21.3733V8.66784C0 7.84105 0.496875 7.06938 1.3043 6.65588L13.6957 0.289377C14.4721 -0.096459 15.5279 -0.096459 16.3043 0.289377L28.6957 6.65588C29.5031 7.06928 30 7.84095 30 8.66784V21.3734C30 22.2002 29.5031 22.9719 28.6957 23.3853L16.3043 29.752C15.9006 29.9173 15.4348 30 15 30V29.9999ZM18.8198 21.263C13.385 21.263 12.2671 19.0583 12.2671 17.1841C12.2671 17.0187 12.4223 16.8534 12.6397 16.8534H14.2546C14.4409 16.8534 14.5963 16.9636 14.5963 17.129C14.8447 18.5897 15.559 19.3063 18.8509 19.3063C21.4596 19.3063 22.5777 18.7827 22.5777 17.5425C22.5777 16.8258 22.2671 16.3022 18.1988 15.9438C14.8137 15.6407 12.7018 14.9792 12.7018 12.5815C12.7018 10.349 14.8136 9.02612 18.354 9.02612C22.3291 9.02612 24.2857 10.2387 24.5341 12.8846C24.5341 12.9673 24.5031 13.0499 24.441 13.1326C24.3789 13.1877 24.2857 13.2429 24.1925 13.2429H22.5777C22.4223 13.2429 22.2671 13.1326 22.236 12.9948C21.8633 11.479 20.9006 10.983 18.354 10.983C15.497 10.983 15.1553 11.8649 15.1553 12.5263C15.1553 13.3256 15.559 13.5736 19.4099 14.0145C23.2298 14.4555 25.031 15.0895 25.031 17.4597C25 19.8851 22.764 21.263 18.8198 21.263V21.263Z" fill="#539E43"/>
</svg>
