<svg width="32" height="33" viewBox="0 0 32 33" fill="none" xmlns="http://www.w3.org/2000/svg">
<path d="M31.876 19.7607C31.6841 19.1796 31.1815 18.7748 30.5315 18.6777C30.225 18.632 29.874 18.6515 29.4586 18.7371C28.7346 18.8865 28.1975 18.9433 27.8055 18.9543C29.2851 16.4562 30.4883 13.6075 31.1809 10.9258C32.3009 6.58972 31.7024 4.61435 31.003 3.72085C29.1521 1.35585 26.4517 0.0853484 23.194 0.0464734C21.4561 0.0252234 19.9305 0.368348 19.1346 0.615098C18.3936 0.484348 17.5969 0.411348 16.7609 0.397848C15.1938 0.372848 13.8091 0.714473 12.626 1.4166C11.971 1.1951 10.9198 0.882848 9.70575 0.683598C6.8505 0.214848 4.54925 0.580099 2.866 1.76922C0.827751 3.20897 -0.117124 5.71047 0.0576257 9.20422C0.113126 10.3135 0.733626 13.6885 1.71063 16.8892C2.27213 18.729 2.87088 20.2567 3.49025 21.4305C4.36863 23.0948 5.3085 24.075 6.36363 24.427C6.955 24.624 8.0295 24.762 9.15963 23.8207C9.30288 23.9942 9.494 24.1666 9.74763 24.3267C10.0698 24.5298 10.4636 24.6958 10.857 24.7942C12.2746 25.1486 13.6025 25.06 14.7354 24.5632C14.7424 24.7647 14.7478 24.9572 14.7523 25.1235C14.7598 25.3931 14.7673 25.6575 14.7771 25.9047C14.8443 27.5765 14.958 28.8763 15.295 29.7858C15.3135 29.8358 15.3384 29.9121 15.3646 29.993C15.5328 30.5077 15.8139 31.3695 16.5291 32.0443C17.2698 32.7435 18.1656 32.9578 18.9861 32.9578C19.3976 32.9578 19.7902 32.9038 20.1346 32.8301C21.3621 32.567 22.7563 32.1662 23.7647 30.7302C24.7183 29.3727 25.1817 27.3281 25.2656 24.1065C25.2765 24.0153 25.2865 23.9283 25.2961 23.8455L25.3161 23.6752L25.5408 23.695L25.5986 23.6988C26.8489 23.7558 28.3776 23.4907 29.3165 23.0546C30.0584 22.7103 32.4358 21.4552 31.876 19.7607Z" fill="black"/>
<path d="M29.7383 20.0903C26.0208 20.8572 25.7651 19.5985 25.7651 19.5985C29.6901 13.7744 31.331 6.38154 29.9151 4.57216C26.0521 -0.363461 19.3653 1.97079 19.2536 2.03129L19.2178 2.03779C18.4832 1.88529 17.6614 1.79454 16.7375 1.77941C15.0555 1.75191 13.7795 2.22041 12.8112 2.95466C12.8112 2.95466 0.8825 -1.95959 1.43737 9.13516C1.55537 11.4954 4.82037 26.9943 8.71462 22.3129C10.138 20.601 11.5134 19.1537 11.5134 19.1537C12.1964 19.6074 13.0141 19.8389 13.8714 19.7558L13.938 19.6993C13.9172 19.9118 13.9268 20.1197 13.9646 20.3658C12.9614 21.4867 13.2562 21.6834 11.2507 22.0963C9.22137 22.5145 10.4135 23.259 11.1919 23.4538C12.1355 23.6897 14.3185 24.0239 15.7935 21.959L15.7347 22.1947C16.1277 22.5095 16.4038 24.2425 16.3575 25.8137C16.3112 27.3847 16.2804 28.4633 16.59 29.3058C16.8999 30.1483 17.2085 32.0439 19.845 31.479C22.0479 31.0069 23.1895 29.7835 23.3484 27.7428C23.461 26.292 23.7161 26.5065 23.7321 25.2094L23.9368 24.5954C24.1726 22.6288 23.9743 21.9943 25.3314 22.2894L25.6614 22.3184C26.6601 22.3638 27.9676 22.1577 28.735 21.801C30.3873 21.0343 31.3673 19.7539 29.738 20.0903H29.7383Z" fill="#336791"/>
<path d="M13.5095 10.1906C13.1745 10.144 12.8711 10.1871 12.7176 10.3033C12.6314 10.3687 12.6046 10.4445 12.5974 10.4966C12.5781 10.6347 12.6749 10.7875 12.7344 10.8662C12.9026 11.0892 13.1484 11.2425 13.3916 11.2762C13.4269 11.2812 13.462 11.2835 13.4969 11.2835C13.9025 11.2835 14.2714 10.9676 14.3039 10.7345C14.3445 10.4425 13.9206 10.2478 13.5095 10.1907" fill="white"/>
<path d="M24.6075 10.1999C24.5755 9.971 24.1682 9.90575 23.7817 9.9595C23.3957 10.0132 23.0215 10.1875 23.0527 10.4169C23.0777 10.5952 23.3999 10.8997 23.7811 10.8997C23.8134 10.8997 23.8459 10.8976 23.8786 10.893C24.1331 10.8577 24.3199 10.6961 24.4086 10.603C24.5436 10.461 24.6219 10.3027 24.6075 10.1999Z" fill="white"/>
<path d="M30.9753 20.0031C30.8335 19.5745 30.3772 19.4366 29.6192 19.5931C27.3686 20.0576 26.5626 19.7359 26.298 19.541C28.0474 16.876 29.4865 13.6545 30.2629 10.6489C30.6306 9.22513 30.8337 7.90288 30.8504 6.82513C30.8687 5.64226 30.6673 4.77301 30.2518 4.24201C28.5765 2.10138 26.1178 0.953133 23.1415 0.921633C21.0954 0.898633 19.3666 1.42226 19.0315 1.56951C18.3258 1.39401 17.5564 1.28626 16.7188 1.27251C15.1827 1.24763 13.855 1.61538 12.7557 2.36501C12.2782 2.18726 11.0442 1.76363 9.53512 1.52051C6.92612 1.10051 4.85287 1.41876 3.37337 2.46688C1.608 3.71763 0.793 5.95338 0.950875 9.11188C1.004 10.1745 1.6095 13.4435 2.565 16.5741C3.82275 20.6946 5.19 23.0273 6.6285 23.5071C6.79688 23.5633 6.991 23.6025 7.20512 23.6025C7.72987 23.6025 8.37325 23.366 9.04263 22.5613C9.85907 21.5818 10.7036 20.6262 11.5752 19.6955C12.1407 19.999 12.762 20.1685 13.3974 20.1855C13.3986 20.2021 13.4002 20.2188 13.4017 20.2353C13.2924 20.3657 13.1853 20.498 13.0805 20.6321C12.6402 21.191 12.5486 21.3074 11.1315 21.5991C10.7284 21.6824 9.65775 21.903 9.642 22.6535C9.625 23.4735 10.9076 23.8179 11.0538 23.8544C11.563 23.9819 12.0536 24.0448 12.5215 24.0448C13.6594 24.0448 14.6608 23.6708 15.461 22.9471C15.4364 25.8704 15.5583 28.7509 15.9093 29.6285C16.1968 30.347 16.899 32.1029 19.1173 32.1028C19.4428 32.1028 19.801 32.0649 20.1951 31.9804C22.5103 31.4841 23.5156 30.4609 23.9045 28.205C24.1126 26.9994 24.4698 24.1205 24.6378 22.5763C24.9923 22.6869 25.4486 22.7375 25.942 22.7374C26.971 22.7374 28.1584 22.5188 28.903 22.1731C29.7395 21.7846 31.249 20.8314 30.9753 20.0031ZM25.462 9.56813C25.4544 10.024 25.3916 10.4379 25.3251 10.8699C25.2535 11.3345 25.1795 11.8149 25.1609 12.398C25.1425 12.9655 25.2134 13.5555 25.2819 14.1261C25.4204 15.2786 25.5625 16.4651 25.0124 17.6359C24.921 17.474 24.8396 17.3066 24.7686 17.1348C24.7003 16.969 24.5518 16.7028 24.3461 16.3343C23.5462 14.8998 21.6731 11.5405 22.632 10.1698C22.9176 9.76176 23.6425 9.34226 25.462 9.56813ZM23.2565 1.84476C25.9233 1.90363 28.0328 2.90126 29.5263 4.80976C30.6718 6.27363 29.4104 12.9345 25.7588 18.6809C25.722 18.6342 25.6851 18.5876 25.648 18.5413L25.6017 18.4835C26.5454 16.9251 26.3609 15.3833 26.1966 14.0163C26.1291 13.4553 26.0654 12.9254 26.0816 12.4276C26.0984 11.9001 26.1681 11.4476 26.2356 11.0101C26.3185 10.471 26.4029 9.91313 26.3796 9.25551C26.397 9.18651 26.404 9.10501 26.3949 9.00826C26.3355 8.37763 25.6155 6.49026 24.148 4.78201C23.3453 3.84763 22.1746 2.80201 20.5763 2.09676C21.2638 1.95426 22.2039 1.82138 23.2565 1.84476ZM8.33425 21.9723C7.59675 22.859 7.0875 22.689 6.92 22.6333C5.82875 22.2693 4.5625 19.9628 3.44613 16.3053C2.48012 13.1405 1.91562 9.95813 1.87087 9.06576C1.72987 6.24351 2.414 4.27663 3.90438 3.21963C6.32987 1.49963 10.3176 2.52913 11.92 3.05126C11.897 3.07401 11.873 3.09526 11.8503 3.11838C9.22075 5.77388 9.28312 10.3109 9.28963 10.5883C9.28938 10.6953 9.29838 10.8468 9.31063 11.0551C9.35588 11.8183 9.44013 13.2385 9.21513 14.8469C9.00613 16.3415 9.46688 17.8044 10.479 18.8605C10.5829 18.9687 10.692 19.0716 10.8061 19.169C10.3556 19.6515 9.3765 20.7185 8.33425 21.9723ZM11.1441 18.2231C10.3284 17.3719 9.95787 16.1879 10.1275 14.9744C10.365 13.2754 10.2774 11.7956 10.2303 11.0006C10.2236 10.8894 10.2177 10.7919 10.2144 10.715C10.5985 10.3744 12.3786 9.42063 13.6481 9.71151C14.2274 9.84413 14.5804 10.2386 14.7271 10.9171C15.4866 14.43 14.8276 15.8941 14.2981 17.0708C14.189 17.3131 14.0859 17.5423 13.9979 17.7793L13.9296 17.9625C13.7569 18.4258 13.5961 18.8565 13.4965 19.2655C12.6292 19.263 11.7856 18.8925 11.1441 18.223V18.2231ZM11.2773 22.9606C11.024 22.8974 10.7963 22.7875 10.6626 22.6964C10.7743 22.6439 10.9729 22.5724 11.3174 22.5014C12.9845 22.1583 13.242 21.916 13.8042 21.2021C13.9331 21.0384 14.0792 20.8529 14.2816 20.6269L14.2819 20.6266C14.5833 20.2891 14.7211 20.3464 14.9711 20.4501C15.1737 20.5339 15.3711 20.7879 15.4511 21.0674C15.489 21.1994 15.5315 21.4499 15.3924 21.6449C14.2179 23.2894 12.5064 23.2683 11.2773 22.9606ZM20.0021 31.0796C17.9626 31.5166 17.2405 30.476 16.7646 29.2864C16.4575 28.5184 16.3065 25.0551 16.4136 21.2305C16.415 21.1796 16.4077 21.1305 16.3937 21.0843C16.3812 20.9929 16.3622 20.9026 16.3368 20.814C16.1775 20.2575 15.7894 19.792 15.3237 19.599C15.1387 19.5224 14.7992 19.3818 14.3912 19.4861C14.4782 19.1276 14.6291 18.7228 14.7928 18.2844L14.8614 18.1C14.9386 17.8921 15.0356 17.6768 15.1381 17.4488C15.6923 16.2178 16.4511 14.5316 15.6275 10.7225C15.319 9.29576 14.2888 8.59901 12.727 8.76088C11.7908 8.85776 10.9341 9.23551 10.5069 9.45213C10.415 9.49863 10.331 9.54363 10.2525 9.58738C10.3717 8.14988 10.8222 5.46338 12.5075 3.76363C13.5686 2.69363 14.9818 2.16513 16.7035 2.19363C20.096 2.24913 22.2715 3.99013 23.4993 5.44101C24.5573 6.69113 25.1301 7.95051 25.3587 8.62976C23.6394 8.45488 22.47 8.79426 21.8773 9.64176C20.5876 11.4853 22.5827 15.0633 23.5416 16.7829C23.7175 17.098 23.8692 17.3704 23.917 17.4861C24.2292 18.2429 24.6335 18.7481 24.9286 19.1169C25.0191 19.2299 25.1069 19.3395 25.1736 19.4353C24.6529 19.5854 23.7175 19.9323 23.8027 21.6661C23.734 22.5361 23.2451 26.6094 22.9967 28.0485C22.6689 29.9498 21.9692 30.6579 20.0021 31.0798V31.0796ZM28.5151 21.3376C27.9826 21.5848 27.0915 21.7701 26.245 21.81C25.31 21.8538 24.834 21.7053 24.722 21.6139C24.6695 20.5334 25.0716 20.4205 25.4972 20.301C25.5641 20.2823 25.6294 20.2639 25.6924 20.2419C25.7315 20.2738 25.7744 20.3054 25.8214 20.3364C26.5729 20.8324 27.9132 20.8859 29.8056 20.4953L29.8264 20.4911C29.5711 20.7298 29.1344 21.05 28.5151 21.3376Z" fill="white"/>
</svg>
