<svg width="30" height="28" viewBox="0 0 30 28" fill="none" xmlns="http://www.w3.org/2000/svg">
<path d="M15 0.608704C12.9545 0.608704 11.3565 1.32881 10.206 2.76903C9.0554 4.20925 8.48011 6.05028 8.48011 8.29213C8.46591 11.0775 9.40341 13.2853 11.2926 14.9158C11.5341 15.1332 11.6193 15.4117 11.5483 15.7514L11.0582 16.7296C10.902 17.0557 10.6712 17.3105 10.3658 17.4939C10.0604 17.6773 9.41761 17.9389 8.4375 18.2785C8.39489 18.2921 7.49645 18.5707 5.74219 19.1141C3.98793 19.6576 3.05398 19.9565 2.94034 20.0109C1.74716 20.4864 0.965909 20.9823 0.596591 21.4986C0.198864 22.3546 0 24.5217 0 28H30C30 24.5217 29.8011 22.3546 29.4034 21.4986C29.0341 20.9823 28.2528 20.4864 27.0597 20.0109C26.946 19.9565 26.0121 19.6576 24.2578 19.1141C22.5036 18.5707 21.6051 18.2921 21.5625 18.2785C20.5824 17.9389 19.9396 17.6773 19.6342 17.4939C19.3288 17.3105 19.098 17.0557 18.9418 16.7296L18.4517 15.7514C18.3807 15.4117 18.4659 15.1332 18.7074 14.9158C20.5966 13.2853 21.5341 11.0775 21.5199 8.29213C21.5199 6.05028 20.9446 4.20925 19.794 2.76903C18.6435 1.32881 17.0455 0.608704 15 0.608704Z" fill="white"/>
</svg>
