<svg width="33" height="38" viewBox="0 0 33 38" fill="none" xmlns="http://www.w3.org/2000/svg">
<path d="M19.75 0.300049H4.25C1.9 0.300049 0 2.20005 0 4.55005V19.4501C0 21.8001 1.9 23.7001 4.25 23.7001H19.75C22.1 23.7001 24 21.8001 24 19.4501V4.55005C24 2.20005 22.1 0.300049 19.75 0.300049ZM22.99 19.06C22.9922 19.537 22.9003 20.0097 22.7194 20.451C22.5385 20.8924 22.2723 21.2936 21.9359 21.6318C21.5996 21.97 21.1998 22.2385 20.7595 22.4218C20.3192 22.6051 19.847 22.6997 19.37 22.7001H4.63C2.63 22.7001 1 21.07 1 19.07V4.93005C1 2.93005 2.63 1.30005 4.63 1.30005H19.36C20.3227 1.30005 21.246 1.68249 21.9268 2.36325C22.6076 3.04401 22.99 3.96731 22.99 4.93005V19.06ZM9.49 11.25L12.29 16.63C12.34 16.71 12.31 16.7901 12.23 16.7901H10.49C10.38 16.7901 10.33 16.76 10.28 16.66C9.64 15.34 8.99 14.02 8.32 12.6H8.3C7.7 13.94 7.04 15.35 6.4 16.67C6.35 16.75 6.3 16.7801 6.22 16.7801H4.57C4.47 16.7801 4.46 16.7 4.51 16.64L7.25 11.42L4.6 6.14005C4.54 6.06005 4.6 6.00005 4.66 6.00005H6.38C6.48 6.00005 6.52 6.02005 6.56 6.11005C7.19 7.43005 7.83 8.79005 8.43 10.12H8.45C9.03 8.80005 9.67 7.43005 10.29 6.12005C10.34 6.04005 10.37 5.99005 10.47 5.99005H12.08C12.16 5.99005 12.19 6.05005 12.14 6.13005L9.49 11.25ZM12.78 12.88C12.78 10.55 14.33 8.73005 16.79 8.73005C17 8.73005 17.11 8.73005 17.31 8.75005V6.10005C17.31 6.04005 17.36 6.00005 17.41 6.00005H18.99C19.07 6.00005 19.09 6.03005 19.09 6.08005V15.26C19.09 15.53 19.09 15.87 19.14 16.24C19.14 16.3 19.12 16.32 19.06 16.35C18.22 16.75 17.34 16.93 16.5 16.93C14.33 16.9401 12.78 15.6 12.78 12.88ZM17.31 10.32C17.17 10.26 16.97 10.22 16.73 10.22C15.47 10.22 14.59 11.19 14.59 12.8C14.59 14.64 15.49 15.38 16.62 15.38C16.86 15.38 17.12 15.35 17.31 15.27V10.32Z" fill="black"/>
<path d="M21 38C23.208 38 25 36.208 25 34V30H21C18.792 30 17 31.792 17 34C17 36.208 18.792 38 21 38Z" fill="#0ACF83"/>
<path d="M17 26C17 23.792 18.792 22 21 22H25V30H21C18.792 30 17 28.208 17 26Z" fill="#A259FF"/>
<path d="M17 18C17 15.792 18.792 14 21 14H25V22H21C18.792 22 17 20.208 17 18Z" fill="#F24E1E"/>
<path d="M25 14H29C31.208 14 33 15.792 33 18C33 20.208 31.208 22 29 22H25V14Z" fill="#FF7262"/>
<path d="M33 26C33 28.208 31.208 30 29 30C26.792 30 25 28.208 25 26C25 23.792 26.792 22 29 22C31.208 22 33 23.792 33 26Z" fill="#1ABCFE"/>
</svg>
