<svg width="237" height="200" viewBox="0 0 237 200" fill="none" xmlns="http://www.w3.org/2000/svg">
<g clip-path="url(#clip0)">
<rect width="237" height="200" fill="white"/>
<path d="M172.063 113.492V168.741L182.375 183.801L183.16 184.947H223.848L224.67 113.492H172.063Z" fill="#E6E6E6"/>
<path opacity="0.1" d="M172.063 113.492V168.741L182.375 183.801L183.008 113.492H172.063Z" fill="black"/>
<path d="M73.8358 112.018V167.267L63.5239 182.328L62.7391 183.473H22.0508L21.2287 112.018H73.8358Z" fill="#E6E6E6"/>
<path opacity="0.1" d="M73.8358 112.018V167.267L63.5239 182.328L62.8911 112.018H73.8358Z" fill="black"/>
<path d="M237 110.914V114.228H15.8858V109.44L36.4354 99.8637H218.916L237 110.914Z" fill="#E6E6E6"/>
<path opacity="0.1" d="M237 110.914V114.228H15.8858V109.44L237 110.914Z" fill="black"/>
<path d="M47.5324 127.488H37.6684L33.5585 124.91H52.0533L47.5324 127.488Z" fill="#3F3D56"/>
<path d="M47.5324 138.17H37.6684L33.5585 135.591H52.0533L47.5324 138.17Z" fill="#3F3D56"/>
<path d="M47.5324 153.271H37.6684L33.5585 150.693H52.0533L47.5324 153.271Z" fill="#3F3D56"/>
<path d="M47.5324 168.372H37.6684L33.5585 165.794H52.0533L47.5324 168.372Z" fill="#3F3D56"/>
<path d="M198.367 128.961H208.231L212.341 126.383H193.846L198.367 128.961Z" fill="#3F3D56"/>
<path d="M198.367 139.643H208.231L212.341 137.065H193.846L198.367 139.643Z" fill="#3F3D56"/>
<path d="M198.367 154.744H208.231L212.341 152.166H193.846L198.367 154.744Z" fill="#3F3D56"/>
<path d="M198.367 169.846H208.231L212.341 167.267H193.846L198.367 169.846Z" fill="#3F3D56"/>
<path d="M205.084 35.9741H122.044C121.631 35.9741 121.223 36.0469 120.842 36.1883C120.461 36.3297 120.115 36.537 119.823 36.7984C119.531 37.0597 119.3 37.37 119.142 37.7115C118.985 38.053 118.903 38.419 118.903 38.7886V88.9191C118.903 89.2887 118.985 89.6547 119.142 89.9962C119.3 90.3377 119.531 90.6479 119.823 90.9093C120.115 91.1707 120.461 91.378 120.842 91.5194C121.223 91.6608 121.631 91.7336 122.044 91.7335H153.567L152.386 98.4908C152.386 98.4908 145.636 101.704 150.382 101.799C155.127 101.893 177.484 101.799 177.484 101.799C177.484 101.799 181.808 101.799 174.953 98.3963L173.842 91.7335H205.084C205.496 91.7336 205.905 91.6608 206.286 91.5194C206.667 91.378 207.013 91.1707 207.305 90.9093C207.596 90.648 207.827 90.3377 207.985 89.9962C208.143 89.6547 208.224 89.2887 208.224 88.9191V38.7886C208.224 38.419 208.143 38.053 207.985 37.7115C207.827 37.37 207.596 37.0597 207.305 36.7984C207.013 36.537 206.667 36.3297 206.286 36.1883C205.905 36.0469 205.496 35.9741 205.084 35.9741Z" fill="#3F3D56"/>
<path d="M205.219 38.9511H121.909V80.7234H205.219V38.9511Z" fill="#F2F2F2"/>
<path d="M163.564 38.1006C163.855 38.1006 164.091 37.889 164.091 37.628C164.091 37.367 163.855 37.1555 163.564 37.1555C163.273 37.1555 163.037 37.367 163.037 37.628C163.037 37.889 163.273 38.1006 163.564 38.1006Z" fill="#F2F2F2"/>
<path d="M163.564 89.7016C164.67 89.7016 165.567 88.8977 165.567 87.906C165.567 86.9143 164.67 86.1103 163.564 86.1103C162.457 86.1103 161.56 86.9143 161.56 87.906C161.56 88.8977 162.457 89.7016 163.564 89.7016Z" fill="#F2F2F2"/>
<path d="M160.442 106.902V107.847H103.707V107.091L103.785 106.902L105.183 103.5H159.282L160.442 106.902Z" fill="#3F3D56"/>
<path d="M182.275 105.977C182.172 106.373 181.781 106.79 180.9 107.186C177.736 108.603 171.303 106.807 171.303 106.807C171.303 106.807 166.347 106.051 166.347 104.067C166.486 103.981 166.631 103.904 166.781 103.835C168.112 103.205 172.522 101.648 180.341 103.901C180.917 104.063 181.432 104.365 181.828 104.774C182.003 104.929 182.135 105.118 182.213 105.327C182.291 105.536 182.312 105.759 182.275 105.977Z" fill="#3F3D56"/>
<path opacity="0.1" d="M182.275 105.977C178.403 107.306 174.951 107.406 171.409 105.201C170.069 104.313 168.447 103.835 166.781 103.835C168.112 103.205 172.522 101.648 180.341 103.901C180.918 104.063 181.432 104.365 181.828 104.774C182.003 104.929 182.135 105.118 182.213 105.327C182.291 105.536 182.312 105.759 182.275 105.977Z" fill="black"/>
<path d="M177.42 105.201C178.177 105.201 178.791 105.032 178.791 104.823C178.791 104.614 178.177 104.445 177.42 104.445C176.663 104.445 176.049 104.614 176.049 104.823C176.049 105.032 176.663 105.201 177.42 105.201Z" fill="#F2F2F2"/>
<path opacity="0.1" d="M160.442 106.902V107.847H103.707V107.091L103.785 106.902H160.442Z" fill="black"/>
<path d="M31.5455 4.69154e-05C30.9697 -0.0423206 30.3931 0.0731086 29.8922 0.331039C29.4003 0.632914 29.0903 1.16177 28.7738 1.65389C27.5639 3.55797 25.926 5.2161 23.9637 6.52326C22.5344 7.46161 20.7173 8.63162 20.9618 10.3617C21.0908 10.933 21.3264 11.4808 21.6585 11.982C22.977 14.3673 26.5751 16.2107 26.2212 18.9325C27.5311 16.9671 25.7789 15.9953 27.0889 14.0299C27.7128 13.094 28.7965 12.0374 29.7384 12.6252C30.0538 12.822 30.2609 13.175 30.5892 13.3477C31.3728 13.7598 32.2063 12.972 32.8999 12.414C35.2916 10.4899 38.6927 10.994 41.6689 11.5935C43.0739 11.8765 44.6172 12.2478 45.4478 13.4513C46.5398 15.0336 44.4102 16.7425 43.8722 18.5315C43.8283 18.6839 43.8262 18.8436 43.8661 18.9969C43.9061 19.1502 43.9869 19.2926 44.1016 19.4118C44.2163 19.531 44.3616 19.6236 44.5249 19.6816C44.6882 19.7395 44.8648 19.7612 45.0395 19.7446C45.9325 19.6657 46.9904 19.601 47.0432 19.2498C48.1668 19.2856 49.5435 19.1716 50.0249 18.1231C50.172 17.7083 50.2498 17.2762 50.2557 16.841C50.4324 15.0798 51.2664 13.4731 51.819 11.7968C52.3715 10.1206 52.6118 8.15614 51.6793 6.66998C51.3465 6.1755 50.935 5.72722 50.4576 5.33933C45.166 0.750063 38.2087 -0.00676527 31.5455 4.69154e-05Z" fill="#2F2E41"/>
<path d="M27.372 22.3704C27.372 22.3704 28.5228 30.965 24.3031 31.6526C20.0834 32.3401 28.1392 44.0288 28.1392 44.0288L47.3198 46.0916L42.7164 32.3401C42.7164 32.3401 39.6476 31.3088 41.5656 24.4331C43.4837 17.5574 27.372 22.3704 27.372 22.3704Z" fill="#FFB8B8"/>
<path d="M15.6718 170.026L17.2064 188.935H25.262L22.9606 170.026H15.6718Z" fill="#FFB8B8"/>
<path d="M74.7479 134.273L75.8986 150.087L84.7219 146.649L81.2692 133.585L74.7479 134.273Z" fill="#FFB8B8"/>
<path d="M9.91772 97.8313C9.91772 97.8313 10.3013 117.771 12.603 124.303C14.9047 130.835 14.5211 131.178 14.1375 132.21C13.7538 133.241 13.3702 132.554 13.3702 134.273C13.3702 135.991 12.603 163.151 13.3702 165.557C14.1375 167.964 11.0686 172.089 13.3702 172.433C15.6719 172.777 26.413 172.433 26.7966 170.37C27.1802 168.307 23.7277 167.62 25.2622 166.245C26.7966 164.869 29.0983 136.679 29.0983 136.679L34.4688 117.083L44.4427 106.77H65.5413L72.0627 129.46C72.0627 129.46 69.3774 135.991 71.2954 135.991C73.2135 135.991 84.7218 138.054 84.7218 130.491C84.7218 122.928 80.8857 100.582 80.1185 99.894C79.3513 99.2064 80.5021 96.7999 79.3513 95.7686C78.2004 94.7372 64.7741 87.5177 59.7871 86.1426C54.8002 84.7674 47.8044 83.1307 47.8044 83.1307L9.91772 97.8313Z" fill="#2F2E41"/>
<path d="M84.7218 143.899C84.7218 143.899 78.9677 142.18 76.2824 147.336C73.5971 152.493 74.7479 153.868 74.7479 153.868C74.7479 153.868 83.571 156.619 85.1054 155.243C85.773 154.645 87.8929 154.437 90.075 154.393C93.3984 154.327 94.2826 150.113 91.1439 149.132C91.0502 149.102 90.9555 149.077 90.8596 149.055C87.7907 148.368 84.7218 143.899 84.7218 143.899Z" fill="#2F2E41"/>
<path d="M36.0032 28.0428C42.3591 28.0428 47.5116 23.4253 47.5116 17.7292C47.5116 12.0332 42.3591 7.41568 36.0032 7.41568C29.6474 7.41568 24.4949 12.0332 24.4949 17.7292C24.4949 23.4253 29.6474 28.0428 36.0032 28.0428Z" fill="#FFB8B8"/>
<path d="M21.0424 35.9499C21.0424 35.9499 39.8393 39.3877 44.4427 33.8872C49.046 28.3866 50.9641 49.3575 50.9641 49.3575L53.2657 71.3598L49.8132 83.3923C49.8132 83.3923 31.7835 96.4562 26.0294 97.4875C20.2752 98.5189 11.4521 99.2064 11.4521 99.2064C11.4521 99.2064 14.1374 61.0462 14.1374 60.3587C14.1374 59.6711 21.0424 35.9499 21.0424 35.9499Z" fill="#3EC9D2"/>
<path d="M26.759 29.5023C26.759 29.5023 22.5769 27.3552 21.426 29.418C20.2752 31.4807 9.53409 36.6375 8.38326 36.6375C7.23242 36.6375 10.6849 65.1717 9.15048 68.6095C7.61603 72.0474 0.327434 97.1437 4.54715 99.2064C8.76687 101.269 5.69798 97.1437 9.9177 102.301C14.1374 107.457 34.8524 107.457 36.0032 105.395C37.1541 103.332 26.7966 87.8615 28.7146 73.4225C30.6327 58.9835 33.7016 39.044 31.0163 36.2937C28.331 33.5434 26.759 29.5023 26.759 29.5023Z" fill="#2F2E41"/>
<path d="M40.6066 31.8245L41.1409 30.1765C41.1409 30.1765 57.1018 34.9185 57.8691 38.0126C58.6363 41.1067 58.2527 62.7652 55.5674 64.4841C52.8821 66.203 49.046 68.9533 51.7313 73.0787C54.4166 77.2042 57.4854 81.6734 59.7871 82.0172C62.0888 82.361 66.3085 84.7675 65.1577 87.1739C64.0068 89.5804 50.1968 85.1112 50.1968 85.1112C50.1968 85.1112 40.9902 78.9231 41.3738 69.2971C41.7574 59.6711 40.6066 31.8245 40.6066 31.8245Z" fill="#2F2E41"/>
<path d="M54.0329 72.3912L44.8263 87.8615C44.8263 87.8615 31.3999 100.238 39.0721 101.613C46.7444 102.988 50.9641 90.268 50.9641 90.268L60.938 77.5479L54.0329 72.3912Z" fill="#FFB8B8"/>
<path d="M32.1061 2.69857C31.6422 2.66777 31.1776 2.74853 30.7602 2.93251C30.3829 3.17952 30.0718 3.49896 29.8499 3.8675C28.8267 5.24682 27.4929 6.41913 25.9342 7.30913C24.7707 7.97236 23.2915 8.7993 23.4906 10.0221C23.5986 10.4321 23.791 10.8205 24.0577 11.1673C25.1347 12.8703 25.5635 14.8413 25.2791 16.7821L28.4783 12.6148C28.9861 11.9533 29.8684 11.2065 30.6351 11.622C30.8918 11.7611 31.0604 12.0106 31.3277 12.1326C31.9655 12.4238 32.6441 11.8671 33.2087 11.4727C35.1556 10.1128 37.9243 10.469 40.347 10.8928C41.4908 11.0928 42.7471 11.3552 43.4232 12.2058C44.5468 13.6194 43.3735 15.6618 44.0293 17.2948C44.2129 17.1796 44.3688 17.0326 44.4877 16.8624C44.6067 16.6923 44.6864 16.5024 44.722 16.3042C45.6366 16.3295 46.7573 16.2489 47.1491 15.5078C47.2683 15.2174 47.3318 14.911 47.337 14.6016C47.4808 13.3568 48.1598 12.2212 48.6096 11.0364C49.0594 9.8517 49.255 8.46324 48.4959 7.41282C48.2182 7.05692 47.8831 6.73996 47.5014 6.47233C43.1938 3.22867 37.5303 2.69376 32.1061 2.69857Z" fill="#2F2E41"/>
<path d="M54.0329 36.6375L57.6071 37.4877C57.6071 37.4877 65.9249 56.577 64.0068 69.6409C62.0888 82.7048 60.9379 79.9545 60.9379 79.9545C60.9379 79.9545 57.869 73.7663 50.9641 75.1415L54.0329 36.6375Z" fill="#2F2E41"/>
<path d="M16.2033 186.436C15.2783 187.562 15.4637 189.173 14.6443 190.363C13.934 191.395 12.5954 191.936 11.707 192.85C11.4235 193.154 11.1708 193.48 10.9518 193.824C10.1276 195.061 9.45774 196.647 10.2694 197.89C10.9224 198.891 12.2948 199.282 13.5536 199.549C15.1445 199.885 16.7975 200.155 18.4068 199.898C20.0161 199.64 21.5889 198.757 22.1627 197.385C22.2755 197.04 22.4095 196.701 22.5643 196.37C23.4365 194.831 26.1725 194.814 27.0652 193.285C27.6899 192.214 27.1156 190.92 26.5416 189.827L24.7884 186.489C24.2065 185.382 21.8479 186.019 20.6183 185.753C19.0147 185.407 17.357 185.026 16.2033 186.436Z" fill="#2F2E41"/>
<path d="M3.39633 79.2669L19.508 101.613C19.508 101.613 29.4819 112.958 32.5507 107.801C35.6196 102.644 21.8096 94.0497 21.8096 94.0497L11.4522 76.8604L3.39633 79.2669Z" fill="#FFB8B8"/>
<path d="M11.4521 37.325L8.38327 36.6375C8.38327 36.6375 2.24549 38.3564 0.711054 45.5759C-0.823387 52.7954 0.327441 81.6734 2.24549 82.0171C4.16355 82.3609 11.7187 76.9889 12.9281 78.1279C14.1374 79.2669 10.3013 73.4225 11.4521 70.3284C12.603 67.2344 11.4521 37.325 11.4521 37.325Z" fill="#2F2E41"/>
<path d="M132.633 47.1729L132.218 47.2607V47.29L132.633 47.3828L135.362 48.4961V49.4775L131.378 47.627V46.8994L135.362 45.0537V46.0352L132.633 47.1729ZM143.956 42.8906V43.5107L143.16 43.6475V48.0322C143.16 48.667 142.958 49.1715 142.555 49.5459C142.154 49.917 141.633 50.1025 140.992 50.1025C140.309 50.1025 139.765 49.93 139.361 49.585C138.958 49.2367 138.764 48.7321 138.78 48.0713L138.79 48.042H139.713C139.713 48.4814 139.824 48.8102 140.045 49.0283C140.27 49.2432 140.585 49.3506 140.992 49.3506C141.347 49.3506 141.637 49.2318 141.861 48.9941C142.086 48.7533 142.198 48.4326 142.198 48.0322V43.6475L141.402 43.5107V42.8906H143.16H143.956ZM148.131 50C148.102 49.8568 148.079 49.7282 148.062 49.6143C148.046 49.5003 148.035 49.3864 148.028 49.2725C147.843 49.5101 147.61 49.7087 147.33 49.8682C147.053 50.0244 146.757 50.1025 146.441 50.1025C145.891 50.1025 145.473 49.9691 145.187 49.7021C144.9 49.432 144.757 49.0527 144.757 48.5645C144.757 48.0632 144.959 47.6774 145.362 47.4072C145.769 47.1338 146.326 46.9971 147.032 46.9971H148.023V46.3818C148.023 46.0726 147.926 45.8285 147.73 45.6494C147.535 45.4671 147.263 45.376 146.915 45.376C146.674 45.376 146.461 45.4069 146.275 45.4688C146.093 45.5306 145.945 45.6152 145.831 45.7227L145.729 46.2793H144.986V45.2539C145.227 45.0618 145.519 44.9089 145.86 44.7949C146.202 44.6777 146.573 44.6191 146.974 44.6191C147.573 44.6191 148.058 44.7721 148.429 45.0781C148.8 45.3841 148.985 45.8219 148.985 46.3916V48.9355C148.985 49.0039 148.985 49.0706 148.985 49.1357C148.989 49.2008 148.993 49.266 149 49.3311L149.391 49.3848V50H148.131ZM146.583 49.2969C146.902 49.2969 147.193 49.2204 147.457 49.0674C147.721 48.9144 147.91 48.7305 148.023 48.5156V47.6465H146.998C146.604 47.6465 146.292 47.7376 146.061 47.9199C145.833 48.1022 145.719 48.3236 145.719 48.584C145.719 48.8151 145.79 48.9925 145.934 49.1162C146.077 49.2367 146.293 49.2969 146.583 49.2969ZM151.925 45.3369L151.29 45.4346L152.379 48.4424L152.467 48.8232H152.496L152.589 48.4424L153.644 45.4346L153.004 45.3369V44.7168H155.045V45.3369L154.61 45.4102L152.838 50H152.11L150.318 45.4102L149.884 45.3369V44.7168H151.925V45.3369ZM159.068 50C159.039 49.8568 159.016 49.7282 159 49.6143C158.984 49.5003 158.972 49.3864 158.966 49.2725C158.78 49.5101 158.548 49.7087 158.268 49.8682C157.991 50.0244 157.695 50.1025 157.379 50.1025C156.829 50.1025 156.41 49.9691 156.124 49.7021C155.838 49.432 155.694 49.0527 155.694 48.5645C155.694 48.0632 155.896 47.6774 156.3 47.4072C156.707 47.1338 157.263 46.9971 157.97 46.9971H158.961V46.3818C158.961 46.0726 158.863 45.8285 158.668 45.6494C158.473 45.4671 158.201 45.376 157.853 45.376C157.612 45.376 157.398 45.4069 157.213 45.4688C157.031 45.5306 156.882 45.6152 156.769 45.7227L156.666 46.2793H155.924V45.2539C156.165 45.0618 156.456 44.9089 156.798 44.7949C157.14 44.6777 157.511 44.6191 157.911 44.6191C158.51 44.6191 158.995 44.7721 159.366 45.0781C159.737 45.3841 159.923 45.8219 159.923 46.3916V48.9355C159.923 49.0039 159.923 49.0706 159.923 49.1357C159.926 49.2008 159.931 49.266 159.938 49.3311L160.328 49.3848V50H159.068ZM157.521 49.2969C157.84 49.2969 158.131 49.2204 158.395 49.0674C158.658 48.9144 158.847 48.7305 158.961 48.5156V47.6465H157.936C157.542 47.6465 157.229 47.7376 156.998 47.9199C156.77 48.1022 156.656 48.3236 156.656 48.584C156.656 48.8151 156.728 48.9925 156.871 49.1162C157.014 49.2367 157.231 49.2969 157.521 49.2969ZM166.188 44.9902H165.46L165.279 43.9746C165.133 43.8509 164.938 43.7484 164.693 43.667C164.449 43.5856 164.166 43.5449 163.844 43.5449C163.333 43.5449 162.94 43.654 162.667 43.8721C162.394 44.0869 162.257 44.3685 162.257 44.7168C162.257 45.026 162.395 45.2848 162.672 45.4932C162.952 45.6982 163.403 45.8789 164.024 46.0352C164.773 46.2207 165.341 46.4941 165.729 46.8555C166.119 47.2168 166.314 47.6644 166.314 48.1982C166.314 48.7712 166.08 49.2318 165.611 49.5801C165.146 49.9284 164.535 50.1025 163.78 50.1025C163.233 50.1025 162.747 50.013 162.32 49.834C161.897 49.6549 161.552 49.4206 161.285 49.1309V47.8076H162.008L162.193 48.8281C162.379 48.9811 162.6 49.1064 162.857 49.2041C163.115 49.3018 163.422 49.3506 163.78 49.3506C164.265 49.3506 164.648 49.248 164.928 49.043C165.211 48.8379 165.353 48.5596 165.353 48.208C165.353 47.8825 165.23 47.6107 164.986 47.3926C164.742 47.1712 164.311 46.9857 163.692 46.8359C162.94 46.6569 162.353 46.3932 161.93 46.0449C161.507 45.6966 161.295 45.2588 161.295 44.7314C161.295 44.1748 161.531 43.7126 162.003 43.3447C162.475 42.9736 163.089 42.7881 163.844 42.7881C164.342 42.7881 164.794 42.8743 165.201 43.0469C165.611 43.2161 165.94 43.4229 166.188 43.667V44.9902ZM169.596 49.3506C169.915 49.3506 170.195 49.2529 170.436 49.0576C170.68 48.859 170.802 48.6165 170.802 48.3301H171.666L171.676 48.3594C171.692 48.8151 171.489 49.2204 171.065 49.5752C170.646 49.9268 170.156 50.1025 169.596 50.1025C168.827 50.1025 168.24 49.8519 167.833 49.3506C167.429 48.8493 167.228 48.2194 167.228 47.4609V47.2559C167.228 46.5039 167.431 45.8773 167.838 45.376C168.245 44.8714 168.831 44.6191 169.596 44.6191C170.019 44.6191 170.398 44.6891 170.733 44.8291C171.072 44.9691 171.352 45.1611 171.573 45.4053L171.617 46.5771H170.851L170.641 45.7471C170.527 45.6364 170.38 45.5469 170.201 45.4785C170.022 45.4102 169.82 45.376 169.596 45.376C169.091 45.376 168.73 45.5583 168.512 45.9229C168.297 46.2842 168.189 46.7285 168.189 47.2559V47.4609C168.189 48.0013 168.297 48.4521 168.512 48.8135C168.727 49.1715 169.088 49.3506 169.596 49.3506ZM172.613 45.3369V44.7168H174.269L174.361 45.4834C174.511 45.2132 174.695 45.0016 174.913 44.8486C175.134 44.6956 175.387 44.6191 175.67 44.6191C175.745 44.6191 175.821 44.6257 175.899 44.6387C175.981 44.6484 176.043 44.6598 176.085 44.6729L175.958 45.5664L175.411 45.5371C175.157 45.5371 174.944 45.5973 174.771 45.7178C174.599 45.835 174.465 46.001 174.371 46.2158V49.248L175.167 49.3848V50H172.613V49.3848L173.409 49.248V45.4736L172.613 45.3369ZM176.754 49.3848L177.55 49.248V45.4736L176.754 45.3369V44.7168H178.512V49.248L179.308 49.3848V50H176.754V49.3848ZM178.512 43.3643H177.55V42.3828H178.512V43.3643ZM179.928 51.4111L180.724 51.2744V45.4736L179.928 45.3369V44.7168H181.549L181.637 45.3613C181.812 45.1204 182.026 44.9365 182.276 44.8096C182.53 44.6826 182.823 44.6191 183.155 44.6191C183.81 44.6191 184.317 44.8796 184.679 45.4004C185.043 45.918 185.226 46.6032 185.226 47.4561V47.5586C185.226 48.3203 185.043 48.9355 184.679 49.4043C184.314 49.8698 183.811 50.1025 183.17 50.1025C182.844 50.1025 182.558 50.0488 182.311 49.9414C182.066 49.8307 181.858 49.668 181.686 49.4531V51.2744L182.481 51.4111V52.0312H179.928V51.4111ZM184.259 47.4561C184.259 46.8538 184.142 46.3607 183.907 45.9766C183.673 45.5924 183.325 45.4004 182.862 45.4004C182.589 45.4004 182.354 45.4622 182.159 45.5859C181.964 45.7096 181.806 45.8789 181.686 46.0938V48.667C181.806 48.8851 181.962 49.0544 182.154 49.1748C182.35 49.292 182.589 49.3506 182.872 49.3506C183.328 49.3506 183.673 49.1846 183.907 48.8525C184.142 48.5205 184.259 48.0892 184.259 47.5586V47.4561ZM187.779 43.4424V44.7168H188.78V45.4297H187.779V48.6377C187.779 48.8851 187.83 49.0592 187.931 49.1602C188.035 49.2611 188.172 49.3115 188.341 49.3115C188.425 49.3115 188.52 49.305 188.624 49.292C188.731 49.2757 188.821 49.2594 188.893 49.2432L189.024 49.9023C188.933 49.9609 188.8 50.0081 188.624 50.0439C188.448 50.083 188.272 50.1025 188.097 50.1025C187.706 50.1025 187.395 49.9854 187.164 49.751C186.933 49.5133 186.817 49.1423 186.817 48.6377V45.4297H185.982V44.7168H186.817V43.4424H187.779ZM192.428 46.1035V45.1514L196.603 46.9971V47.7246L192.428 49.5752V48.6182L195.348 47.4561L195.758 47.373V47.3438L195.348 47.2461L192.428 46.1035ZM125.514 60.1729L125.099 60.2607V60.29L125.514 60.3828L128.243 61.4961V62.4775L124.259 60.627V59.8994L128.243 58.0537V59.0352L125.514 60.1729ZM134.815 55.8955C135.59 55.8955 136.184 56.068 136.598 56.4131C137.011 56.7549 137.218 57.2415 137.218 57.873C137.218 58.2181 137.122 58.5241 136.93 58.791C136.738 59.0579 136.463 59.2679 136.104 59.4209C136.492 59.5479 136.77 59.7546 136.939 60.041C137.112 60.3275 137.198 60.6807 137.198 61.1006V61.6719C137.198 61.89 137.226 62.0511 137.281 62.1553C137.337 62.2594 137.428 62.3213 137.555 62.3408L137.789 62.3701V63H137.271C136.897 63 136.63 62.8698 136.471 62.6094C136.314 62.349 136.236 62.0332 136.236 61.6621V61.1104C136.236 60.723 136.124 60.4121 135.899 60.1777C135.675 59.9434 135.374 59.8262 134.996 59.8262H133.453V62.248L134.249 62.3848V63H131.695V62.3848L132.491 62.248V56.6475L131.695 56.5107V55.8955H132.491H134.815ZM133.453 59.0693H134.718C135.255 59.0693 135.646 58.9668 135.89 58.7617C136.134 58.5566 136.256 58.2572 136.256 57.8633C136.256 57.4889 136.139 57.1927 135.904 56.9746C135.67 56.7565 135.307 56.6475 134.815 56.6475H133.453V59.0693ZM142.33 62.2188C142.164 62.502 141.949 62.7201 141.686 62.873C141.425 63.026 141.124 63.1025 140.782 63.1025C140.209 63.1025 139.762 62.9186 139.439 62.5508C139.117 62.1829 138.956 61.61 138.956 60.832V58.4736L138.351 58.3369V57.7168H138.956H139.918V60.8418C139.918 61.4049 140.001 61.7923 140.167 62.0039C140.333 62.2155 140.592 62.3213 140.943 62.3213C141.285 62.3213 141.567 62.2529 141.788 62.1162C142.013 61.9762 142.182 61.7793 142.296 61.5254V58.4736L141.588 58.3369V57.7168H142.296H143.258V62.248L143.863 62.3848V63H142.394L142.33 62.2188ZM149.459 60.5586C149.459 61.3203 149.275 61.9355 148.907 62.4043C148.543 62.8698 148.04 63.1025 147.398 63.1025C147.053 63.1025 146.754 63.0374 146.5 62.9072C146.246 62.7738 146.035 62.5785 145.865 62.3213L145.777 63H144.947V56.1396L144.151 56.0029V55.3828H145.909V58.3418C146.075 58.1074 146.28 57.9284 146.524 57.8047C146.772 57.681 147.06 57.6191 147.389 57.6191C148.04 57.6191 148.548 57.8796 148.912 58.4004C149.277 58.9212 149.459 59.6064 149.459 60.4561V60.5586ZM148.492 60.4561C148.492 59.8473 148.382 59.3525 148.16 58.9717C147.939 58.5908 147.6 58.4004 147.145 58.4004C146.848 58.4004 146.598 58.472 146.393 58.6152C146.191 58.7585 146.03 58.9505 145.909 59.1914V61.5254C146.03 61.7695 146.192 61.9632 146.397 62.1064C146.606 62.2497 146.858 62.3213 147.154 62.3213C147.607 62.3213 147.942 62.1602 148.16 61.8379C148.382 61.5156 148.492 61.0892 148.492 60.5586V60.4561ZM155.377 58.3369L154.903 58.4102L152.892 63.8105C152.758 64.1654 152.566 64.4746 152.315 64.7383C152.065 65.002 151.728 65.1338 151.305 65.1338C151.23 65.1338 151.132 65.124 151.012 65.1045C150.891 65.0882 150.799 65.0719 150.733 65.0557L150.831 64.2988C150.812 64.2956 150.868 64.2988 151.002 64.3086C151.139 64.3184 151.225 64.3232 151.261 64.3232C151.466 64.3232 151.632 64.2337 151.759 64.0547C151.886 63.8789 151.996 63.6755 152.091 63.4443L152.32 62.8975L150.577 58.415L150.094 58.3369V57.7168H152.228V58.3369L151.632 58.4346L152.545 61.042L152.721 61.7158H152.75L153.849 58.4346L153.248 58.3369V57.7168H155.377V58.3369ZM158.526 60.3096C158.526 59.5283 158.738 58.8854 159.161 58.3809C159.584 57.873 160.159 57.6191 160.885 57.6191C161.614 57.6191 162.19 57.8714 162.613 58.376C163.04 58.8805 163.253 59.5251 163.253 60.3096V60.417C163.253 61.2048 163.041 61.8493 162.618 62.3506C162.195 62.8519 161.62 63.1025 160.895 63.1025C160.162 63.1025 159.584 62.8519 159.161 62.3506C158.738 61.846 158.526 61.2015 158.526 60.417V60.3096ZM159.488 60.417C159.488 60.9769 159.605 61.4391 159.84 61.8037C160.077 62.1683 160.429 62.3506 160.895 62.3506C161.35 62.3506 161.697 62.1683 161.935 61.8037C162.172 61.4391 162.291 60.9769 162.291 60.417V60.3096C162.291 59.7562 162.172 59.2956 161.935 58.9277C161.697 58.5599 161.347 58.376 160.885 58.376C160.423 58.376 160.074 58.5599 159.84 58.9277C159.605 59.2956 159.488 59.7562 159.488 60.3096V60.417ZM163.995 62.3848L164.791 62.248V58.4736L163.995 58.3369V57.7168H165.65L165.719 58.5029C165.895 58.223 166.114 58.0065 166.378 57.8535C166.645 57.6973 166.948 57.6191 167.286 57.6191C167.856 57.6191 168.297 57.7868 168.609 58.1221C168.922 58.4541 169.078 58.9684 169.078 59.665V62.248L169.874 62.3848V63H167.32V62.3848L168.116 62.248V59.6846C168.116 59.2191 168.023 58.8887 167.838 58.6934C167.656 58.498 167.376 58.4004 166.998 58.4004C166.721 58.4004 166.476 58.4671 166.261 58.6006C166.049 58.734 165.88 58.9163 165.753 59.1475V62.248L166.549 62.3848V63H163.995V62.3848ZM176.095 55.8955C176.869 55.8955 177.464 56.068 177.877 56.4131C178.29 56.7549 178.497 57.2415 178.497 57.873C178.497 58.2181 178.401 58.5241 178.209 58.791C178.017 59.0579 177.742 59.2679 177.384 59.4209C177.771 59.5479 178.049 59.7546 178.219 60.041C178.391 60.3275 178.478 60.6807 178.478 61.1006V61.6719C178.478 61.89 178.505 62.0511 178.561 62.1553C178.616 62.2594 178.707 62.3213 178.834 62.3408L179.068 62.3701V63H178.551C178.176 63 177.91 62.8698 177.75 62.6094C177.594 62.349 177.516 62.0332 177.516 61.6621V61.1104C177.516 60.723 177.403 60.4121 177.179 60.1777C176.954 59.9434 176.653 59.8262 176.275 59.8262H174.732V62.248L175.528 62.3848V63H172.975V62.3848L173.771 62.248V56.6475L172.975 56.5107V55.8955H173.771H176.095ZM174.732 59.0693H175.997C176.534 59.0693 176.925 58.9668 177.169 58.7617C177.413 58.5566 177.535 58.2572 177.535 57.8633C177.535 57.4889 177.418 57.1927 177.184 56.9746C176.949 56.7565 176.586 56.6475 176.095 56.6475H174.732V59.0693ZM183.277 63C183.248 62.8568 183.225 62.7282 183.209 62.6143C183.193 62.5003 183.181 62.3864 183.175 62.2725C182.989 62.5101 182.757 62.7087 182.477 62.8682C182.2 63.0244 181.904 63.1025 181.588 63.1025C181.038 63.1025 180.619 62.9691 180.333 62.7021C180.047 62.432 179.903 62.0527 179.903 61.5645C179.903 61.0632 180.105 60.6774 180.509 60.4072C180.916 60.1338 181.472 59.9971 182.179 59.9971H183.17V59.3818C183.17 59.0726 183.072 58.8285 182.877 58.6494C182.682 58.4671 182.41 58.376 182.062 58.376C181.821 58.376 181.607 58.4069 181.422 58.4688C181.24 58.5306 181.091 58.6152 180.978 58.7227L180.875 59.2793H180.133V58.2539C180.374 58.0618 180.665 57.9089 181.007 57.7949C181.349 57.6777 181.72 57.6191 182.12 57.6191C182.719 57.6191 183.204 57.7721 183.575 58.0781C183.946 58.3841 184.132 58.8219 184.132 59.3916V61.9355C184.132 62.0039 184.132 62.0706 184.132 62.1357C184.135 62.2008 184.14 62.266 184.146 62.3311L184.537 62.3848V63H183.277ZM181.729 62.2969C182.049 62.2969 182.34 62.2204 182.604 62.0674C182.867 61.9144 183.056 61.7305 183.17 61.5156V60.6465H182.145C181.751 60.6465 181.438 60.7376 181.207 60.9199C180.979 61.1022 180.865 61.3236 180.865 61.584C180.865 61.8151 180.937 61.9925 181.08 62.1162C181.223 62.2367 181.44 62.2969 181.729 62.2969ZM185.338 62.3848L186.134 62.248V58.4736L185.338 58.3369V57.7168H187.096V62.248L187.892 62.3848V63H185.338V62.3848ZM187.096 56.3643H186.134V55.3828H187.096V56.3643ZM188.497 56.0029V55.3828H190.255V62.248L191.051 62.3848V63H188.497V62.3848L189.293 62.248V56.1396L188.497 56.0029ZM195.826 59.377H195.104L194.947 58.7422C194.83 58.6315 194.682 58.5436 194.503 58.4785C194.327 58.4102 194.127 58.376 193.902 58.376C193.561 58.376 193.307 58.4508 193.141 58.6006C192.975 58.7503 192.892 58.931 192.892 59.1426C192.892 59.3509 192.965 59.5153 193.111 59.6357C193.258 59.7562 193.556 59.8636 194.005 59.958C194.672 60.1012 195.169 60.2965 195.494 60.5439C195.82 60.7881 195.982 61.1169 195.982 61.5303C195.982 61.999 195.792 62.3783 195.411 62.668C195.034 62.9577 194.539 63.1025 193.927 63.1025C193.526 63.1025 193.167 63.057 192.848 62.9658C192.529 62.8714 192.244 62.7363 191.993 62.5605L191.988 61.3545H192.711L192.892 62.0625C193.002 62.1634 193.152 62.2367 193.341 62.2822C193.533 62.3278 193.728 62.3506 193.927 62.3506C194.269 62.3506 194.535 62.2822 194.728 62.1455C194.923 62.0055 195.021 61.8232 195.021 61.5986C195.021 61.387 194.939 61.2129 194.776 61.0762C194.617 60.9395 194.312 60.8206 193.863 60.7197C193.222 60.5798 192.739 60.3893 192.413 60.1484C192.088 59.9076 191.925 59.582 191.925 59.1719C191.925 58.7422 192.107 58.376 192.472 58.0732C192.84 57.7705 193.316 57.6191 193.902 57.6191C194.303 57.6191 194.662 57.6712 194.981 57.7754C195.3 57.8796 195.566 58.0244 195.777 58.21L195.826 59.377ZM199.547 59.1035V58.1514L203.722 59.9971V60.7246L199.547 62.5752V61.6182L202.467 60.4561L202.877 60.373V60.3438L202.467 60.2461L199.547 59.1035ZM139.815 73.1729L139.4 73.2607V73.29L139.815 73.3828L142.545 74.4961V75.4775L138.561 73.627V72.8994L142.545 71.0537V72.0352L139.815 73.1729ZM152.96 68.8906V69.5107L152.164 69.6475V76H151.202L147.784 70.5117L147.755 70.5215V75.248L148.551 75.3848V76H145.997V75.3848L146.793 75.248V69.6475L145.997 69.5107V68.8906H146.793H147.755L151.173 74.374L151.202 74.3643V69.6475L150.406 69.5107V68.8906H152.164H152.96ZM153.707 73.3096C153.707 72.5283 153.919 71.8854 154.342 71.3809C154.765 70.873 155.34 70.6191 156.065 70.6191C156.795 70.6191 157.371 70.8714 157.794 71.376C158.22 71.8805 158.434 72.5251 158.434 73.3096V73.417C158.434 74.2048 158.222 74.8493 157.799 75.3506C157.376 75.8519 156.801 76.1025 156.075 76.1025C155.343 76.1025 154.765 75.8519 154.342 75.3506C153.919 74.846 153.707 74.2015 153.707 73.417V73.3096ZM154.669 73.417C154.669 73.9769 154.786 74.4391 155.021 74.8037C155.258 75.1683 155.61 75.3506 156.075 75.3506C156.531 75.3506 156.878 75.1683 157.115 74.8037C157.353 74.4391 157.472 73.9769 157.472 73.417V73.3096C157.472 72.7562 157.353 72.2956 157.115 71.9277C156.878 71.5599 156.528 71.376 156.065 71.376C155.603 71.376 155.255 71.5599 155.021 71.9277C154.786 72.2956 154.669 72.7562 154.669 73.3096V73.417ZM162.877 75.3701C162.704 75.611 162.493 75.7933 162.242 75.917C161.995 76.0407 161.707 76.1025 161.378 76.1025C160.733 76.1025 160.229 75.8698 159.864 75.4043C159.503 74.9355 159.322 74.3203 159.322 73.5586V73.4561C159.322 72.6064 159.503 71.9212 159.864 71.4004C160.229 70.8796 160.737 70.6191 161.388 70.6191C161.7 70.6191 161.975 70.6777 162.213 70.7949C162.454 70.9089 162.659 71.0749 162.828 71.293V69.1396L162.032 69.0029V68.3828H162.828H163.79V75.248L164.586 75.3848V76H162.955L162.877 75.3701ZM160.284 73.5586C160.284 74.0892 160.393 74.5156 160.611 74.8379C160.829 75.1602 161.166 75.3213 161.622 75.3213C161.909 75.3213 162.149 75.2562 162.345 75.126C162.54 74.9958 162.701 74.8118 162.828 74.5742V72.123C162.704 71.9017 162.543 71.7259 162.345 71.5957C162.146 71.4655 161.909 71.4004 161.632 71.4004C161.173 71.4004 160.833 71.5908 160.611 71.9717C160.393 72.3525 160.284 72.8473 160.284 73.4561V73.5586ZM167.735 76.1025C167 76.1025 166.414 75.8584 165.978 75.3701C165.545 74.8786 165.328 74.2422 165.328 73.4609V73.2461C165.328 72.4941 165.551 71.8691 165.997 71.3711C166.446 70.8698 166.977 70.6191 167.589 70.6191C168.299 70.6191 168.836 70.834 169.2 71.2637C169.568 71.6934 169.752 72.2663 169.752 72.9824V73.583H166.324L166.31 73.6074C166.319 74.1152 166.448 74.5335 166.695 74.8623C166.943 75.1878 167.289 75.3506 167.735 75.3506C168.061 75.3506 168.346 75.305 168.59 75.2139C168.837 75.1195 169.05 74.9909 169.229 74.8281L169.605 75.4531C169.417 75.6354 169.166 75.79 168.854 75.917C168.544 76.0407 168.172 76.1025 167.735 76.1025ZM167.589 71.376C167.267 71.376 166.992 71.5127 166.764 71.7861C166.536 72.0563 166.396 72.3965 166.344 72.8066L166.354 72.8311H168.79V72.7041C168.79 72.3265 168.689 72.0107 168.487 71.7568C168.285 71.5029 167.986 71.376 167.589 71.376ZM175.758 68.8906V69.5107L174.962 69.6475V74.0322C174.962 74.667 174.76 75.1715 174.356 75.5459C173.956 75.917 173.435 76.1025 172.794 76.1025C172.11 76.1025 171.567 75.93 171.163 75.585C170.759 75.2367 170.566 74.7321 170.582 74.0713L170.592 74.042H171.515C171.515 74.4814 171.625 74.8102 171.847 75.0283C172.071 75.2432 172.387 75.3506 172.794 75.3506C173.149 75.3506 173.438 75.2318 173.663 74.9941C173.888 74.7533 174 74.4326 174 74.0322V69.6475L173.204 69.5107V68.8906H174.962H175.758ZM181.544 70.9902H180.816L180.636 69.9746C180.489 69.8509 180.294 69.7484 180.05 69.667C179.806 69.5856 179.522 69.5449 179.2 69.5449C178.689 69.5449 178.297 69.654 178.023 69.8721C177.75 70.0869 177.613 70.3685 177.613 70.7168C177.613 71.026 177.752 71.2848 178.028 71.4932C178.308 71.6982 178.759 71.8789 179.381 72.0352C180.13 72.2207 180.698 72.4941 181.085 72.8555C181.476 73.2168 181.671 73.6644 181.671 74.1982C181.671 74.7712 181.437 75.2318 180.968 75.5801C180.502 75.9284 179.892 76.1025 179.137 76.1025C178.59 76.1025 178.103 76.013 177.677 75.834C177.254 75.6549 176.909 75.4206 176.642 75.1309V73.8076H177.364L177.55 74.8281C177.735 74.9811 177.957 75.1064 178.214 75.2041C178.471 75.3018 178.779 75.3506 179.137 75.3506C179.622 75.3506 180.004 75.248 180.284 75.043C180.567 74.8379 180.709 74.5596 180.709 74.208C180.709 73.8825 180.587 73.6107 180.343 73.3926C180.099 73.1712 179.667 72.9857 179.049 72.8359C178.297 72.6569 177.709 72.3932 177.286 72.0449C176.863 71.6966 176.651 71.2588 176.651 70.7314C176.651 70.1748 176.887 69.7126 177.359 69.3447C177.831 68.9736 178.445 68.7881 179.2 68.7881C179.698 68.7881 180.151 68.8743 180.558 69.0469C180.968 69.2161 181.297 69.4229 181.544 69.667V70.9902ZM185.245 72.1035V71.1514L189.42 72.9971V73.7246L185.245 75.5752V74.6182L188.165 73.4561L188.575 73.373V73.3438L188.165 73.2461L185.245 72.1035Z" fill="#AF7E00"/>
</g>
<defs>
<clipPath id="clip0">
<rect width="237" height="200" fill="white"/>
</clipPath>
</defs>
</svg>
