<svg width="50" height="30" viewBox="0 0 50 30" fill="none" xmlns="http://www.w3.org/2000/svg">
<path d="M21.4304 25.1543C21.4304 25.1543 23.6378 24.8312 23.6378 19.9641C23.6378 15.0969 20.9637 14.6447 20.9637 14.6447H16.1453V29.9998H18.5671V26.2958L20.6609 30H24.2432L21.4304 25.1545V25.1543ZM20.497 22.0099H18.5671V18.4996H20.5095C20.5095 18.4996 21.052 18.8441 21.052 20.244C21.052 21.6439 20.497 22.0101 20.497 22.0101V22.0099ZM29.6166 14.7524H27.1569C25.4037 14.7524 24.8109 17.4659 24.8109 18.7579V29.9998H27.2704V27.308H29.5787V29.9998H31.9627V18.7581C31.9627 15.4844 30.2221 14.7524 29.6166 14.7524V14.7524ZM29.5787 22.9576H27.2578V19.2319C27.2578 19.2319 27.2578 18.3919 28.0273 18.3919H28.8724C29.5535 18.3919 29.5661 19.2319 29.5661 19.2319V22.9576H29.5788H29.5787ZM33.0853 14.7524H35.6458V29.9998H33.0853V14.7524V14.7524ZM39.2407 26.0587V14.7524H36.6928V29.9997H42.6842V26.0587H39.2407V26.0587ZM43.5293 26.1018V29.9998H47.6539C48.499 29.9998 49.9496 28.9446 50 25.9941V24.4867C50 21.9668 48.7892 20.4809 47.6539 20.4809H45.598V18.6719H49.6721V14.7524H45.7619C44.7528 14.7524 43.4031 16.1736 43.4031 18.8226V20.1794C43.4031 22.8283 44.7401 24.1851 45.7619 24.1851C48.6 24.2068 45.0808 24.1851 47.7044 24.1851V26.0804L43.5293 26.1018V26.1018Z" fill="#CC0000"/>
<path d="M0.882975 29.9783H10.8476C10.8476 29.9783 8.94301 15.1399 15.2498 9.13132C16.6246 7.98995 21.0015 3.72587 28.166 12.771C28.393 12.4479 28.6075 12.1894 28.6075 12.1894C28.6075 12.1894 22.0485 1.01212 14.7452 2.26137C11.0747 2.82129 6.55904 8.52832 3.91021 16.0661C1.26138 23.6036 0.882975 29.9783 0.882975 29.9783V29.9783ZM21.6448 3.46737L21.6953 2.02441C21.5817 1.91671 21.2664 1.65821 20.4718 1.27062L20.4213 2.69204C20.8339 2.92797 21.242 3.18655 21.6448 3.46737V3.46737ZM20.4465 8.03286L20.3961 9.38982C20.8123 9.41136 21.2286 9.49753 21.6448 9.64815L21.6953 8.31291C21.2664 8.16228 20.8502 8.07611 20.4465 8.03303V8.03286ZM15.7795 1.31387H15.9057L15.6534 0C15.2623 0 14.8587 0.0430833 14.4425 0.12925L14.6822 1.39987C15.0479 1.33525 15.4137 1.31371 15.7795 1.31371V1.31387ZM16.3849 9.2392L16.6751 10.7252C17.0409 10.4237 17.4067 10.1653 17.7725 9.97145L17.495 8.55003C17.1167 8.7387 16.7459 8.9689 16.3849 9.2392V9.2392ZM10.6585 3.57525L10.0908 2.08904C9.77552 2.36908 9.44748 2.67066 9.10693 3.01516L9.6872 4.52274C10.0151 4.17824 10.3305 3.85512 10.6584 3.57525H10.6585ZM13.2442 13.2665L13.8496 14.817C14.064 14.2786 14.3164 13.7833 14.5939 13.288L14.0263 11.8235C13.7428 12.2669 13.4812 12.7494 13.2442 13.2663V13.2665ZM11.4153 20.2011L12.437 21.5794C12.4874 20.7394 12.5757 19.8995 12.7018 19.0597L11.7936 17.8321C11.6297 18.629 11.5161 19.4257 11.4152 20.2011H11.4153ZM5.89055 9.97128L4.99495 8.6362C4.66702 9.17457 4.3517 9.71295 4.06151 10.2513L5.03271 11.6727C5.29775 11.0913 5.58774 10.5098 5.89045 9.97145L5.89055 9.97128ZM2.08127 19.5982L0.630641 18.6936C0.391021 19.6194 0.126167 20.6963 0 21.2778L1.45053 22.1822C1.61455 21.45 1.8794 20.3948 2.08127 19.5979V19.5982ZM11.226 25.6713C11.2513 26.8127 11.3144 27.7386 11.3774 28.3849L12.8911 29.3108C12.7775 28.4709 12.664 27.5234 12.5883 26.5113L11.2261 25.6713H11.226Z" fill="#CC0000"/>
</svg>
