<svg width="34" height="30" viewBox="0 0 34 30" fill="none" xmlns="http://www.w3.org/2000/svg">
<path d="M27.7235 9.7236C27.3646 9.60049 27.0028 9.48643 26.6382 9.38154C26.6994 9.13129 26.7558 8.88406 26.8058 8.64118C27.6275 4.65276 27.0903 1.43961 25.2557 0.381683C23.4967 -0.632512 20.6199 0.425017 17.7146 2.95352C17.4282 3.20317 17.1482 3.46 16.8749 3.72379C16.6919 3.54838 16.5057 3.37637 16.3163 3.20786C13.2713 0.504309 10.2193 -0.635146 8.3866 0.425807C6.62915 1.44316 6.10875 4.46375 6.84845 8.24367C6.92204 8.61803 7.00514 8.99046 7.09765 9.3606C6.66563 9.48336 6.24876 9.61402 5.8498 9.75311C2.27983 10.9978 0 12.9483 0 14.9716C0 17.0612 2.4475 19.1572 6.16578 20.4281C6.46723 20.5307 6.77119 20.6258 7.07737 20.7133C6.97793 21.1119 6.88965 21.5133 6.81263 21.9169C6.10743 25.6312 6.65813 28.5804 8.41084 29.5913C10.2211 30.6353 13.2595 29.5623 16.2179 26.9761C16.4578 26.7659 16.6924 26.5497 16.9215 26.3277C17.2176 26.6133 17.5215 26.8906 17.833 27.1593C20.6988 29.6253 23.5291 30.621 25.2801 29.6074C27.0886 28.5604 27.6765 25.3921 26.9133 21.5375C26.8532 21.2355 26.7858 20.9351 26.7111 20.6363C26.9245 20.5731 27.1339 20.5081 27.3381 20.4404C31.2036 19.1597 33.7187 17.0892 33.7187 14.9716C33.7187 12.941 31.3652 10.9773 27.7235 9.7236V9.7236ZM26.8851 19.0732C26.7007 19.1342 26.5116 19.193 26.3188 19.2503C25.892 17.8993 25.3162 16.4629 24.6114 14.9786C25.2839 13.5297 25.8376 12.1116 26.2524 10.7694C26.5973 10.8693 26.932 10.9745 27.2547 11.0855C30.375 12.1598 32.2783 13.7479 32.2783 14.9716C32.2783 16.275 30.2228 17.9672 26.8851 19.0732V19.0732ZM25.5003 21.8173C25.8377 23.5217 25.8858 25.0627 25.6623 26.2675C25.4616 27.3501 25.0577 28.0717 24.5583 28.3608C23.4957 28.9759 21.2233 28.1764 18.7725 26.0674C18.4828 25.8176 18.2 25.5598 17.9246 25.2943C18.8748 24.2552 19.8244 23.0472 20.7511 21.7056C22.3812 21.561 23.9212 21.3244 25.3177 21.0016C25.3865 21.2791 25.4476 21.5512 25.5003 21.8173V21.8173ZM11.4954 28.2545C10.4573 28.6211 9.63038 28.6316 9.13052 28.3434C8.06693 27.73 7.62477 25.362 8.22789 22.1856C8.29958 21.8102 8.38167 21.4369 8.47406 21.0661C9.85521 21.3717 11.384 21.5914 13.0179 21.7239C13.951 23.0367 14.9279 24.2433 15.9125 25.2999C15.7032 25.5024 15.489 25.6997 15.2701 25.8916C13.9618 27.0351 12.6508 27.8465 11.4954 28.2545V28.2545ZM6.63178 19.0651C4.9876 18.5031 3.62977 17.7728 2.69908 16.9758C1.86269 16.2596 1.44055 15.5485 1.44055 14.9716C1.44055 13.7438 3.27098 12.1777 6.32397 11.1133C6.69448 10.9842 7.08224 10.8624 7.48463 10.7481C7.90664 12.1205 8.4601 13.5555 9.12802 15.0066C8.45141 16.4792 7.89004 17.9371 7.46395 19.3258C7.18447 19.2457 6.90699 19.1588 6.63178 19.0651V19.0651ZM8.26213 7.96694C7.62846 4.7285 8.04929 2.2856 9.10839 1.67248C10.2364 1.01944 12.7308 1.95052 15.3599 4.28502C15.5314 4.43759 15.7 4.59326 15.8658 4.75194C14.8861 5.80394 13.9182 7.00161 12.9934 8.30663C11.4076 8.45362 9.88959 8.68965 8.49395 9.0059C8.40796 8.66162 8.33067 8.31524 8.26213 7.96707V7.96694ZM22.8069 11.5585C22.4772 10.9891 22.1354 10.4269 21.7815 9.87218C22.8573 10.0082 23.8881 10.1888 24.8561 10.4096C24.5655 11.341 24.2033 12.3148 23.777 13.3132C23.4653 12.7219 23.1419 12.1369 22.8069 11.5585V11.5585ZM16.8755 5.78142C17.5399 6.50123 18.2053 7.30482 18.8598 8.17676C17.5321 8.11406 16.2023 8.11379 14.8746 8.17597C15.5297 7.31206 16.2008 6.50953 16.8755 5.78142ZM10.9062 11.5684C10.5753 12.1421 10.2579 12.7235 9.95426 13.312C9.53488 12.3172 9.17596 11.3389 8.8829 10.3943C9.84494 10.1791 10.8709 10.0031 11.9398 9.86954C11.582 10.4276 11.2374 10.994 10.9062 11.5683V11.5684ZM11.9705 20.1761C10.8661 20.0529 9.82479 19.886 8.86301 19.6765C9.16069 18.715 9.52751 17.716 9.95597 16.6998C10.2609 17.2888 10.5796 17.8705 10.9118 18.4445C11.2535 19.0346 11.6073 19.6125 11.9705 20.1761ZM16.9153 24.2632C16.2325 23.5267 15.5516 22.7118 14.8865 21.8353C15.5322 21.8606 16.1904 21.8735 16.8593 21.8735C17.5466 21.8735 18.226 21.8581 18.8947 21.8284C18.2381 22.7206 17.5752 23.5367 16.9153 24.2632ZM23.7905 16.6479C24.2412 17.6753 24.6211 18.6691 24.9227 19.6141C23.9451 19.8372 22.8896 20.0169 21.7774 20.1503C22.1338 19.5853 22.4789 19.0133 22.8125 18.4346C23.1517 17.8464 23.4778 17.2507 23.7905 16.6479V16.6479ZM21.5648 17.7149C21.0541 18.6022 20.5146 19.4726 19.9472 20.3248C18.9196 20.3976 17.8896 20.4338 16.8593 20.4332C15.81 20.4332 14.7893 20.4006 13.8065 20.3368C13.2243 19.4866 12.6746 18.6146 12.1584 17.7228H12.1585C11.6447 16.8358 11.1648 15.9295 10.7198 15.006C11.1636 14.0823 11.6421 13.1756 12.1541 12.2878L12.154 12.2879C12.6658 11.4 13.2112 10.5317 13.789 9.68514C14.7917 9.60928 15.82 9.56976 16.8592 9.56976H16.8593C17.9033 9.56976 18.9329 9.60967 19.9354 9.68607C20.5073 10.5314 21.0492 11.3966 21.5601 12.2802C22.0738 13.166 22.5586 14.0682 23.0137 14.9856C22.5633 15.9123 22.08 16.8226 21.5648 17.7149V17.7149ZM24.5363 1.62954C25.6653 2.28073 26.1045 4.90671 25.3951 8.35036C25.3497 8.57006 25.2989 8.79384 25.2436 9.02078C23.8445 8.69782 22.3255 8.45771 20.735 8.30847C19.8085 6.9891 18.8485 5.78958 17.8847 4.75115C18.1373 4.50768 18.3959 4.27052 18.6603 4.0399C21.1497 1.8736 23.4762 1.01826 24.5363 1.62954V1.62954ZM16.8593 11.9606C18.5222 11.9606 19.8703 13.3087 19.8703 14.9716C19.8703 16.6345 18.5222 17.9826 16.8593 17.9826C15.1965 17.9826 13.8484 16.6345 13.8484 14.9716C13.8484 13.3087 15.1965 11.9606 16.8593 11.9606V11.9606Z" fill="#00D8FF"/>
</svg>
