<svg width="32" height="30" viewBox="0 0 32 30" fill="none" xmlns="http://www.w3.org/2000/svg">
<path d="M21.8958 20.9518C23.062 20.831 23.9467 19.8257 23.9064 18.6192C23.8663 17.4129 22.8609 16.4477 21.6545 16.4477H21.5742C20.3274 16.4879 19.3624 17.5335 19.4026 18.7801C19.4428 19.3833 19.6841 19.9061 20.046 20.268C18.6788 22.9625 16.5877 24.9329 13.4511 26.5817C11.3198 27.7077 9.10811 28.1099 6.89645 27.8285C5.08682 27.5871 3.67936 26.7829 2.79455 25.4557C1.50781 23.4852 1.38721 21.3538 2.47299 19.2225C3.23708 17.6943 4.44333 16.5683 5.20742 16.0053C5.04658 15.4825 4.80526 14.5978 4.68466 13.9545C-1.14626 18.177 -0.543012 23.8874 1.22637 26.5817C2.55335 28.5925 5.24766 29.8392 8.22342 29.8392C9.02763 29.8392 9.83184 29.7587 10.6362 29.5577C15.7835 28.5523 19.6842 25.4959 21.8958 20.9518V20.9518ZM28.9734 15.9652C25.9171 12.386 21.4133 10.4156 16.266 10.4156H15.6226C15.2607 9.69173 14.4966 9.20908 13.6522 9.20908H13.5717C12.3252 9.24932 11.3601 10.2949 11.4003 11.5416C11.4405 12.748 12.4458 13.7131 13.6522 13.7131H13.7325C14.6172 13.6729 15.3813 13.1099 15.703 12.3458H16.4269C19.4831 12.3458 22.3784 13.2305 24.9923 14.9598C27.0029 16.2869 28.4506 18.0161 29.2548 20.1072C29.9384 21.7962 29.8982 23.445 29.1743 24.8526C28.0484 26.9839 26.1585 28.1501 23.6652 28.1501C22.0567 28.1501 20.5286 27.6675 19.7243 27.3056C19.282 27.7077 18.4777 28.3511 17.9147 28.7534C19.6439 29.5576 21.4133 30 23.1022 30C26.9627 30 29.8178 27.8686 30.9036 25.7373C32.0697 23.4048 31.9893 19.3833 28.9734 15.9652V15.9652ZM8.54511 21.6352C8.58535 22.8417 9.59064 23.8068 10.797 23.8068H10.8775C12.1241 23.7667 13.0892 22.721 13.0489 21.4744C13.0088 20.2679 12.0034 19.3029 10.797 19.3029H10.7167C10.6362 19.3029 10.5154 19.3029 10.4352 19.343C8.78643 16.6084 8.10282 13.6327 8.34415 10.4155C8.50486 8.00258 9.3092 5.9114 10.7167 4.18213C11.8828 2.69419 14.1347 1.97034 15.6629 1.93022C19.9254 1.84974 21.7349 7.15801 21.8556 9.28944C22.3784 9.41004 23.2631 9.69161 23.8663 9.89269C23.3837 3.37805 19.3624 0 15.502 0C11.8828 0 8.54511 2.61396 7.21801 6.47453C5.36826 11.622 6.57464 16.5683 8.82655 20.4691C8.62559 20.7506 8.50486 21.193 8.54511 21.6354V21.6352Z" fill="#764ABC"/>
</svg>
