<svg width="30" height="30" viewBox="0 0 30 30" fill="none" xmlns="http://www.w3.org/2000/svg">
<path d="M23.1406 19.737L6.08752 29.9029L28.1682 28.3985L29.8687 6.04626L23.1405 19.7369L23.1406 19.737Z" fill="url(#paint0_linear)"/>
<path d="M28.2043 28.3831L26.3065 15.2329L21.137 22.0859L28.2043 28.3833V28.3831Z" fill="url(#paint1_linear)"/>
<path d="M28.23 28.3832L14.3262 27.2876L6.16126 29.8742L28.23 28.3832V28.3832Z" fill="url(#paint2_linear)"/>
<path d="M6.18096 29.877L9.6544 18.4535L2.01096 20.0941L6.18084 29.8769L6.18096 29.877Z" fill="url(#paint3_linear)"/>
<path d="M21.1357 22.1236L17.9396 9.55603L8.7935 18.1631L21.1357 22.1238V22.1236Z" fill="url(#paint4_linear)"/>
<path d="M29.1437 9.73298L20.498 2.64404L18.0905 10.4579L29.1437 9.73298V9.73298Z" fill="url(#paint5_linear)"/>
<path d="M25.1005 0.1165L20.0156 2.93768L16.8075 0.0787354L25.1005 0.116618V0.1165Z" fill="url(#paint6_linear)"/>
<path d="M0 23.9261L2.13012 20.026L0.406992 15.3796L0 23.9261Z" fill="url(#paint7_linear)"/>
<path d="M0.292498 15.2329L2.02617 20.1698L9.55933 18.4731L18.1597 10.4487L20.5869 2.70906L16.7652 0L10.2677 2.44118C8.22058 4.35271 4.24828 8.13482 4.10508 8.20588C3.96328 8.27859 1.48195 12.9869 0.292498 15.2329V15.2329Z" fill="white"/>
<path d="M6.37993 6.36395C10.8166 1.94771 16.5362 -0.661463 18.7311 1.56183C20.9249 3.78513 18.5985 9.18807 14.1618 13.6029C9.72505 18.0176 4.07637 20.7705 1.88286 18.5472C-0.312063 16.3255 1.94321 10.7788 6.37993 6.36395V6.36395Z" fill="url(#paint8_linear)"/>
<path d="M6.18092 29.8725L9.62717 18.4126L21.0723 22.1039C16.9342 25.9995 12.3316 29.2928 6.18092 29.8725V29.8725Z" fill="url(#paint9_linear)"/>
<path d="M18.1749 10.426L21.1131 22.1099C24.5699 18.461 27.6723 14.5382 29.1918 9.68604L18.175 10.426H18.1749Z" fill="url(#paint10_linear)"/>
<path d="M29.1617 9.74503C30.3377 6.18244 30.609 1.0715 25.0642 0.122559L20.5143 2.6455L29.1617 9.74503V9.74503Z" fill="url(#paint11_linear)"/>
<path d="M0 23.8747C0.162891 29.7546 4.38844 29.8422 6.18844 29.8937L2.03062 20.1455L0 23.8747Z" fill="#9E1209"/>
<path d="M18.1912 10.4443C20.8475 12.0834 26.201 15.3751 26.3095 15.4356C26.4783 15.5309 28.6175 11.814 29.103 9.71326L18.1912 10.4443V10.4443Z" fill="url(#paint12_radial)"/>
<path d="M9.62264 18.4126L14.2296 27.3359C16.9538 25.8527 19.0871 24.0457 21.0407 22.11L9.62264 18.4126Z" fill="url(#paint13_radial)"/>
<path d="M2.01257 20.1576L1.35984 27.9609C2.59148 29.6499 4.28601 29.7968 6.06328 29.6651C4.77738 26.4521 2.20851 20.0275 2.01257 20.1576Z" fill="url(#paint14_linear)"/>
<path d="M20.4874 2.66517L29.6398 3.95458C29.1512 1.87669 27.6512 0.535754 25.0944 0.116577L20.4874 2.66517V2.66517Z" fill="url(#paint15_linear)"/>
<defs>
<linearGradient id="paint0_linear" x1="26.2421" y1="32.6223" x2="19.9108" y2="21.471" gradientUnits="userSpaceOnUse">
<stop stop-color="#FB7655"/>
<stop offset="0.41" stop-color="#E42B1E"/>
<stop offset="0.99" stop-color="#990000"/>
<stop offset="1" stop-color="#990000"/>
</linearGradient>
<linearGradient id="paint1_linear" x1="29.3811" y1="23.2402" x2="20.5309" y2="21.5181" gradientUnits="userSpaceOnUse">
<stop stop-color="#871101"/>
<stop offset="0.99" stop-color="#911209"/>
<stop offset="1" stop-color="#911209"/>
</linearGradient>
<linearGradient id="paint2_linear" x1="22.8836" y1="32.9607" x2="22.7688" y2="27.3269" gradientUnits="userSpaceOnUse">
<stop stop-color="#871101"/>
<stop offset="0.99" stop-color="#911209"/>
<stop offset="1" stop-color="#911209"/>
</linearGradient>
<linearGradient id="paint3_linear" x1="5.8336" y1="19.2799" x2="8.48275" y2="27.0175" gradientUnits="userSpaceOnUse">
<stop stop-color="white"/>
<stop offset="0.23" stop-color="#E57252"/>
<stop offset="0.46" stop-color="#DE3B20"/>
<stop offset="0.99" stop-color="#A60003"/>
<stop offset="1" stop-color="#A60003"/>
</linearGradient>
<linearGradient id="paint4_linear" x1="14.4924" y1="11.6106" x2="14.9732" y2="19.9922" gradientUnits="userSpaceOnUse">
<stop stop-color="white"/>
<stop offset="0.23" stop-color="#E4714E"/>
<stop offset="0.56" stop-color="#BE1A0D"/>
<stop offset="0.99" stop-color="#A80D00"/>
<stop offset="1" stop-color="#A80D00"/>
</linearGradient>
<linearGradient id="paint5_linear" x1="22.1763" y1="3.86254" x2="22.8794" y2="9.94935" gradientUnits="userSpaceOnUse">
<stop stop-color="white"/>
<stop offset="0.18" stop-color="#E46342"/>
<stop offset="0.4" stop-color="#C82410"/>
<stop offset="0.99" stop-color="#A80D00"/>
<stop offset="1" stop-color="#A80D00"/>
</linearGradient>
<linearGradient id="paint6_linear" x1="17.9361" y1="1.74681" x2="18.9271" y2="-2.43897" gradientUnits="userSpaceOnUse">
<stop stop-color="white"/>
<stop offset="0.54" stop-color="#C81F11"/>
<stop offset="0.99" stop-color="#BF0905"/>
<stop offset="1" stop-color="#BF0905"/>
</linearGradient>
<linearGradient id="paint7_linear" x1="0.588424" y1="17.1859" x2="3.16662" y2="18.7957" gradientUnits="userSpaceOnUse">
<stop stop-color="white"/>
<stop offset="0.31" stop-color="#DE4024"/>
<stop offset="0.99" stop-color="#BF190B"/>
<stop offset="1" stop-color="#BF190B"/>
</linearGradient>
<linearGradient id="paint8_linear" x1="-2.79736" y1="23.4743" x2="20.4135" y2="-0.367515" gradientUnits="userSpaceOnUse">
<stop stop-color="#BD0012"/>
<stop offset="0.07" stop-color="white"/>
<stop offset="0.17" stop-color="white"/>
<stop offset="0.27" stop-color="#C82F1C"/>
<stop offset="0.33" stop-color="#820C01"/>
<stop offset="0.46" stop-color="#A31601"/>
<stop offset="0.72" stop-color="#B31301"/>
<stop offset="0.99" stop-color="#E82609"/>
<stop offset="1" stop-color="#E82609"/>
</linearGradient>
<linearGradient id="paint9_linear" x1="14.9359" y1="25.885" x2="8.3861" y2="23.1448" gradientUnits="userSpaceOnUse">
<stop stop-color="#8C0C01"/>
<stop offset="0.54" stop-color="#990C00"/>
<stop offset="0.99" stop-color="#A80D0E"/>
<stop offset="1" stop-color="#A80D0E"/>
</linearGradient>
<linearGradient id="paint10_linear" x1="26.9134" y1="17.4825" x2="20.1569" y2="12.7021" gradientUnits="userSpaceOnUse">
<stop stop-color="#7E110B"/>
<stop offset="0.99" stop-color="#9E0C00"/>
<stop offset="1" stop-color="#9E0C00"/>
</linearGradient>
<linearGradient id="paint11_linear" x1="29.1894" y1="7.25493" x2="26.0078" y2="4.03776" gradientUnits="userSpaceOnUse">
<stop stop-color="#79130D"/>
<stop offset="0.99" stop-color="#9E120B"/>
<stop offset="1" stop-color="#9E120B"/>
</linearGradient>
<radialGradient id="paint12_radial" cx="0" cy="0" r="1" gradientUnits="userSpaceOnUse" gradientTransform="translate(21.6831 12.0149) scale(7.59166 3.98246)">
<stop stop-color="#A80D00"/>
<stop offset="0.99" stop-color="#7E0E08"/>
<stop offset="1" stop-color="#7E0E08"/>
</radialGradient>
<radialGradient id="paint13_radial" cx="0" cy="0" r="1" gradientUnits="userSpaceOnUse" gradientTransform="translate(11.1697 22.0587) scale(10.092 7.88694)">
<stop stop-color="#A30C00"/>
<stop offset="0.99" stop-color="#800E08"/>
<stop offset="1" stop-color="#800E08"/>
</radialGradient>
<linearGradient id="paint14_linear" x1="4.02058" y1="29.8658" x2="-1.67939" y2="25.1529" gradientUnits="userSpaceOnUse">
<stop stop-color="#8B2114"/>
<stop offset="0.43" stop-color="#9E100A"/>
<stop offset="0.99" stop-color="#B3100C"/>
<stop offset="1" stop-color="#B3100C"/>
</linearGradient>
<linearGradient id="paint15_linear" x1="23.3128" y1="1.48287" x2="24.9364" y2="5.57425" gradientUnits="userSpaceOnUse">
<stop stop-color="#B31000"/>
<stop offset="0.44" stop-color="#910F08"/>
<stop offset="0.99" stop-color="#791C12"/>
<stop offset="1" stop-color="#791C12"/>
</linearGradient>
</defs>
</svg>
