<svg width="160" height="160" viewBox="0 0 160 160" fill="none" xmlns="http://www.w3.org/2000/svg">
<path d="M80 0C36 0 0 36 0 80C0 124 36 160 80 160C124 160 160 124 160 80C160 36 124.4 0 80 0ZM116.807 115.6C115.207 117.993 112.407 118.8 110 117.2C91.2 105.6 67.6 103.193 39.5933 109.593C36.8067 110.407 34.4 108.4 33.6 106C32.8 103.193 34.8 100.8 37.2 100C67.6 93.1933 94 96 114.8 108.8C117.6 110 117.993 113.193 116.807 115.6V115.6ZM126.407 93.6C124.4 96.4 120.8 97.6 117.993 95.6C96.4 82.4 63.6 78.4 38.4 86.4C35.2067 87.2 31.6 85.6 30.8 82.4C30 79.2 31.6 75.5933 34.8 74.7933C64 66 100 70.4067 124.8 85.6C127.207 86.8067 128.4 90.8 126.407 93.6V93.6ZM127.207 71.2C101.6 56 58.8 54.4 34.4 62.0067C30.4 63.2 26.4 60.8 25.2 57.2C24 53.1933 26.4 49.2 30 47.9933C58.4 39.5933 105.2 41.1933 134.807 58.8C138.4 60.8 139.6 65.6 137.6 69.2C135.607 72.0067 130.8 73.1933 127.207 71.2V71.2Z" fill="black"/>
</svg>
