<?xml version="1.0" encoding="UTF-8" standalone="no"?>
<!DOCTYPE svg PUBLIC "-//W3C//DTD SVG 1.1//EN" "http://www.w3.org/Graphics/SVG/1.1/DTD/svg11.dtd">
<svg version="1.1" xmlns="http://www.w3.org/2000/svg" xmlns:xlink="http://www.w3.org/1999/xlink" preserveAspectRatio="xMidYMid meet" viewBox="0 0 640 640" width="1800" height="1000"><defs><path d="" id="b2iK8guwm"></path><path d="" id="c6yAvbQvp"></path><path d="M640 4.8L640 146.48C600.86 250.69 554.63 315.46 501.29 340.8C421.29 378.8 385.11 336.8 359.11 310.8C333.11 284.8 299.29 190.8 291.29 118.8C285.96 70.8 257.96 32.8 207.29 4.8L0 4.8" id="b1gHuKrI"></path></defs><g><g><g><g><use xlink:href="#b2iK8guwm" opacity="1" fill-opacity="0" stroke="#000000" stroke-width="1" stroke-opacity="1"></use></g></g><g><g><use xlink:href="#c6yAvbQvp" opacity="1" fill-opacity="0" stroke="#000000" stroke-width="1" stroke-opacity="1"></use></g></g><g><g><filter id="shadow2542549" x="-45" y="-40.2" width="744" height="456.22" filterUnits="userSpaceOnUse" primitiveUnits="userSpaceOnUse"><feFlood></feFlood><feComposite in2="SourceAlpha" operator="in"></feComposite><feGaussianBlur stdDeviation="2.45"></feGaussianBlur><feOffset dx="14" dy="15" result="afterOffset"></feOffset><feFlood flood-color="#27c91b" flood-opacity="1"></feFlood><feComposite in2="afterOffset" operator="in"></feComposite><feMorphology operator="dilate" radius="13"></feMorphology><feComposite in2="SourceAlpha" operator="out"></feComposite></filter><path d="M640 4.8L640 146.48C600.86 250.69 554.63 315.46 501.29 340.8C421.29 378.8 385.11 336.8 359.11 310.8C333.11 284.8 299.29 190.8 291.29 118.8C285.96 70.8 257.96 32.8 207.29 4.8L0 4.8" id="bqueSL2Pc" fill="none" stroke="white" filter="url(#shadow2542549)"></path></g><use xlink:href="#b1gHuKrI" opacity="1" fill="#4bd5d4" fill-opacity="1"></use><g><use xlink:href="#b1gHuKrI" opacity="1" fill-opacity="0" stroke="#000000" stroke-width="0" stroke-opacity="1"></use></g></g></g></g></svg>