<svg width="30" height="30" viewBox="0 0 30 30" fill="none" xmlns="http://www.w3.org/2000/svg">
<path d="M15 0.00500488L30 7.49518V22.4804L15 29.9706L0 22.4804V7.49518L15 0.00500488Z" fill="white"/>
<path d="M27.3226 21.9608L15.4982 27.8718V23.2749L22.868 19.6922L27.3226 21.9608ZM28.132 21.3162V8.96424L23.8076 11.1677V19.1125L28.132 21.3162V21.3162ZM2.63205 21.9607L14.4566 27.8669V23.2699L7.08681 19.6922L2.63205 21.9608V21.9607ZM1.82263 21.3162V8.96424L6.1472 11.1677V19.1125L1.82263 21.3162V21.3162ZM2.32654 8.1648L14.4566 2.10862V6.55586L6.68498 10.3283L6.62263 10.3583L2.32654 8.16469V8.1648ZM27.6226 8.1648L15.4982 2.10852V6.55576L23.2642 10.3332L23.3264 10.3632L27.6226 8.16459V8.1648Z" fill="#8ED6FB"/>
<path d="M14.4566 22.2256L7.1886 18.6928V11.7024L14.4566 15.405V22.2256V22.2256ZM15.4981 22.2256L22.7661 18.6979V11.7024L15.4981 15.405V22.2256V22.2256ZM7.6754 10.8929L14.9773 7.35022L22.2734 10.8929L14.9773 14.6105L7.6754 10.8929V10.8929Z" fill="#1C78C0"/>
</svg>
